SplineFontDB: 3.0
FontName: Jost-ThinItalic
FullName: Jost* 200 Thin Italic
FamilyName: Jost* Thin
Weight: Thin
Copyright: This typeface is licensed under the SIL open font license.
UComments: "2018-6-8: Created with FontForge (http://fontforge.org)"
Version: 003.400
ItalicAngle: -10
UnderlinePosition: -100
UnderlineWidth: 50
Ascent: 800
Descent: 200
InvalidEm: 0
LayerCount: 2
Layer: 0 0 "Back" 1
Layer: 1 0 "Fore" 0
XUID: [1021 69 1495626776 760146]
FSType: 0
OS2Version: 0
OS2_WeightWidthSlopeOnly: 0
OS2_UseTypoMetrics: 0
CreationTime: 1528480336
ModificationTime: 1562964954
PfmFamily: 17
TTFWeight: 200
TTFWidth: 5
LineGap: 100
VLineGap: 0
OS2TypoAscent: 825
OS2TypoAOffset: 0
OS2TypoDescent: -225
OS2TypoDOffset: 0
OS2TypoLinegap: 100
OS2WinAscent: 900
OS2WinAOffset: 0
OS2WinDescent: 300
OS2WinDOffset: 0
HheadAscent: 1030
HheadAOffset: 0
HheadDescent: -350
HheadDOffset: 0
OS2CapHeight: 700
OS2XHeight: 460
OS2Vendor: 'PfEd'
Lookup: 1 0 0 "alt a" { "alt a"  } ['ss01' ('DFLT' <'dflt' > 'latn' <'dflt' > ) ]
Lookup: 1 0 0 "Tabular Numbers lookup" { "Tabular Numbers lookup"  } ['tnum' ('DFLT' <'dflt' > 'grek' <'dflt' > 'latn' <'dflt' > ) ]
Lookup: 258 0 0 "Lets get our kern on" { "kernin like nobodys business" [150,0,4] } ['kern' ('DFLT' <'dflt' > 'latn' <'dflt' > ) ]
MarkAttachClasses: 1
DEI: 91125
KernClass2: 16 14 "kernin like nobodys business"
 43 slash seven V W Wcircumflex uni040E uni0423
 175 quotedbl quotesingle asterisk grave dieresis ordfeminine macron degree acute ordmasculine circumflex breve dotaccent ring tilde quoteleft quoteright quotedblleft quotedblright
 25 nine question F P uni0420
 131 A L backslash Agrave Aacute Acircumflex Atilde Adieresis Aring Amacron Abreve Aogonek Lacute uni013B Lslash uni0410 uni0414 uni041C
 58 three eight B C germandbls uni0411 uni0412 uni0417 uni0421
 29 K X Z uni0416 uni041A uni0425

StartChar: H
Encoding: 72 72 0
Width: 646
VWidth: 0
Flags: HMW
LayerCount: 2
Fore
SplineSet
136 366 m 1
 141 397 l 1
 594 397 l 1
 589 366 l 1
 136 366 l 1
623 700 m 1
 657 700 l 1
 536 0 l 1
 504 0 l 1
 623 700 l 1
176 700 m 1
 210 700 l 1
 90 0 l 1
 57 0 l 1
 176 700 l 1
EndSplineSet
EndChar

StartChar: O
Encoding: 79 79 1
Width: 755
VWidth: 0
Flags: HMW
LayerCount: 2
Fore
SplineSet
113 350 m 0
 88 183 174 26 354 25 c 0
 536 24 681 174 709 350 c 0
 734 517 647 674 467 675 c 0
 285 676 141 526 113 350 c 0
78 350 m 0
 108 546 270 709 470 709 c 0
 668 709 770 536 743 350 c 0
 713 154 551 -9 351 -9 c 0
 153 -9 51 164 78 350 c 0
EndSplineSet
EndChar

StartChar: I
Encoding: 73 73 2
Width: 193
VWidth: 0
Flags: HMW
LayerCount: 2
Fore
SplineSet
173 700 m 1
 206 700 l 1
 85 0 l 1
 53 0 l 1
 173 700 l 1
EndSplineSet
EndChar

StartChar: C
Encoding: 67 67 3
Width: 664
VWidth: 0
Flags: HMW
LayerCount: 2
Fore
SplineSet
113 350 m 0
 88 184 173 28 348 26 c 0
 443 25 519 61 583 115 c 1
 576 70 l 1
 510 21 439 -8 345 -8 c 0
 149 -7 51 164 78 350 c 0
 108 546 266 708 464 709 c 0
 553 709 616 683 671 630 c 1
 663 585 l 1
 614 644 546 674 461 674 c 0
 284 673 141 527 113 350 c 0
EndSplineSet
EndChar

StartChar: E
Encoding: 69 69 4
Width: 505
VWidth: 0
Flags: HMW
LayerCount: 2
Fore
SplineSet
73 0 m 1
 78 31 l 1
 411 31 l 1
 406 0 l 1
 73 0 l 1
187 669 m 1
 192 700 l 1
 525 700 l 1
 520 669 l 1
 187 669 l 1
136 371 m 1
 141 402 l 1
 455 402 l 1
 449 371 l 1
 136 371 l 1
176 700 m 1
 210 700 l 1
 90 0 l 1
 57 0 l 1
 176 700 l 1
EndSplineSet
EndChar

StartChar: F
Encoding: 70 70 6
Width: 450
VWidth: 0
Flags: HMW
LayerCount: 2
Fore
SplineSet
187 668 m 1
 193 700 l 1
 486 700 l 1
 481 668 l 1
 187 668 l 1
135 363 m 1
 141 394 l 1
 424 394 l 1
 419 363 l 1
 135 363 l 1
176 700 m 1
 210 700 l 1
 90 0 l 1
 57 0 l 1
 176 700 l 1
EndSplineSet
EndChar

StartChar: G
Encoding: 71 71 7
Width: 745
VWidth: 0
Flags: HMW
LayerCount: 2
Fore
SplineSet
429 313 m 1
 435 344 l 1
 727 344 l 1
 692 163 555 -8 353 -8 c 0
 155 -8 51 163 78 350 c 0
 109 547 271 709 472 709 c 0
 589 709 673 650 722 557 c 1
 695 537 l 1
 656 621 575 675 469 675 c 0
 287 675 142 529 113 350 c 0
 88 183 176 25 356 25 c 0
 528 25 646 164 686 313 c 1
 429 313 l 1
EndSplineSet
EndChar

StartChar: T
Encoding: 84 84 8
Width: 427
VWidth: 0
Flags: HMW
LayerCount: 2
Fore
SplineSet
103 668 m 1
 108 700 l 1
 505 700 l 1
 499 668 l 1
 318 668 l 1
 203 0 l 1
 170 0 l 1
 284 668 l 1
 103 668 l 1
EndSplineSet
EndChar

StartChar: L
Encoding: 76 76 9
Width: 422
VWidth: 0
Flags: HMW
LayerCount: 2
Fore
SplineSet
177 700 m 1
 210 700 l 1
 95 31 l 1
 385 31 l 1
 380 0 l 1
 57 0 l 1
 177 700 l 1
EndSplineSet
EndChar

StartChar: D
Encoding: 68 68 10
Width: 629
VWidth: 0
Flags: HMW
LayerCount: 2
Fore
SplineSet
176 700 m 1
 210 700 l 1
 90 0 l 1
 57 0 l 1
 176 700 l 1
229 0 m 2
 74 0 l 1
 80 34 l 1
 232 34 l 2
 418 34 555 169 584 350 c 0
 611 522 525 666 342 666 c 2
 188 666 l 1
 194 700 l 1
 345 700 l 2
 546 700 645 540 617 350 c 0
 586 151 433 0 229 0 c 2
EndSplineSet
EndChar

StartChar: Q
Encoding: 81 81 11
Width: 753
VWidth: 0
Flags: HMW
LayerCount: 2
Fore
SplineSet
113 350 m 0
 88 183 174 26 354 25 c 0
 536 24 681 174 709 350 c 0
 734 517 647 674 467 675 c 0
 285 676 141 526 113 350 c 0
78 350 m 0
 108 546 270 709 470 709 c 0
 668 709 770 536 743 350 c 0
 713 154 551 -9 351 -9 c 0
 153 -9 51 164 78 350 c 0
406 300 m 1
 448 300 l 1
 703 0 l 1
 660 0 l 1
 406 300 l 1
EndSplineSet
EndChar

StartChar: A
Encoding: 65 65 12
Width: 599
VWidth: 0
Flags: HMW
LayerCount: 2
Fore
SplineSet
147 253 m 1
 160 284 l 1
 484 284 l 1
 488 253 l 1
 147 253 l 1
384 643 m 1
 175 273 l 1
 171 265 l 1
 21 0 l 1
 -17 0 l 1
 396 722 l 1
 561 0 l 1
 525 0 l 1
 468 263 l 1
 466 271 l 1
 384 643 l 1
EndSplineSet
EndChar

StartChar: R
Encoding: 82 82 13
Width: 480
VWidth: 0
Flags: HMW
LayerCount: 2
Fore
SplineSet
223 326 m 1
 259 326 l 1
 427 0 l 1
 388 0 l 1
 223 326 l 1
176 700 m 1
 210 700 l 1
 90 0 l 1
 57 0 l 1
 176 700 l 1
186 669 m 1
 192 700 l 1
 309 700 l 2
 434 700 527 626 507 502 c 0
 487 376 374 305 244 304 c 1
 124 304 l 1
 129 333 l 1
 247 333 l 1
 360 334 456 393 474 502 c 0
 492 609 416 667 307 669 c 1
 186 669 l 1
EndSplineSet
EndChar

StartChar: V
Encoding: 86 86 14
Width: 599
VWidth: 0
Flags: HMW
LayerCount: 2
Fore
SplineSet
291 59 m 1
 642 700 l 1
 680 700 l 1
 279 -22 l 1
 103 700 l 1
 139 700 l 1
 291 59 l 1
EndSplineSet
EndChar

StartChar: M
Encoding: 77 77 15
Width: 798
VWidth: 0
Flags: HMW
LayerCount: 2
Fore
SplineSet
227 613 m 1
 57 0 l 1
 24 0 l 1
 224 721 l 1
 399 161 l 1
 769 723 l 1
 720 0 l 1
 687 0 l 1
 729 611 l 1
 389 92 l 1
 227 613 l 1
EndSplineSet
EndChar

StartChar: W
Encoding: 87 87 16
Width: 932
VWidth: 0
Flags: HMW
LayerCount: 2
Fore
SplineSet
669 73 m 1
 972 700 l 1
 1009 700 l 1
 657 -22 l 1
 547 625 l 1
 236 -22 l 1
 107 700 l 1
 143 700 l 1
 251 73 l 1
 561 722 l 1
 669 73 l 1
EndSplineSet
EndChar

StartChar: N
Encoding: 78 78 17
Width: 677
VWidth: 0
Flags: HMW
LayerCount: 2
Fore
SplineSet
667 700 m 1
 700 700 l 1
 576 -21 l 1
 171 630 l 1
 63 0 l 1
 29 0 l 1
 153 721 l 1
 558 66 l 1
 667 700 l 1
EndSplineSet
EndChar

StartChar: a
Encoding: 97 97 18
Width: 533
VWidth: 0
Flags: HMW
LayerCount: 2
Fore
SplineSet
481 460 m 1
 511 460 l 1
 431 0 l 1
 403 0 l 1
 481 460 l 1
52 230 m 0
 71 363 176 471 304 470 c 0
 428 469 471 342 455 230 c 0
 437 110 348 -10 224 -10 c 0
 97 -10 35 104 52 230 c 0
84 230 m 0
 68 120 120 19 232 20 c 0
 336 21 424 125 441 230 c 0
 455 327 409 438 306 440 c 0
 194 442 102 346 84 230 c 0
EndSplineSet
Substitution2: "alt a" a.alt
EndChar

StartChar: X
Encoding: 88 88 19
Width: 501
VWidth: 0
Flags: HMW
LayerCount: 2
Fore
SplineSet
522 699 m 1
 562 699 l 1
 309 366 l 1
 468 0 l 1
 429 0 l 1
 288 336 l 1
 39 0 l 1
 -2 0 l 1
 276 368 l 1
 131 700 l 1
 170 700 l 1
 297 397 l 1
 522 699 l 1
EndSplineSet
EndChar

StartChar: K
Encoding: 75 75 20
Width: 472
VWidth: 0
Flags: HMW
LayerCount: 2
Fore
SplineSet
173 700 m 1
 207 700 l 1
 86 0 l 1
 53 0 l 1
 173 700 l 1
497 699 m 1
 541 699 l 1
 181 371 l 1
 434 0 l 1
 393 0 l 1
 141 372 l 1
 497 699 l 1
EndSplineSet
EndChar

StartChar: Y
Encoding: 89 89 21
Width: 507
VWidth: 0
Flags: HMW
LayerCount: 2
Fore
SplineSet
552 699 m 1
 590 699 l 1
 287 277 l 1
 240 0 l 1
 206 0 l 1
 255 278 l 1
 104 700 l 1
 141 700 l 1
 275 311 l 1
 552 699 l 1
EndSplineSet
EndChar

StartChar: B
Encoding: 66 66 22
Width: 498
VWidth: 0
Flags: HMW
LayerCount: 2
Fore
SplineSet
147 381 m 1
 150 401 l 1
 252 401 l 1
 341 403 423 444 438 534 c 0
 453 619 392 669 300 669 c 2
 204 669 l 1
 94 31 l 1
 198 31 l 2
 311 31 401 91 419 203 c 0
 435 304 354 371 259 371 c 2
 145 372 l 1
 148 391 l 1
 267 391 l 2
 370 391 468 320 451 201 c 0
 432 69 326 0 196 0 c 2
 56 0 l 1
 177 700 l 1
 303 700 l 2
 414 700 489 639 472 535 c 0
 455 432 364 383 258 381 c 1
 147 381 l 1
EndSplineSet
EndChar

StartChar: Z
Encoding: 90 90 23
Width: 521
VWidth: 0
Flags: HMW
LayerCount: 2
Fore
SplineSet
124 668 m 1
 129 700 l 1
 599 700 l 1
 54 33 l 1
 472 32 l 1
 467 0 l 1
 -10 0 l 1
 535 668 l 1
 124 668 l 1
EndSplineSet
EndChar

StartChar: o
Encoding: 111 111 24
Width: 535
VWidth: 0
Flags: HMW
LayerCount: 2
Fore
SplineSet
58 230 m 0
 76 362 188 470 322 470 c 0
 454 470 532 357 515 230 c 0
 497 98 385 -10 251 -10 c 0
 119 -10 41 103 58 230 c 0
90 230 m 0
 75 120 138 20 253 20 c 0
 369 20 466 115 483 230 c 0
 498 340 435 440 320 440 c 0
 204 440 107 345 90 230 c 0
EndSplineSet
EndChar

StartChar: J
Encoding: 74 74 25
Width: 203
VWidth: 0
Flags: HMW
LayerCount: 2
Fore
SplineSet
-158 -142 m 1
 -137 -166 -107 -188 -68 -188 c 0
 6 -188 40 -132 52 -50 c 2
 181 700 l 1
 213 700 l 1
 83 -60 l 2
 68 -154 22 -221 -72 -220 c 0
 -120 -220 -159 -192 -179 -166 c 1
 -158 -142 l 1
EndSplineSet
EndChar

StartChar: t
Encoding: 116 116 26
Width: 198
VWidth: 0
Flags: HMW
LayerCount: 2
Fore
SplineSet
65 460 m 1
 241 460 l 1
 236 430 l 1
 59 430 l 1
 65 460 l 1
163 620 m 1
 195 620 l 1
 87 0 l 1
 57 0 l 1
 163 620 l 1
EndSplineSet
EndChar

StartChar: d
Encoding: 100 100 27
Width: 533
VWidth: 0
Flags: HMW
LayerCount: 2
Fore
SplineSet
534 780 m 1
 566 780 l 1
 431 0 l 1
 401 0 l 1
 534 780 l 1
52 230 m 0
 71 363 176 471 304 470 c 0
 428 469 471 342 455 230 c 0
 437 110 348 -10 224 -10 c 0
 97 -10 35 104 52 230 c 0
84 230 m 0
 68 120 120 19 232 20 c 0
 336 21 424 125 441 230 c 0
 455 327 409 438 306 440 c 0
 194 442 102 346 84 230 c 0
EndSplineSet
EndChar

StartChar: l
Encoding: 108 108 28
Width: 188
VWidth: 0
Flags: HMW
LayerCount: 2
Fore
SplineSet
185 780 m 1
 217 780 l 1
 82 0 l 1
 52 0 l 1
 185 780 l 1
EndSplineSet
EndChar

StartChar: i
Encoding: 105 105 29
Width: 204
VWidth: 0
Flags: HMW
LayerCount: 2
Fore
SplineSet
168 681 m 0
 168 694 178 705 192 705 c 0
 206 705 216 694 216 681 c 0
 216 668 206 658 192 658 c 0
 178 658 168 668 168 681 c 0
139 460 m 1
 170 460 l 1
 91 0 l 1
 60 0 l 1
 139 460 l 1
EndSplineSet
EndChar

StartChar: r
Encoding: 114 114 30
Width: 296
VWidth: 0
Flags: HMW
LayerCount: 2
Fore
SplineSet
162 460 m 1
 83 0 l 1
 51 0 l 1
 131 460 l 1
 162 460 l 1
314 419 m 1
 297 430 281 440 261 440 c 0
 183 442 144 355 130 281 c 1
 116 281 l 1
 132 372 182 472 270 470 c 0
 295 470 316 459 335 444 c 1
 314 419 l 1
EndSplineSet
EndChar

StartChar: c
Encoding: 99 99 31
Width: 469
VWidth: 0
Flags: HMW
LayerCount: 2
Fore
SplineSet
85 230 m 0
 70 120 133 21 248 20 c 0
 317 20 376 54 412 87 c 1
 406 48 l 1
 369 17 311 -10 246 -10 c 0
 114 -10 37 103 54 230 c 0
 72 362 183 470 317 470 c 0
 378 470 432 445 462 412 c 1
 456 372 l 1
 431 409 379 440 315 440 c 0
 199 440 102 345 85 230 c 0
EndSplineSet
EndChar

StartChar: b
Encoding: 98 98 32
Width: 533
VWidth: 0
Flags: HMW
LayerCount: 2
Fore
SplineSet
212 780 m 1
 78 0 l 1
 47 0 l 1
 181 780 l 1
 212 780 l 1
506 230 m 0
 486 97 382 -11 254 -10 c 0
 130 -9 87 118 103 230 c 0
 121 350 209 470 333 470 c 0
 460 470 523 356 506 230 c 0
474 230 m 0
 490 340 438 441 326 440 c 0
 222 439 134 335 117 230 c 0
 103 133 149 22 252 20 c 0
 364 18 456 114 474 230 c 0
EndSplineSet
EndChar

StartChar: p
Encoding: 112 112 33
Width: 533
VWidth: 0
Flags: HMW
LayerCount: 2
Fore
SplineSet
40 -220 m 1
 9 -220 l 1
 126 460 l 1
 157 460 l 1
 40 -220 l 1
506 230 m 0
 486 97 382 -11 254 -10 c 0
 130 -9 87 118 103 230 c 0
 121 350 209 470 333 470 c 0
 460 470 523 356 506 230 c 0
474 230 m 0
 490 340 438 441 326 440 c 0
 222 439 134 335 117 230 c 0
 103 133 149 22 252 20 c 0
 364 18 456 114 474 230 c 0
EndSplineSet
EndChar

StartChar: q
Encoding: 113 113 34
Width: 533
VWidth: 0
Flags: HMW
LayerCount: 2
Fore
SplineSet
363 -220 m 1
 480 460 l 1
 511 460 l 1
 394 -220 l 1
 363 -220 l 1
52 230 m 0
 71 363 176 471 304 470 c 0
 428 469 471 342 455 230 c 0
 437 110 348 -10 224 -10 c 0
 97 -10 35 104 52 230 c 0
84 230 m 0
 68 120 120 19 232 20 c 0
 336 21 424 125 441 230 c 0
 455 327 409 438 306 440 c 0
 194 442 102 346 84 230 c 0
EndSplineSet
EndChar

StartChar: h
Encoding: 104 104 35
Width: 474
VWidth: 0
Flags: HMW
LayerCount: 2
Fore
SplineSet
217 780 m 1
 83 0 l 1
 51 0 l 1
 186 780 l 1
 217 780 l 1
391 308 m 2
 400 377 383 439 303 440 c 0
 214 441 149 361 130 281 c 1
 119 281 l 1
 139 379 211 470 312 470 c 0
 406 470 434 397 423 311 c 1
 369 0 l 1
 338 0 l 1
 391 308 l 2
EndSplineSet
EndChar

StartChar: n
Encoding: 110 110 36
Width: 474
VWidth: 0
Flags: HMW
LayerCount: 2
Fore
SplineSet
162 460 m 1
 83 0 l 1
 51 0 l 1
 131 460 l 1
 162 460 l 1
391 308 m 2
 400 377 383 439 303 440 c 0
 214 441 149 361 130 281 c 1
 119 281 l 1
 139 379 211 470 312 470 c 0
 406 470 434 397 423 311 c 1
 369 0 l 1
 338 0 l 1
 391 308 l 2
EndSplineSet
EndChar

StartChar: m
Encoding: 109 109 37
Width: 695
VWidth: 0
Flags: HMW
LayerCount: 2
Fore
SplineSet
358 308 m 2
 366 373 358 437 287 439 c 0
 209 441 147 358 130 281 c 1
 119 281 l 1
 137 375 204 471 295 470 c 0
 380 469 400 392 390 311 c 2
 336 0 l 1
 305 0 l 1
 358 308 l 2
162 460 m 1
 83 0 l 1
 51 0 l 1
 131 460 l 1
 162 460 l 1
643 311 m 2
 589 0 l 1
 558 0 l 1
 612 308 l 2
 620 373 611 437 540 439 c 0
 461 441 401 357 384 281 c 1
 366 281 l 1
 385 376 457 471 549 470 c 0
 634 469 653 392 643 311 c 2
EndSplineSet
EndChar

StartChar: k
Encoding: 107 107 38
Width: 380
VWidth: 0
Flags: HMW
LayerCount: 2
Fore
SplineSet
180 780 m 1
 212 780 l 1
 78 0 l 1
 47 0 l 1
 180 780 l 1
366 459 m 1
 409 459 l 1
 151 268 l 1
 347 0 l 1
 309 0 l 1
 114 271 l 1
 366 459 l 1
EndSplineSet
EndChar

StartChar: u
Encoding: 117 117 39
Width: 474
VWidth: 0
Flags: HMW
LayerCount: 2
Fore
SplineSet
338 0 m 1
 417 460 l 1
 449 460 l 1
 369 0 l 1
 338 0 l 1
110 159 m 2
 101 86 115 21 197 20 c 0
 286 19 351 99 370 179 c 1
 382 179 l 1
 362 81 289 -11 188 -10 c 0
 91 -10 68 67 79 156 c 1
 131 460 l 1
 162 460 l 1
 110 159 l 2
EndSplineSet
EndChar

StartChar: e
Encoding: 101 101 40
Width: 490
VWidth: 0
Flags: HMW
LayerCount: 2
Fore
SplineSet
78 223 m 1
 82 250 l 1
 438 250 l 1
 455 344 405 440 302 441 c 0
 197 442 110 351 92 241 c 1
 90 232 l 1
 78 125 122 21 231 20 c 0
 321 19 376 72 419 123 c 1
 443 106 l 1
 394 48 333 -11 226 -10 c 0
 103 -9 44 110 59 231 c 0
 63 255 68 277 77 299 c 0
 113 393 199 470 304 470 c 0
 421 469 486 364 472 248 c 0
 471 240 468 231 466 223 c 1
 78 223 l 1
EndSplineSet
EndChar

StartChar: g
Encoding: 103 103 41
Width: 533
VWidth: 0
Flags: HMW
LayerCount: 2
Fore
SplineSet
21 -30 m 1
 52 -30 l 1
 42 -122 86 -199 188 -200 c 0
 295 -201 385 -113 403 10 c 2
 480 460 l 1
 511 460 l 1
 434 10 l 2
 413 -129 315 -230 188 -230 c 0
 68 -230 9 -140 21 -30 c 1
52 230 m 0
 71 363 176 471 304 470 c 0
 428 469 471 342 455 230 c 0
 437 110 348 -10 224 -10 c 0
 97 -10 35 104 52 230 c 0
84 230 m 0
 68 120 120 20 232 20 c 0
 337 20 424 126 441 233 c 0
 455 327 408 438 306 440 c 0
 194 442 102 346 84 230 c 0
EndSplineSet
EndChar

StartChar: f
Encoding: 102 102 42
Width: 271
VWidth: 0
Flags: HMW
LayerCount: 2
Fore
SplineSet
97 460 m 1
 297 460 l 1
 292 430 l 1
 91 430 l 1
 97 460 l 1
364 718 m 1
 350 738 332 756 304 757 c 0
 241 758 212 695 202 641 c 2
 93 0 l 1
 61 0 l 1
 171 644 l 2
 183 717 226 790 308 788 c 0
 346 787 369 765 385 743 c 1
 364 718 l 1
EndSplineSet
EndChar

StartChar: s
Encoding: 115 115 43
Width: 391
VWidth: 0
Flags: HMW
LayerCount: 2
Fore
SplineSet
65 151 m 1
 76 88 104 21 182 20 c 0
 242 20 296 59 304 118 c 0
 313 177 261 205 206 225 c 0
 142 249 87 277 98 356 c 0
 108 428 175 468 247 468 c 0
 318 468 355 425 373 371 c 1
 346 357 l 1
 331 401 302 439 245 439 c 0
 190 440 137 409 129 356 c 0
 119 291 174 269 230 249 c 0
 290 226 345 190 336 120 c 0
 326 40 261 -10 180 -10 c 0
 87 -10 50 64 38 138 c 1
 65 151 l 1
EndSplineSet
EndChar

StartChar: y
Encoding: 121 121 44
Width: 416
VWidth: 0
Flags: HMW
LayerCount: 2
Fore
SplineSet
463 460 m 1
 54 -220 l 1
 19 -219 l 1
 173 35 l 1
 58 460 l 1
 93 460 l 1
 201 44 l 1
 183 46 l 1
 428 460 l 1
 463 460 l 1
EndSplineSet
EndChar

StartChar: w
Encoding: 119 119 45
Width: 618
VWidth: 0
Flags: HMW
LayerCount: 2
Fore
SplineSet
64 460 m 1
 97 460 l 1
 154 63 l 1
 360 482 l 1
 430 62 l 1
 626 460 l 1
 661 460 l 1
 418 -22 l 1
 347 397 l 1
 138 -22 l 1
 64 460 l 1
EndSplineSet
EndChar

StartChar: v
Encoding: 118 118 46
Width: 412
VWidth: 0
Flags: HMW
LayerCount: 2
Fore
SplineSet
61 460 m 1
 95 460 l 1
 197 49 l 1
 426 460 l 1
 462 460 l 1
 186 -22 l 1
 61 460 l 1
EndSplineSet
EndChar

StartChar: x
Encoding: 120 120 47
Width: 379
VWidth: 0
Flags: HMW
LayerCount: 2
Fore
SplineSet
381 459 m 1
 419 459 l 1
 228 235 l 1
 357 0 l 1
 321 0 l 1
 207 213 l 1
 27 0 l 1
 -12 0 l 1
 193 239 l 1
 70 460 l 1
 106 460 l 1
 214 262 l 1
 381 459 l 1
EndSplineSet
EndChar

StartChar: z
Encoding: 122 122 48
Width: 425
VWidth: 0
Flags: HMW
LayerCount: 2
Fore
SplineSet
390 430 m 1
 86 430 l 1
 91 460 l 1
 454 460 l 1
 54 30 l 1
 381 30 l 1
 376 0 l 1
 -10 0 l 1
 390 430 l 1
EndSplineSet
EndChar

StartChar: j
Encoding: 106 106 49
Width: 194
VWidth: 0
Flags: HMW
LayerCount: 2
Fore
SplineSet
158 681 m 0
 158 694 168 705 182 705 c 0
 196 705 206 694 206 681 c 0
 206 668 196 658 182 658 c 0
 168 658 158 668 158 681 c 0
-123 -150 m 1
 -110 -169 -91 -188 -64 -188 c 0
 0 -189 29 -124 38 -72 c 2
 129 460 l 1
 160 460 l 1
 69 -75 l 2
 57 -148 16 -221 -66 -220 c 0
 -104 -220 -129 -196 -145 -174 c 1
 -123 -150 l 1
EndSplineSet
EndChar

StartChar: P
Encoding: 80 80 50
Width: 484
VWidth: 0
Flags: HMW
LayerCount: 2
Fore
SplineSet
176 700 m 1
 210 700 l 1
 90 0 l 1
 57 0 l 1
 176 700 l 1
189 669 m 1
 195 700 l 1
 316 700 l 2
 438 700 517 616 498 495 c 0
 478 371 374 290 248 290 c 2
 125 290 l 1
 130 321 l 1
 251 321 l 1
 360 322 447 388 465 495 c 0
 482 599 419 668 313 668 c 2
 189 669 l 1
EndSplineSet
EndChar

StartChar: U
Encoding: 85 85 51
Width: 572
VWidth: 0
Flags: HMW
LayerCount: 2
Fore
SplineSet
172 700 m 1
 205 700 l 1
 123 223 l 2
 109 116 147 23 262 23 c 0
 380 23 454 111 472 223 c 2
 554 700 l 1
 588 700 l 1
 506 223 l 2
 485 94 402 -10 260 -10 c 0
 124 -10 73 100 90 223 c 2
 172 700 l 1
EndSplineSet
EndChar

StartChar: S
Encoding: 83 83 52
Width: 490
VWidth: 0
Flags: HMW
LayerCount: 2
Fore
SplineSet
75 206 m 1
 92 120 129 25 235 24 c 0
 339 23 403 89 417 177 c 0
 431 269 362 321 288 353 c 0
 211 387 126 439 141 544 c 0
 156 640 245 708 345 708 c 0
 448 708 495 631 510 553 c 1
 480 538 l 1
 467 605 429 676 340 676 c 0
 259 676 189 620 176 544 c 0
 161 456 241 410 317 377 c 0
 396 342 466 282 452 179 c 0
 436 74 354 -9 230 -8 c 0
 112 -7 62 91 44 190 c 1
 75 206 l 1
EndSplineSet
EndChar

StartChar: at
Encoding: 64 64 53
Width: 747
VWidth: 0
Flags: HMW
LayerCount: 2
Fore
SplineSet
252 320 m 0
 243 255 268 194 335 192 c 0
 418 190 492 279 505 370 c 0
 513 430 492 497 426 499 c 0
 343 502 265 418 252 320 c 0
221 319 m 0
 236 436 331 531 429 528 c 0
 510 526 532 442 522 368 c 0
 507 264 425 162 328 163 c 0
 247 164 211 236 221 319 c 0
61 320 m 0
 95 530 272 710 495 709 c 0
 687 708 779 547 753 390 c 0
 737 259 636 146 539 152 c 0
 471 156 469 220 484 284 c 1
 481 284 l 1
 559 520 l 1
 591 520 l 1
 510 289 l 2
 507 280 504 266 502 256 c 0
 497 225 499 184 545 180 c 0
 624 171 711 283 724 390 c 0
 749 533 668 679 493 681 c 0
 285 683 122 516 90 320 c 0
 65 154 143 21 322 19 c 0
 412 18 488 43 555 75 c 1
 566 50 l 1
 497 18 420 -8 320 -8 c 0
 121 -6 33 138 61 320 c 0
EndSplineSet
EndChar

StartChar: period
Encoding: 46 46 54
Width: 263
VWidth: 0
Flags: HMW
LayerCount: 2
Fore
SplineSet
83 13 m 0
 83 27 94 37 107 37 c 0
 120 37 131 27 131 13 c 0
 131 -1 120 -11 107 -11 c 0
 94 -11 83 -1 83 13 c 0
EndSplineSet
EndChar

StartChar: comma
Encoding: 44 44 55
Width: 276
VWidth: 0
Flags: HMW
LayerCount: 2
Fore
SplineSet
152 98 m 1
 182 85 l 1
 31 -163 l 1
 10 -155 l 1
 152 98 l 1
EndSplineSet
EndChar

StartChar: colon
Encoding: 58 58 56
Width: 291
VWidth: 0
Flags: HMW
LayerCount: 2
Fore
SplineSet
83 13 m 0
 83 27 94 37 107 37 c 0
 120 37 131 27 131 13 c 0
 131 -1 120 -11 107 -11 c 0
 94 -11 83 -1 83 13 c 0
144 371 m 0
 144 385 155 395 168 395 c 0
 181 395 192 385 192 371 c 0
 192 357 181 346 168 346 c 0
 155 346 144 357 144 371 c 0
EndSplineSet
EndChar

StartChar: semicolon
Encoding: 59 59 57
Width: 283
VWidth: 0
Flags: HMW
LayerCount: 2
Fore
SplineSet
173 371 m 0
 173 385 184 395 197 395 c 0
 210 395 222 385 222 371 c 0
 222 357 210 346 197 346 c 0
 184 346 173 357 173 371 c 0
152 98 m 1
 182 85 l 1
 31 -163 l 1
 10 -155 l 1
 152 98 l 1
EndSplineSet
EndChar

StartChar: quotedbl
Encoding: 34 34 58
Width: 409
VWidth: 0
Flags: HMW
LayerCount: 2
Fore
SplineSet
223 700 m 1
 262 700 l 1
 152 415 l 1
 130 414 l 1
 223 700 l 1
398 700 m 1
 437 700 l 1
 326 415 l 1
 305 414 l 1
 398 700 l 1
EndSplineSet
EndChar

StartChar: exclam
Encoding: 33 33 59
Width: 265
VWidth: 0
Flags: HMW
LayerCount: 2
Fore
SplineSet
205 700 m 1
 246 700 l 1
 151 200 l 1
 129 200 l 1
 205 700 l 1
83 13 m 0
 83 27 94 37 107 37 c 0
 120 37 132 27 132 13 c 0
 132 -1 120 -12 107 -12 c 0
 94 -12 83 -1 83 13 c 0
EndSplineSet
EndChar

StartChar: quotesingle
Encoding: 39 39 60
Width: 234
VWidth: 0
Flags: HMW
LayerCount: 2
Fore
SplineSet
223 700 m 1
 262 700 l 1
 152 415 l 1
 130 414 l 1
 223 700 l 1
EndSplineSet
EndChar

StartChar: numbersign
Encoding: 35 35 61
Width: 563
VWidth: 0
Flags: HMW
LayerCount: 2
Fore
SplineSet
122 450 m 1
 127 477 l 1
 585 477 l 1
 580 450 l 1
 461 450 l 1
 454 450 l 1
 258 450 l 1
 251 450 l 1
 122 450 l 1
46 228 m 1
 50 255 l 1
 169 255 l 1
 177 255 l 1
 373 255 l 1
 383 255 l 1
 508 255 l 1
 504 228 l 1
 46 228 l 1
544 700 m 1
 575 700 l 1
 289 0 l 1
 258 0 l 1
 356 239 l 1
 359 246 l 1
 445 459 l 1
 448 467 l 1
 544 700 l 1
340 700 m 1
 371 700 l 1
 276 468 l 1
 273 460 l 1
 185 244 l 1
 183 238 l 1
 85 0 l 1
 55 0 l 1
 340 700 l 1
EndSplineSet
EndChar

StartChar: hyphen
Encoding: 45 45 62
Width: 203
VWidth: 0
Flags: HMW
LayerCount: 2
Fore
SplineSet
20 245 m 1
 24 275 l 1
 219 275 l 1
 214 245 l 1
 20 245 l 1
EndSplineSet
EndChar

StartChar: dollar
Encoding: 36 36 63
Width: 562
VWidth: 0
Flags: HMW
LayerCount: 2
Fore
SplineSet
353 818 m 1
 382 818 l 1
 361 691 l 1
 332 691 l 1
 353 818 l 1
231 13 m 1
 259 13 l 1
 239 -112 l 1
 210 -112 l 1
 231 13 l 1
486 538 m 1
 472 605 435 675 346 676 c 0
 264 677 193 621 181 545 c 0
 167 455 249 410 325 377 c 0
 405 342 476 282 463 179 c 0
 448 74 371 -9 245 -8 c 0
 127 -7 75 91 55 190 c 1
 86 206 l 1
 104 117 143 25 249 24 c 0
 353 23 416 89 429 177 c 0
 442 269 371 321 297 353 c 0
 220 387 133 443 147 547 c 0
 160 640 251 708 348 708 c 0
 451 708 501 630 515 553 c 1
 486 538 l 1
EndSplineSet
EndChar

StartChar: bar
Encoding: 124 124 64
Width: 221
VWidth: 0
Flags: HMW
LayerCount: 2
Fore
SplineSet
201 785 m 1
 230 785 l 1
 75 -215 l 1
 46 -215 l 1
 201 785 l 1
EndSplineSet
EndChar

StartChar: zero
Encoding: 48 48 65
Width: 547
VWidth: 0
Flags: HMW
LayerCount: 2
Fore
SplineSet
115 350 m 0
 99 215 107 23 249 22 c 0
 390 21 477 197 499 350 c 0
 515 485 506 677 364 678 c 0
 223 679 137 503 115 350 c 0
81 350 m 0
 105 523 207 711 367 710 c 0
 529 709 551 506 533 350 c 0
 509 177 407 -11 247 -10 c 0
 85 -9 63 194 81 350 c 0
EndSplineSet
Substitution2: "Tabular Numbers lookup" uniFF10
EndChar

StartChar: one
Encoding: 49 49 66
Width: 408
VWidth: 0
Flags: HMW
LayerCount: 2
Fore
SplineSet
167 626 m 1
 173 661 l 1
 374 707 l 1
 253 0 l 1
 220 0 l 1
 334 665 l 1
 167 626 l 1
EndSplineSet
Substitution2: "Tabular Numbers lookup" uniFF11
EndChar

StartChar: two
Encoding: 50 50 67
Width: 514
VWidth: 0
Flags: HMW
LayerCount: 2
Fore
SplineSet
5 0 m 1
 371 340 l 2
 423 389 474 441 485 515 c 0
 498 592 455 678 351 679 c 0
 234 680 161 575 140 460 c 1
 108 460 l 1
 131 594 216 711 353 710 c 0
 477 709 532 607 518 516 c 0
 506 437 453 375 396 322 c 2
 80 32 l 1
 464 31 l 1
 459 0 l 1
 5 0 l 1
EndSplineSet
Substitution2: "Tabular Numbers lookup" uniFF12
EndChar

StartChar: four
Encoding: 52 52 68
Width: 544
VWidth: 0
Flags: HMW
LayerCount: 2
Fore
SplineSet
20 141 m 1
 488 699 l 1
 500 700 l 1
 379 0 l 1
 346 0 l 1
 373 152 l 1
 374 159 l 1
 453 616 l 1
 80 170 l 1
 388 170 l 1
 395 170 l 1
 515 170 l 1
 510 140 l 1
 20 141 l 1
EndSplineSet
Substitution2: "Tabular Numbers lookup" uniFF14
EndChar

StartChar: slash
Encoding: 47 47 69
Width: 471
VWidth: 0
Flags: HMW
LayerCount: 2
Fore
SplineSet
518 700 m 1
 552 699 l 1
 -6 -150 l 1
 -39 -149 l 1
 518 700 l 1
EndSplineSet
EndChar

StartChar: backslash
Encoding: 92 92 70
Width: 445
VWidth: 0
Flags: HMW
LayerCount: 2
Fore
SplineSet
107 700 m 1
 141 700 l 1
 404 0 l 1
 371 0 l 1
 107 700 l 1
EndSplineSet
EndChar

StartChar: eight
Encoding: 56 56 71
Width: 508
VWidth: 0
Flags: HMW
LayerCount: 2
Fore
SplineSet
145 538 m 0
 160 629 248 710 348 710 c 0
 447 710 508 625 494 537 c 0
 479 440 387 365 291 365 c 0
 196 365 131 444 145 538 c 0
176 535 m 0
 165 459 220 387 292 386 c 0
 366 385 449 455 462 535 c 0
 474 609 428 679 345 680 c 0
 261 681 189 613 176 535 c 0
64 187 m 0
 81 295 184 377 291 377 c 0
 396 377 470 292 455 186 c 0
 438 79 346 -10 227 -10 c 0
 109 -10 48 84 64 187 c 0
96 190 m 0
 81 99 132 21 230 20 c 0
 329 19 409 95 424 190 c 0
 437 277 377 354 290 355 c 0
 202 356 111 281 96 190 c 0
EndSplineSet
Substitution2: "Tabular Numbers lookup" uniFF18
EndChar

StartChar: nine
Encoding: 57 57 72
Width: 531
VWidth: 0
Flags: HMW
LayerCount: 2
Fore
SplineSet
509 477 m 0
 524 582 468 679 355 679 c 0
 241 679 152 587 136 477 c 0
 122 378 182 284 284 283 c 0
 402 282 492 374 509 477 c 0
195 0 m 1
 154 0 l 1
 433 328 l 1
 436 325 l 1
 393 283 338 256 273 257 c 0
 157 259 90 366 104 477 c 0
 121 606 224 710 357 710 c 0
 490 710 557 601 540 477 c 0
 531 419 500 363 466 322 c 2
 195 0 l 1
EndSplineSet
Substitution2: "Tabular Numbers lookup" uniFF19
EndChar

StartChar: three
Encoding: 51 51 73
Width: 531
VWidth: 0
Flags: HMW
LayerCount: 2
Fore
SplineSet
280 357 m 1
 283 380 l 1
 374 386 473 435 489 529 c 0
 501 605 455 678 364 679 c 0
 269 680 204 609 185 526 c 1
 154 527 l 1
 175 630 252 710 366 710 c 0
 475 710 536 622 522 530 c 0
 505 420 391 362 280 357 c 1
254 -10 m 0
 128 -10 63 77 73 185 c 1
 105 185 l 1
 97 93 148 22 256 22 c 0
 357 22 440 89 454 181 c 0
 470 290 369 343 278 349 c 1
 281 371 l 1
 392 366 505 305 487 178 c 0
 471 68 372 -10 254 -10 c 0
EndSplineSet
Substitution2: "Tabular Numbers lookup" uniFF13
EndChar

StartChar: five
Encoding: 53 53 74
Width: 542
VWidth: 0
Flags: HMW
LayerCount: 2
Fore
SplineSet
504 230 m 0
 486 87 376 -10 243 -10 c 0
 138 -10 79 50 50 137 c 1
 79 155 l 1
 104 77 156 22 246 22 c 0
 362 22 454 109 471 230 c 0
 485 330 429 419 327 421 c 0
 246 422 180 383 120 328 c 1
 267 700 l 1
 587 700 l 1
 583 670 l 1
 287 670 l 1
 173 384 l 1
 213 421 272 453 340 452 c 0
 457 451 519 346 504 230 c 0
EndSplineSet
Substitution2: "Tabular Numbers lookup" uniFF15
EndChar

StartChar: six
Encoding: 54 54 75
Width: 531
VWidth: 0
Flags: HMW
LayerCount: 2
Fore
SplineSet
97 223 m 0
 82 118 138 21 251 21 c 0
 365 21 454 113 470 223 c 0
 484 322 424 416 322 417 c 0
 204 418 114 326 97 223 c 0
410 699 m 1
 452 699 l 1
 173 372 l 1
 170 375 l 1
 213 417 267 444 332 443 c 0
 448 441 515 334 501 223 c 0
 484 94 382 -10 249 -10 c 0
 116 -10 48 99 65 223 c 0
 74 281 105 337 139 378 c 2
 410 699 l 1
EndSplineSet
Substitution2: "Tabular Numbers lookup" uniFF16
EndChar

StartChar: seven
Encoding: 55 55 76
Width: 502
VWidth: 0
Flags: HMW
LayerCount: 2
Fore
SplineSet
118 669 m 1
 123 700 l 1
 586 700 l 1
 129 0 l 1
 94 0 l 1
 531 668 l 1
 118 669 l 1
EndSplineSet
Substitution2: "Tabular Numbers lookup" uniFF17
EndChar

StartChar: plus
Encoding: 43 43 77
Width: 552
VWidth: 0
Flags: HMW
LayerCount: 2
Fore
SplineSet
77 239 m 1
 82 271 l 1
 503 271 l 1
 497 239 l 1
 77 239 l 1
313 486 m 1
 346 486 l 1
 266 24 l 1
 234 24 l 1
 313 486 l 1
EndSplineSet
EndChar

StartChar: equal
Encoding: 61 61 78
Width: 596
VWidth: 0
Flags: HMW
LayerCount: 2
Fore
SplineSet
65 171 m 1
 70 201 l 1
 542 201 l 1
 537 171 l 1
 65 171 l 1
88 304 m 1
 93 334 l 1
 564 334 l 1
 559 304 l 1
 88 304 l 1
EndSplineSet
EndChar

StartChar: percent
Encoding: 37 37 79
Width: 694
VWidth: 0
Flags: HMW
LayerCount: 2
Fore
SplineSet
101 557 m 0
 114 639 184 710 273 710 c 0
 362 710 408 636 396 556 c 0
 383 474 313 404 224 404 c 0
 135 404 89 477 101 557 c 0
130 557 m 0
 120 494 153 431 226 430 c 0
 299 429 356 491 367 557 c 0
 377 620 343 682 271 683 c 0
 198 684 141 623 130 557 c 0
365 144 m 0
 378 226 448 296 537 296 c 0
 626 296 671 223 659 143 c 0
 646 61 576 -10 487 -10 c 0
 398 -10 353 64 365 144 c 0
393 143 m 0
 383 80 416 18 489 17 c 0
 562 16 620 77 631 143 c 0
 641 206 607 268 535 269 c 0
 462 270 404 209 393 143 c 0
645 699 m 1
 677 699 l 1
 115 0 l 1
 84 0 l 1
 645 699 l 1
EndSplineSet
EndChar

StartChar: ampersand
Encoding: 38 38 80
Width: 655
VWidth: 0
Flags: HMW
LayerCount: 2
Fore
SplineSet
236 414 m 2
 207 458 175 505 183 570 c 0
 195 650 265 711 357 710 c 0
 445 709 491 639 480 568 c 0
 467 492 394 439 311 391 c 0
 226 343 99 300 81 178 c 0
 67 83 134 21 230 20 c 0
 397 18 510 191 616 315 c 1
 639 299 l 1
 527 169 410 -11 226 -10 c 0
 116 -9 33 64 48 176 c 0
 67 313 204 363 291 410 c 0
 367 452 436 501 448 568 c 0
 457 624 426 681 355 682 c 0
 280 683 226 632 216 570 c 0
 208 514 234 473 261 432 c 2
 562 0 l 1
 526 0 l 1
 236 414 l 2
EndSplineSet
EndChar

StartChar: question
Encoding: 63 63 81
Width: 529
VWidth: 0
Flags: HMW
LayerCount: 2
Fore
SplineSet
489 514 m 0
 505 605 451 680 348 680 c 0
 266 680 207 634 159 577 c 1
 135 594 l 1
 190 659 255 711 353 710 c 0
 471 709 537 620 520 514 c 0
 500 404 390 333 271 323 c 1
 243 170 l 1
 219 170 l 1
 240 345 l 1
 248 345 l 1
 365 350 469 415 489 514 c 0
177 13 m 0
 177 26 188 37 201 37 c 0
 215 37 225 26 225 13 c 0
 225 -1 214 -11 201 -11 c 0
 187 -11 177 -1 177 13 c 0
EndSplineSet
EndChar

StartChar: parenleft
Encoding: 40 40 82
Width: 252
VWidth: 0
Flags: HMW
LayerCount: 2
Fore
SplineSet
302 779 m 1
 328 779 l 1
 236 627 175 463 148 290 c 0
 124 126 131 -39 177 -200 c 1
 151 -200 l 1
 98 -42 90 126 114 290 c 0
 141 464 203 632 302 779 c 1
EndSplineSet
EndChar

StartChar: parenright
Encoding: 41 41 83
Width: 252
VWidth: 0
Flags: HMW
LayerCount: 2
Fore
SplineSet
7 -199 m 1
 -19 -199 l 1
 73 -47 133 117 160 290 c 0
 184 454 178 619 132 780 c 1
 157 780 l 1
 210 622 218 454 194 290 c 0
 167 116 106 -52 7 -199 c 1
EndSplineSet
EndChar

StartChar: asterisk
Encoding: 42 42 84
Width: 574
VWidth: 0
Flags: HMW
LayerCount: 2
Fore
SplineSet
524 589 m 1
 527 560 l 1
 350 510 l 1
 346 529 l 1
 524 589 l 1
440 381 m 1
 414 364 l 1
 340 513 l 1
 356 525 l 1
 440 381 l 1
231 365 m 1
 209 383 l 1
 342 525 l 1
 355 512 l 1
 231 365 l 1
184 561 m 1
 197 589 l 1
 354 528 l 1
 345 510 l 1
 184 561 l 1
366 700 m 1
 395 700 l 1
 358 519 l 1
 339 519 l 1
 366 700 l 1
EndSplineSet
EndChar

StartChar: less
Encoding: 60 60 85
Width: 621
VWidth: 0
Flags: HMW
LayerCount: 2
Fore
SplineSet
131 257 m 1
 543 66 l 1
 538 36 l 1
 78 248 l 1
 81 266 l 1
 613 479 l 1
 608 447 l 1
 131 257 l 1
EndSplineSet
EndChar

StartChar: greater
Encoding: 62 62 86
Width: 621
VWidth: 0
Flags: HMW
LayerCount: 2
Fore
SplineSet
524 258 m 1
 112 449 l 1
 117 479 l 1
 577 267 l 1
 574 249 l 1
 41 36 l 1
 47 68 l 1
 524 258 l 1
EndSplineSet
EndChar

StartChar: bracketleft
Encoding: 91 91 87
Width: 263
VWidth: 0
Flags: HMW
LayerCount: 2
Fore
SplineSet
227 749 m 1
 82 -189 l 1
 199 -189 l 1
 194 -220 l 1
 45 -220 l 1
 200 780 l 1
 348 780 l 1
 344 750 l 1
 227 749 l 1
EndSplineSet
EndChar

StartChar: bracketright
Encoding: 93 93 88
Width: 263
VWidth: 0
Flags: HMW
LayerCount: 2
Fore
SplineSet
89 -189 m 1
 234 749 l 1
 117 749 l 1
 122 780 l 1
 271 780 l 1
 116 -220 l 1
 -32 -220 l 1
 -27 -190 l 1
 89 -189 l 1
EndSplineSet
EndChar

StartChar: asciicircum
Encoding: 94 94 89
Width: 494
VWidth: 0
Flags: HMW
LayerCount: 2
Fore
SplineSet
336 670 m 1
 149 461 l 1
 113 461 l 1
 335 709 l 1
 346 709 l 1
 484 460 l 1
 451 460 l 1
 336 670 l 1
EndSplineSet
EndChar

StartChar: underscore
Encoding: 95 95 90
Width: 485
VWidth: 0
Flags: HMW
LayerCount: 2
Fore
SplineSet
-47 -116 m 1
 -43 -92 l 1
 443 -92 l 1
 439 -116 l 1
 -47 -116 l 1
EndSplineSet
EndChar

StartChar: grave
Encoding: 96 96 91
Width: 348
VWidth: 0
Flags: HMW
LayerCount: 2
Fore
SplineSet
177 683 m 1
 207 700 l 1
 343 540 l 1
 325 528 l 1
 177 683 l 1
EndSplineSet
EndChar

StartChar: braceleft
Encoding: 123 123 92
Width: 280
VWidth: 0
Flags: HMW
LayerCount: 2
Fore
SplineSet
235 646 m 2
 205 448 l 2
 193 368 164 299 100 286 c 1
 101 294 l 1
 160 277 165 207 156 132 c 2
 125 -66 l 2
 118 -126 122 -172 179 -172 c 2
 203 -172 l 1
 199 -200 l 1
 168 -200 l 2
 97 -200 88 -138 96 -60 c 2
 128 150 l 2
 135 212 126 252 94 277 c 1
 98 303 l 1
 137 324 162 365 171 430 c 2
 203 640 l 2
 214 722 247 780 318 780 c 2
 350 780 l 1
 346 752 l 1
 322 752 l 2
 265 752 243 709 235 646 c 2
EndSplineSet
EndChar

StartChar: braceright
Encoding: 125 125 93
Width: 280
VWidth: 0
Flags: HMW
LayerCount: 2
Fore
SplineSet
104 -66 m 2
 134 132 l 2
 146 212 175 281 239 294 c 1
 238 286 l 1
 179 303 174 373 183 448 c 2
 214 646 l 2
 221 706 217 752 160 752 c 2
 136 752 l 1
 140 780 l 1
 171 780 l 2
 242 780 252 718 244 640 c 2
 211 430 l 2
 204 368 214 328 246 303 c 1
 242 277 l 1
 203 256 178 215 169 150 c 2
 137 -60 l 2
 126 -142 93 -200 22 -200 c 2
 -10 -200 l 1
 -6 -172 l 1
 17 -172 l 2
 74 -172 96 -129 104 -66 c 2
EndSplineSet
EndChar

StartChar: asciitilde
Encoding: 126 126 94
Width: 558
VWidth: 0
Flags: HMW
LayerCount: 2
Fore
SplineSet
112 178 m 1
 83 181 l 1
 83 189 82 198 83 206 c 0
 88 235 101 263 121 285 c 0
 144 310 178 326 214 326 c 0
 263 326 292 292 319 259 c 0
 340 233 364 202 401 202 c 0
 450 201 480 244 487 291 c 0
 489 300 489 311 487 321 c 1
 517 318 l 1
 517 310 518 300 516 290 c 0
 512 262 502 232 483 211 c 0
 463 188 432 172 400 172 c 0
 355 172 328 205 301 236 c 0
 278 263 253 297 211 297 c 0
 154 297 119 252 111 200 c 0
 110 193 111 186 112 178 c 1
EndSplineSet
EndChar

StartChar: exclamdown
Encoding: 161 161 95
Width: 291
VWidth: 0
Flags: HMW
LayerCount: 2
Fore
SplineSet
109 -245 m 1
 69 -245 l 1
 164 254 l 1
 186 254 l 1
 109 -245 l 1
230 442 m 0
 229 430 215 418 203 418 c 0
 190 418 182 429 183 442 c 0
 184 454 198 466 210 466 c 0
 223 466 231 455 230 442 c 0
EndSplineSet
EndChar

StartChar: cent
Encoding: 162 162 96
Width: 562
VWidth: 0
Flags: HMW
LayerCount: 2
Fore
SplineSet
271 8 m 1
 293 8 l 1
 274 -112 l 1
 246 -112 l 1
 271 8 l 1
125 230 m 0
 108 122 170 21 285 20 c 0
 354 20 413 54 449 87 c 1
 443 48 l 1
 405 17 347 -10 282 -10 c 0
 149 -10 76 104 94 230 c 0
 115 362 226 470 361 470 c 0
 422 470 475 445 505 412 c 1
 499 372 l 1
 475 410 423 440 359 440 c 0
 242 440 144 344 125 230 c 0
365 578 m 1
 393 578 l 1
 367 453 l 1
 345 453 l 1
 365 578 l 1
EndSplineSet
EndChar

StartChar: sterling
Encoding: 163 163 97
Width: 562
VWidth: 0
Flags: HMW
LayerCount: 2
Fore
SplineSet
106 325 m 1
 423 325 l 1
 418 295 l 1
 101 295 l 1
 106 325 l 1
514 492 m 1
 521 568 501 676 395 677 c 0
 308 678 236 611 222 533 c 0
 206 427 302 364 288 264 c 0
 271 156 156 69 93 16 c 1
 94 32 l 1
 467 31 l 1
 461 0 l 1
 55 0 l 1
 139 89 237 158 255 259 c 0
 270 356 174 421 189 532 c 0
 204 629 291 711 398 710 c 0
 523 709 551 585 544 501 c 1
 514 492 l 1
EndSplineSet
EndChar

StartChar: currency
Encoding: 164 164 98
Width: 548
VWidth: 0
Flags: HMW
LayerCount: 2
Fore
SplineSet
110 517 m 1
 135 539 l 1
 194 465 l 1
 170 445 l 1
 110 517 l 1
54 61 m 1
 36 84 l 1
 120 155 l 1
 137 133 l 1
 54 61 l 1
485 445 m 1
 466 467 l 1
 550 539 l 1
 567 516 l 1
 485 445 l 1
410 135 m 1
 434 155 l 1
 493 83 l 1
 469 61 l 1
 410 135 l 1
74 300 m 0
 94 431 207 540 338 540 c 0
 468 540 542 425 524 300 c 0
 504 169 390 60 259 60 c 0
 129 60 56 175 74 300 c 0
105 300 m 0
 89 193 149 90 262 90 c 0
 376 90 474 187 492 300 c 0
 508 407 449 510 336 510 c 0
 222 510 123 413 105 300 c 0
EndSplineSet
EndChar

StartChar: yen
Encoding: 165 165 99
Width: 552
VWidth: 0
Flags: HMW
LayerCount: 2
Fore
SplineSet
54 276 m 1
 59 306 l 1
 524 306 l 1
 519 276 l 1
 54 276 l 1
31 144 m 1
 36 173 l 1
 502 173 l 1
 497 143 l 1
 31 144 l 1
565 699 m 1
 603 699 l 1
 301 276 l 1
 253 0 l 1
 219 0 l 1
 268 279 l 1
 117 700 l 1
 154 700 l 1
 289 311 l 1
 565 699 l 1
EndSplineSet
EndChar

StartChar: brokenbar
Encoding: 166 166 100
Width: 221
VWidth: 0
Flags: HMW
LayerCount: 2
Fore
SplineSet
189 694 m 1
 218 694 l 1
 176 456 l 1
 147 456 l 1
 189 694 l 1
141 244 m 1
 99 6 l 1
 70 6 l 1
 112 244 l 1
 141 244 l 1
EndSplineSet
EndChar

StartChar: section
Encoding: 167 167 101
Width: 388
VWidth: 0
Flags: HMW
LayerCount: 2
Fore
SplineSet
410 605 m 1
 391 651 343 679 289 679 c 0
 236 679 170 652 162 596 c 0
 153 536 235 511 281 490 c 0
 339 464 405 430 396 363 c 0
 383 275 303 244 214 241 c 1
 216 251 l 1
 286 267 355 296 364 361 c 0
 372 418 304 448 256 469 c 0
 198 494 120 522 131 596 c 0
 142 669 219 710 291 710 c 0
 359 710 417 675 435 620 c 1
 410 605 l 1
50 137 m 1
 58 72 110 21 184 20 c 0
 241 19 310 44 320 107 c 0
 331 175 264 203 210 228 c 0
 153 255 81 291 91 360 c 0
 104 436 177 475 273 479 c 1
 272 472 l 1
 198 455 132 420 122 362 c 0
 113 299 187 271 235 249 c 0
 295 221 363 185 352 109 c 0
 340 28 261 -11 180 -10 c 0
 97 -9 31 47 23 123 c 1
 50 137 l 1
EndSplineSet
EndChar

StartChar: dieresis
Encoding: 168 168 102
Width: 423
VWidth: 0
Flags: HMW
LayerCount: 2
Fore
SplineSet
373 680 m 0
 374 692 388 704 400 704 c 0
 413 704 421 693 420 680 c 0
 419 668 405 656 393 656 c 0
 380 656 372 667 373 680 c 0
179 680 m 0
 180 692 194 704 206 704 c 0
 219 704 227 693 226 680 c 0
 225 668 211 656 199 656 c 0
 186 656 178 667 179 680 c 0
EndSplineSet
EndChar

StartChar: copyright
Encoding: 169 169 103
Width: 776
VWidth: 0
Flags: HMW
LayerCount: 2
Fore
SplineSet
241 350 m 0
 227 250 279 157 385 156 c 0
 441 155 487 177 526 208 c 1
 522 182 l 1
 483 154 440 135 384 135 c 0
 267 136 205 238 220 350 c 0
 236 467 330 564 448 565 c 0
 502 565 539 548 573 518 c 1
 569 492 l 1
 538 526 499 544 447 544 c 0
 340 544 256 457 241 350 c 0
99 350 m 0
 74 172 186 12 372 12 c 0
 561 12 723 164 751 350 c 0
 776 528 664 688 478 688 c 0
 289 688 127 536 99 350 c 0
75 350 m 0
 104 550 274 710 479 710 c 0
 680 710 801 542 775 350 c 0
 746 150 576 -10 371 -10 c 0
 170 -10 49 158 75 350 c 0
EndSplineSet
EndChar

StartChar: registered
Encoding: 174 174 104
Width: 776
VWidth: 0
Flags: HMW
LayerCount: 2
Fore
SplineSet
385 345 m 1
 407 345 l 1
 512 150 l 1
 488 150 l 1
 385 345 l 1
354 570 m 1
 375 570 l 1
 309 150 l 1
 289 150 l 1
 354 570 l 1
360 551 m 1
 363 570 l 1
 434 570 l 1
 508 568 566 525 555 450 c 0
 544 374 475 334 398 332 c 1
 326 332 l 1
 329 350 l 1
 400 350 l 1
 467 352 524 385 534 451 c 0
 543 516 496 549 432 551 c 1
 360 551 l 1
99 350 m 0
 74 172 186 12 372 12 c 0
 561 12 723 164 751 350 c 0
 776 528 664 688 478 688 c 0
 289 688 127 536 99 350 c 0
75 350 m 0
 104 550 274 710 479 710 c 0
 680 710 801 542 775 350 c 0
 746 150 576 -10 371 -10 c 0
 170 -10 49 158 75 350 c 0
EndSplineSet
EndChar

StartChar: ordfeminine
Encoding: 170 170 105
Width: 230
VWidth: 0
Flags: HMW
LayerCount: 2
Fore
SplineSet
101 529 m 0
 96 494 120 471 153 470 c 0
 197 469 230 505 242 543 c 1
 246 534 l 1
 234 493 199 455 149 456 c 0
 109 457 80 486 86 530 c 0
 93 576 144 603 189 603 c 0
 221 603 240 590 254 579 c 1
 252 568 l 1
 235 580 216 592 188 592 c 0
 150 593 107 568 101 529 c 0
136 657 m 1
 129 670 l 1
 150 684 179 702 213 701 c 0
 257 699 276 669 272 628 c 1
 242 460 l 1
 227 460 l 1
 257 628 l 1
 259 660 247 685 212 687 c 0
 182 689 155 671 136 657 c 1
EndSplineSet
EndChar

StartChar: ordmasculine
Encoding: 186 186 106
Width: 269
VWidth: 0
Flags: HMW
LayerCount: 2
Fore
SplineSet
91 580 m 0
 101 646 159 700 226 700 c 0
 293 700 332 644 323 580 c 0
 313 514 254 460 187 460 c 0
 120 460 82 516 91 580 c 0
110 580 m 0
 102 527 133 480 188 479 c 0
 244 478 295 525 304 580 c 0
 312 633 280 680 225 681 c 0
 169 682 119 635 110 580 c 0
EndSplineSet
EndChar

StartChar: guillemotleft
Encoding: 171 171 107
Width: 477
VWidth: 0
Flags: HMW
LayerCount: 2
Fore
SplineSet
244 256 m 1
 390 38 l 1
 368 20 l 1
 210 257 l 1
 447 489 l 1
 464 470 l 1
 244 256 l 1
88 256 m 1
 235 38 l 1
 212 20 l 1
 55 257 l 1
 292 489 l 1
 309 470 l 1
 88 256 l 1
EndSplineSet
EndChar

StartChar: guillemotright
Encoding: 187 187 108
Width: 477
VWidth: 0
Flags: HMW
LayerCount: 2
Fore
SplineSet
267 254 m 1
 121 472 l 1
 143 490 l 1
 301 253 l 1
 64 21 l 1
 47 40 l 1
 267 254 l 1
422 254 m 1
 276 472 l 1
 298 490 l 1
 456 253 l 1
 219 21 l 1
 202 40 l 1
 422 254 l 1
EndSplineSet
EndChar

StartChar: uni00AD
Encoding: 173 173 109
Width: 203
VWidth: 0
Flags: HMW
LayerCount: 2
Fore
SplineSet
20 245 m 1
 24 275 l 1
 219 275 l 1
 214 245 l 1
 20 245 l 1
EndSplineSet
EndChar

StartChar: logicalnot
Encoding: 172 172 110
Width: 601
VWidth: 0
Flags: HMW
LayerCount: 2
Fore
SplineSet
94 345 m 1
 100 375 l 1
 576 375 l 1
 541 176 l 1
 511 176 l 1
 542 345 l 1
 94 345 l 1
EndSplineSet
EndChar

StartChar: macron
Encoding: 175 175 111
Width: 494
VWidth: 0
Flags: HMW
LayerCount: 2
Fore
SplineSet
160 645 m 1
 164 675 l 1
 504 675 l 1
 500 645 l 1
 160 645 l 1
EndSplineSet
EndChar

StartChar: degree
Encoding: 176 176 112
Width: 269
VWidth: 0
Flags: HMW
LayerCount: 2
Fore
SplineSet
94 600 m 0
 104 666 163 720 230 720 c 0
 297 720 335 664 326 600 c 0
 316 534 258 480 191 480 c 0
 124 480 85 536 94 600 c 0
113 600 m 0
 105 547 137 500 192 499 c 0
 248 498 298 545 307 600 c 0
 315 653 284 700 229 701 c 0
 173 702 122 655 113 600 c 0
EndSplineSet
EndChar

StartChar: plusminus
Encoding: 177 177 113
Width: 592
VWidth: 0
Flags: HMW
LayerCount: 2
Fore
SplineSet
46 0 m 1
 51 31 l 1
 519 31 l 1
 514 0 l 1
 46 0 l 1
103 369 m 1
 108 401 l 1
 576 401 l 1
 571 369 l 1
 103 369 l 1
359 620 m 1
 392 620 l 1
 318 150 l 1
 286 150 l 1
 359 620 l 1
EndSplineSet
EndChar

StartChar: uni00B2
Encoding: 178 178 114
Width: 325
VWidth: 0
Flags: HMW
LayerCount: 2
Fore
SplineSet
48 283 m 1
 270 486 l 2
 301 515 334 548 341 592 c 0
 349 637 326 689 264 690 c 0
 193 692 149 627 134 559 c 1
 114 559 l 1
 130 638 183 709 266 708 c 0
 341 707 370 645 361 590 c 0
 353 543 320 506 286 475 c 2
 94 301 l 1
 323 301 l 1
 320 282 l 1
 48 283 l 1
EndSplineSet
EndChar

StartChar: uni00B3
Encoding: 179 179 115
Width: 299
VWidth: 0
Flags: HMW
LayerCount: 2
Fore
SplineSet
193 495 m 1
 195 508 l 1
 250 513 310 541 321 598 c 0
 329 643 301 686 248 687 c 0
 191 688 152 646 138 597 c 1
 119 597 l 1
 134 657 180 707 249 706 c 0
 315 705 350 653 340 598 c 0
 328 532 260 499 193 495 c 1
174 274 m 0
 97 274 62 327 67 391 c 1
 87 391 l 1
 84 336 109 294 175 293 c 0
 235 292 287 334 296 389 c 0
 306 455 246 484 192 489 c 1
 194 503 l 1
 260 498 328 463 316 386 c 0
 306 321 244 274 174 274 c 0
EndSplineSet
EndChar

StartChar: acute
Encoding: 180 180 116
Width: 348
VWidth: 0
Flags: HMW
LayerCount: 2
Fore
SplineSet
348 681 m 1
 154 528 l 1
 138 541 l 1
 322 699 l 1
 348 681 l 1
EndSplineSet
EndChar

StartChar: mu
Encoding: 181 181 117
Width: 474
VWidth: 0
Flags: HMW
LayerCount: 2
Fore
SplineSet
338 0 m 1
 417 460 l 1
 449 460 l 1
 369 0 l 1
 338 0 l 1
110 159 m 2
 101 86 115 21 197 20 c 0
 286 19 351 99 370 179 c 1
 385 179 l 1
 365 81 290 -11 188 -10 c 0
 91 -10 68 67 79 156 c 1
 131 460 l 1
 162 460 l 1
 110 159 l 2
131 460 m 1
 163 460 l 1
 28 -320 l 1
 -3 -320 l 1
 131 460 l 1
EndSplineSet
EndChar

StartChar: paragraph
Encoding: 182 182 118
Width: 472
VWidth: 0
Flags: HMW
LayerCount: 2
Fore
SplineSet
367 673 m 1
 371 700 l 1
 499 700 l 1
 494 673 l 1
 367 673 l 1
480 700 m 1
 508 700 l 1
 350 -220 l 1
 322 -220 l 1
 480 700 l 1
371 700 m 1
 400 700 l 1
 242 -220 l 1
 214 -220 l 1
 371 700 l 1
299 270 m 1
 176 277 93 356 113 485 c 0
 134 619 243 700 371 700 c 1
 299 270 l 1
EndSplineSet
EndChar

StartChar: periodcentered
Encoding: 183 183 119
Width: 251
VWidth: 0
Flags: HMW
LayerCount: 2
Fore
SplineSet
113 227 m 0
 114 239 129 251 141 251 c 0
 154 251 163 239 162 226 c 0
 161 214 146 203 134 203 c 0
 121 203 112 214 113 227 c 0
EndSplineSet
EndChar

StartChar: uni00B9
Encoding: 185 185 120
Width: 456
VWidth: 0
Flags: HMW
LayerCount: 2
Fore
SplineSet
225 650 m 1
 228 671 l 1
 350 698 l 1
 276 274 l 1
 257 274 l 1
 325 673 l 1
 225 650 l 1
EndSplineSet
EndChar

StartChar: cedilla
Encoding: 184 184 121
Width: 339
VWidth: 0
Flags: HMW
LayerCount: 2
Fore
SplineSet
153 18 m 1
 180 18 l 1
 107 -68 l 1
 124 -59 138 -51 159 -52 c 0
 195 -54 224 -84 219 -127 c 0
 212 -184 153 -220 99 -220 c 0
 64 -220 43 -207 18 -182 c 1
 35 -166 l 1
 56 -185 73 -196 101 -196 c 0
 142 -196 189 -169 195 -126 c 0
 199 -93 176 -73 147 -71 c 0
 122 -69 94 -80 71 -93 c 1
 153 18 l 1
EndSplineSet
EndChar

StartChar: questiondown
Encoding: 191 191 122
Width: 529
VWidth: 0
Flags: HMW
LayerCount: 2
Fore
SplineSet
107 186 m 0
 90 95 146 20 248 20 c 0
 330 20 389 66 437 123 c 1
 461 106 l 1
 406 41 340 -11 242 -10 c 0
 124 -9 59 80 76 186 c 0
 96 296 206 367 324 377 c 1
 353 530 l 1
 376 530 l 1
 357 355 l 1
 349 355 l 1
 207 347 121 267 107 186 c 0
419 687 m 0
 418 675 403 663 391 663 c 0
 378 663 370 674 371 687 c 0
 372 699 386 711 398 711 c 0
 411 711 420 700 419 687 c 0
EndSplineSet
EndChar

StartChar: multiply
Encoding: 215 215 123
Width: 565
VWidth: 0
Flags: HMW
LayerCount: 2
Fore
SplineSet
75 39 m 1
 57 62 l 1
 281 255 l 1
 122 449 l 1
 146 471 l 1
 302 275 l 1
 525 470 l 1
 543 447 l 1
 318 254 l 1
 476 60 l 1
 452 39 l 1
 297 234 l 1
 75 39 l 1
EndSplineSet
EndChar

StartChar: Oslash
Encoding: 216 216 124
Width: 766
VWidth: 0
Flags: HMW
LayerCount: 2
Fore
SplineSet
113 350 m 0
 88 183 174 26 354 25 c 0
 536 24 681 174 709 350 c 0
 734 517 647 674 467 675 c 0
 285 676 141 526 113 350 c 0
78 350 m 0
 108 546 270 709 470 709 c 0
 668 709 770 536 743 350 c 0
 713 154 551 -9 351 -9 c 0
 153 -9 51 164 78 350 c 0
782 738 m 1
 805 721 l 1
 46 -38 l 1
 23 -21 l 1
 782 738 l 1
EndSplineSet
EndChar

StartChar: Thorn
Encoding: 222 222 125
Width: 512
VWidth: 0
Flags: HMW
LayerCount: 2
Fore
SplineSet
170 700 m 1
 203 700 l 1
 82 0 l 1
 50 0 l 1
 170 700 l 1
157 529 m 1
 163 560 l 1
 309 560 l 1
 436 558 526 474 506 350 c 0
 485 223 371 142 240 140 c 1
 90 140 l 1
 96 171 l 1
 243 171 l 1
 355 174 455 244 473 350 c 0
 491 458 414 525 306 528 c 1
 157 529 l 1
EndSplineSet
EndChar

StartChar: divide
Encoding: 247 247 126
Width: 604
VWidth: 0
Flags: HMW
LayerCount: 2
Fore
SplineSet
327 451 m 0
 328 463 342 475 354 475 c 0
 367 475 376 463 375 450 c 0
 374 438 359 426 347 426 c 0
 334 426 326 438 327 451 c 0
257 43 m 0
 258 55 273 67 285 67 c 0
 298 67 306 56 305 43 c 0
 304 31 290 19 278 19 c 0
 265 19 256 30 257 43 c 0
71 232 m 1
 76 263 l 1
 562 263 l 1
 556 232 l 1
 71 232 l 1
EndSplineSet
EndChar

StartChar: oslash
Encoding: 248 248 127
Width: 529
VWidth: 0
Flags: HMW
LayerCount: 2
Fore
SplineSet
52 230 m 0
 72 361 186 470 320 470 c 0
 453 470 527 356 509 230 c 0
 489 99 375 -10 241 -10 c 0
 108 -10 34 104 52 230 c 0
84 230 m 0
 67 121 128 20 243 20 c 0
 360 20 459 115 477 230 c 0
 494 339 433 440 318 440 c 0
 201 440 102 345 84 230 c 0
496 494 m 1
 515 484 l 1
 47 -38 l 1
 28 -28 l 1
 496 494 l 1
EndSplineSet
EndChar

StartChar: circumflex
Encoding: 710 710 128
Width: 465
VWidth: 0
Flags: HMW
LayerCount: 2
Fore
SplineSet
326 695 m 1
 168 574 l 1
 150 591 l 1
 330 730 l 1
 462 590 l 1
 441 573 l 1
 326 695 l 1
EndSplineSet
EndChar

StartChar: ogonek
Encoding: 731 731 129
Width: 245
VWidth: 0
Flags: HMW
LayerCount: 2
Fore
SplineSet
157 -160 m 1
 169 -181 l 1
 146 -201 111 -220 71 -220 c 0
 10 -220 -30 -186 -23 -133 c 0
 -13 -61 75 -19 142 14 c 1
 158 0 l 1
 99 -28 17 -69 9 -128 c 0
 5 -168 35 -190 75 -191 c 0
 108 -192 137 -176 157 -160 c 1
EndSplineSet
EndChar

StartChar: tilde
Encoding: 732 732 130
Width: 514
VWidth: 0
Flags: HMW
LayerCount: 2
Fore
SplineSet
206 642 m 1
 218 675 245 706 288 706 c 0
 337 706 355 659 402 660 c 0
 429 661 447 683 464 708 c 1
 483 692 l 1
 463 661 435 633 398 634 c 0
 351 634 330 680 288 680 c 0
 251 680 235 653 227 630 c 1
 206 642 l 1
EndSplineSet
EndChar

StartChar: ring
Encoding: 730 730 131
Width: 269
VWidth: 0
Flags: HMW
LayerCount: 2
Fore
SplineSet
142 786 m 0
 150 841 205 884 258 884 c 0
 311 884 349 838 341 784 c 0
 333 729 278 686 225 686 c 0
 172 686 134 732 142 786 c 0
164 785 m 0
 158 744 186 708 227 707 c 0
 268 706 313 743 319 785 c 0
 325 826 297 862 256 863 c 0
 215 864 170 827 164 785 c 0
EndSplineSet
EndChar

StartChar: dotaccent
Encoding: 729 729 132
Width: 251
VWidth: 0
Flags: HMW
LayerCount: 2
Fore
SplineSet
205 763 m 0
 206 775 221 787 233 787 c 0
 246 787 254 776 253 763 c 0
 252 751 238 739 226 739 c 0
 213 739 204 750 205 763 c 0
EndSplineSet
EndChar

StartChar: uni2010
Encoding: 8208 8208 133
Width: 203
VWidth: 0
Flags: HMW
LayerCount: 2
Fore
SplineSet
20 245 m 1
 24 275 l 1
 219 275 l 1
 214 245 l 1
 20 245 l 1
EndSplineSet
EndChar

StartChar: endash
Encoding: 8211 8211 134
Width: 718
VWidth: 0
Flags: HMW
LayerCount: 2
Fore
SplineSet
83 245 m 1
 88 275 l 1
 670 275 l 1
 666 245 l 1
 83 245 l 1
EndSplineSet
EndChar

StartChar: figuredash
Encoding: 8210 8210 135
Width: 572
VWidth: 0
Flags: HMW
LayerCount: 2
Fore
SplineSet
83 245 m 1
 88 275 l 1
 525 275 l 1
 520 245 l 1
 83 245 l 1
EndSplineSet
EndChar

StartChar: emdash
Encoding: 8212 8212 136
Width: 863
VWidth: 0
Flags: HMW
LayerCount: 2
Fore
SplineSet
83 245 m 1
 88 275 l 1
 816 275 l 1
 811 245 l 1
 83 245 l 1
EndSplineSet
EndChar

StartChar: minus
Encoding: 8722 8722 137
Width: 572
VWidth: 0
Flags: HMW
LayerCount: 2
Fore
SplineSet
83 245 m 1
 88 275 l 1
 525 275 l 1
 520 245 l 1
 83 245 l 1
EndSplineSet
EndChar

StartChar: quoteright
Encoding: 8217 8217 138
Width: 245
VWidth: 0
Flags: HMW
LayerCount: 2
Fore
SplineSet
242 699 m 1
 279 699 l 1
 145 471 l 1
 121 471 l 1
 242 699 l 1
EndSplineSet
EndChar

StartChar: quoteleft
Encoding: 8216 8216 139
Width: 232
VWidth: 0
Flags: HMW
LayerCount: 2
Fore
SplineSet
151 471 m 1
 112 471 l 1
 247 699 l 1
 271 699 l 1
 151 471 l 1
EndSplineSet
EndChar

StartChar: quotesinglbase
Encoding: 8218 8218 140
Width: 245
VWidth: 0
Flags: HMW
LayerCount: 2
Fore
SplineSet
125 79 m 1
 163 79 l 1
 28 -149 l 1
 5 -149 l 1
 125 79 l 1
EndSplineSet
EndChar

StartChar: quotedblleft
Encoding: 8220 8220 141
Width: 399
VWidth: 0
Flags: HMW
LayerCount: 2
Fore
SplineSet
164 471 m 1
 126 471 l 1
 261 699 l 1
 285 699 l 1
 164 471 l 1
318 471 m 1
 280 471 l 1
 414 699 l 1
 438 699 l 1
 318 471 l 1
EndSplineSet
EndChar

StartChar: quotedblright
Encoding: 8221 8221 142
Width: 399
VWidth: 0
Flags: HMW
LayerCount: 2
Fore
SplineSet
228 699 m 1
 266 699 l 1
 131 471 l 1
 107 471 l 1
 228 699 l 1
382 699 m 1
 420 699 l 1
 285 471 l 1
 261 471 l 1
 382 699 l 1
EndSplineSet
EndChar

StartChar: perthousand
Encoding: 8240 8240 143
Width: 1056
VWidth: 0
Flags: HMW
LayerCount: 2
Fore
SplineSet
727 144 m 0
 740 226 810 296 899 296 c 0
 988 296 1033 223 1021 143 c 0
 1008 61 938 -10 849 -10 c 0
 760 -10 715 64 727 144 c 0
755 143 m 0
 745 80 778 18 851 17 c 0
 924 16 982 77 993 143 c 0
 1003 206 969 268 897 269 c 0
 824 270 766 209 755 143 c 0
101 557 m 0
 114 639 184 710 273 710 c 0
 362 710 408 636 396 556 c 0
 383 474 313 404 224 404 c 0
 135 404 89 477 101 557 c 0
130 557 m 0
 120 494 153 431 226 430 c 0
 299 429 356 491 367 557 c 0
 377 620 343 682 271 683 c 0
 198 684 141 623 130 557 c 0
365 144 m 0
 378 226 448 296 537 296 c 0
 626 296 671 223 659 143 c 0
 646 61 576 -10 487 -10 c 0
 398 -10 353 64 365 144 c 0
393 143 m 0
 383 80 416 18 489 17 c 0
 562 16 620 77 631 143 c 0
 641 206 607 268 535 269 c 0
 462 270 404 209 393 143 c 0
645 699 m 1
 677 699 l 1
 115 0 l 1
 84 0 l 1
 645 699 l 1
EndSplineSet
EndChar

StartChar: guilsinglleft
Encoding: 8249 8249 144
Width: 322
VWidth: 0
Flags: HMW
LayerCount: 2
Fore
SplineSet
88 256 m 1
 235 38 l 1
 212 20 l 1
 55 257 l 1
 292 489 l 1
 309 470 l 1
 88 256 l 1
EndSplineSet
EndChar

StartChar: guilsinglright
Encoding: 8250 8250 145
Width: 339
VWidth: 0
Flags: HMW
LayerCount: 2
Fore
SplineSet
284 254 m 1
 138 472 l 1
 160 490 l 1
 318 253 l 1
 81 21 l 1
 64 40 l 1
 284 254 l 1
EndSplineSet
EndChar

StartChar: uni2031
Encoding: 8241 8241 146
Width: 1418
VWidth: 0
Flags: HMW
LayerCount: 2
Fore
SplineSet
1089 144 m 0
 1102 226 1172 296 1261 296 c 0
 1350 296 1395 223 1383 143 c 0
 1370 61 1300 -10 1211 -10 c 0
 1122 -10 1077 64 1089 144 c 0
1117 143 m 0
 1107 80 1140 18 1213 17 c 0
 1286 16 1344 77 1355 143 c 0
 1365 206 1330 268 1258 269 c 0
 1185 270 1128 209 1117 143 c 0
727 144 m 0
 740 226 810 296 899 296 c 0
 988 296 1033 223 1021 143 c 0
 1008 61 938 -10 849 -10 c 0
 760 -10 715 64 727 144 c 0
755 143 m 0
 745 80 778 18 851 17 c 0
 924 16 982 77 993 143 c 0
 1003 206 969 268 897 269 c 0
 824 270 766 209 755 143 c 0
101 557 m 0
 114 639 184 710 273 710 c 0
 362 710 408 636 396 556 c 0
 383 474 313 404 224 404 c 0
 135 404 89 477 101 557 c 0
130 557 m 0
 120 494 153 431 226 430 c 0
 299 429 356 491 367 557 c 0
 377 620 343 682 271 683 c 0
 198 684 141 623 130 557 c 0
365 144 m 0
 378 226 448 296 537 296 c 0
 626 296 671 223 659 143 c 0
 646 61 576 -10 487 -10 c 0
 398 -10 353 64 365 144 c 0
393 143 m 0
 383 80 416 18 489 17 c 0
 562 16 620 77 631 143 c 0
 641 206 607 268 535 269 c 0
 462 270 404 209 393 143 c 0
645 699 m 1
 677 699 l 1
 115 0 l 1
 84 0 l 1
 645 699 l 1
EndSplineSet
EndChar

StartChar: uni203D
Encoding: 8253 8253 147
Width: 540
VWidth: 0
Flags: HMW
LayerCount: 2
Fore
SplineSet
489 514 m 0
 505 605 451 680 348 680 c 0
 266 680 207 634 159 577 c 1
 135 594 l 1
 190 659 255 711 353 710 c 0
 471 709 537 620 520 514 c 0
 501 405 397 330 285 323 c 1
 268 346 l 1
 376 352 470 418 489 514 c 0
287 510 m 1
 326 510 l 1
 259 170 l 1
 236 170 l 1
 287 510 l 1
197 13 m 0
 198 25 213 37 225 37 c 0
 238 37 246 26 245 13 c 0
 244 1 229 -11 217 -11 c 0
 204 -11 196 0 197 13 c 0
EndSplineSet
EndChar

StartChar: Euro
Encoding: 8364 8364 148
Width: 643
VWidth: 0
Flags: HMW
LayerCount: 2
Fore
SplineSet
102 434 m 1
 105 455 l 1
 592 455 l 1
 588 434 l 1
 102 434 l 1
81 314 m 1
 85 335 l 1
 546 335 l 1
 542 314 l 1
 81 314 l 1
187 350 m 0
 166 194 212 23 375 22 c 0
 432 22 484 43 530 72 c 1
 524 31 l 1
 477 7 426 -10 372 -10 c 0
 188 -9 131 176 154 350 c 0
 182 538 309 710 493 710 c 0
 544 710 590 694 633 669 c 1
 626 628 l 1
 587 660 542 679 489 679 c 0
 323 679 212 521 187 350 c 0
EndSplineSet
EndChar

StartChar: fraction
Encoding: 8260 8260 149
Width: 684
VWidth: 0
Flags: HMW
LayerCount: 2
Fore
SplineSet
690 699 m 1
 719 699 l 1
 59 0 l 1
 30 0 l 1
 690 699 l 1
EndSplineSet
EndChar

StartChar: onequarter
Encoding: 188 188 150
Width: 731
VWidth: 0
Flags: HMW
LayerCount: 2
Fore
SplineSet
727 699 m 1
 756 699 l 1
 96 0 l 1
 68 0 l 1
 727 699 l 1
107 650 m 1
 110 671 l 1
 232 698 l 1
 158 274 l 1
 138 274 l 1
 206 673 l 1
 107 650 l 1
376 84 m 1
 394 102 l 1
 596 102 l 1
 601 102 l 1
 673 102 l 1
 670 84 l 1
 376 84 l 1
396 85 m 1
 375 85 l 1
 657 419 l 1
 663 420 l 1
 592 0 l 1
 572 0 l 1
 588 91 l 1
 588 95 l 1
 635 369 l 1
 396 85 l 1
EndSplineSet
EndChar

StartChar: onehalf
Encoding: 189 189 151
Width: 794
VWidth: 0
Flags: HMW
LayerCount: 2
Fore
SplineSet
727 699 m 1
 756 699 l 1
 96 0 l 1
 68 0 l 1
 727 699 l 1
107 650 m 1
 110 671 l 1
 232 698 l 1
 158 274 l 1
 138 274 l 1
 206 673 l 1
 107 650 l 1
454 3 m 1
 676 206 l 2
 707 235 739 267 746 311 c 0
 754 356 732 408 670 410 c 0
 599 412 554 347 539 279 c 1
 519 279 l 1
 535 358 587 429 670 428 c 0
 745 427 775 364 766 309 c 0
 758 262 725 226 691 195 c 2
 499 21 l 1
 728 21 l 1
 725 2 l 1
 454 3 l 1
EndSplineSet
EndChar

StartChar: threequarters
Encoding: 190 190 152
Width: 795
VWidth: 0
Flags: HMW
LayerCount: 2
Fore
SplineSet
792 699 m 1
 821 699 l 1
 161 0 l 1
 132 0 l 1
 792 699 l 1
198 495 m 1
 200 508 l 1
 255 513 315 541 326 598 c 0
 334 643 306 686 253 687 c 0
 196 688 157 646 143 597 c 1
 124 597 l 1
 139 657 185 707 254 706 c 0
 320 705 355 653 345 598 c 0
 333 532 265 499 198 495 c 1
179 274 m 0
 102 274 67 327 72 391 c 1
 91 391 l 1
 88 336 114 294 180 293 c 0
 240 292 292 334 301 389 c 0
 311 455 251 484 197 489 c 1
 199 503 l 1
 265 498 333 463 321 386 c 0
 311 321 249 274 179 274 c 0
441 84 m 1
 459 102 l 1
 661 102 l 1
 666 102 l 1
 738 102 l 1
 735 84 l 1
 441 84 l 1
462 85 m 1
 440 85 l 1
 722 419 l 1
 728 420 l 1
 657 0 l 1
 637 0 l 1
 653 91 l 1
 653 95 l 1
 700 369 l 1
 462 85 l 1
EndSplineSet
EndChar

StartChar: uni2150
Encoding: 8528 8528 153
Width: 817
VWidth: 0
Flags: HMW
LayerCount: 2
Fore
SplineSet
679 699 m 1
 707 699 l 1
 47 0 l 1
 19 0 l 1
 679 699 l 1
107 650 m 1
 110 671 l 1
 232 698 l 1
 158 274 l 1
 138 274 l 1
 206 673 l 1
 107 650 l 1
547 401 m 1
 550 420 l 1
 829 420 l 1
 547 0 l 1
 526 0 l 1
 795 401 l 1
 547 401 l 1
EndSplineSet
EndChar

StartChar: uni2151
Encoding: 8529 8529 154
Width: 760
VWidth: 0
Flags: HMW
LayerCount: 2
Fore
SplineSet
679 699 m 1
 707 699 l 1
 47 0 l 1
 19 0 l 1
 679 699 l 1
107 650 m 1
 110 671 l 1
 232 698 l 1
 158 274 l 1
 138 274 l 1
 206 673 l 1
 107 650 l 1
723 288 m 0
 733 351 700 408 632 409 c 0
 564 410 508 354 498 288 c 0
 489 229 524 174 585 172 c 0
 656 170 712 227 723 288 c 0
529 3 m 1
 504 4 l 1
 676 198 l 1
 677 197 l 1
 651 173 618 155 579 156 c 0
 510 157 471 223 480 289 c 0
 491 366 554 429 633 428 c 0
 712 427 753 362 742 288 c 0
 736 254 716 220 695 196 c 1
 529 3 l 1
EndSplineSet
EndChar

StartChar: uni2152
Encoding: 8530 8530 155
Width: 1048
VWidth: 0
Flags: HMW
LayerCount: 2
Fore
SplineSet
679 699 m 1
 707 699 l 1
 47 0 l 1
 19 0 l 1
 679 699 l 1
107 650 m 1
 110 671 l 1
 232 698 l 1
 158 274 l 1
 138 274 l 1
 206 673 l 1
 107 650 l 1
474 377 m 1
 477 398 l 1
 598 425 l 1
 525 2 l 1
 505 2 l 1
 574 400 l 1
 474 377 l 1
748 210 m 0
 738 129 744 14 829 13 c 0
 913 12 966 119 979 210 c 0
 989 291 984 406 899 407 c 0
 815 408 761 301 748 210 c 0
728 210 m 0
 742 313 803 426 899 426 c 0
 996 425 1010 304 999 210 c 0
 985 107 924 -6 828 -6 c 0
 731 -5 717 116 728 210 c 0
EndSplineSet
EndChar

StartChar: onethird
Encoding: 8531 8531 156
Width: 732
VWidth: 0
Flags: HMW
LayerCount: 2
Fore
SplineSet
679 699 m 1
 707 699 l 1
 47 0 l 1
 19 0 l 1
 679 699 l 1
107 650 m 1
 110 671 l 1
 232 698 l 1
 158 274 l 1
 138 274 l 1
 206 673 l 1
 107 650 l 1
570 215 m 1
 573 228 l 1
 628 233 687 261 698 318 c 0
 706 363 678 406 625 407 c 0
 568 408 529 366 515 317 c 1
 496 317 l 1
 511 377 557 427 626 426 c 0
 692 425 728 373 718 318 c 0
 706 252 637 219 570 215 c 1
551 -6 m 0
 474 -6 439 47 444 111 c 1
 464 111 l 1
 461 56 486 14 552 13 c 0
 612 12 665 54 674 109 c 0
 684 175 623 204 569 209 c 1
 572 223 l 1
 638 218 705 183 693 106 c 0
 683 41 621 -6 551 -6 c 0
EndSplineSet
EndChar

StartChar: twothirds
Encoding: 8532 8532 157
Width: 855
VWidth: 0
Flags: HMW
LayerCount: 2
Fore
SplineSet
802 699 m 1
 830 699 l 1
 170 0 l 1
 142 0 l 1
 802 699 l 1
52 283 m 1
 274 486 l 2
 305 515 338 548 345 592 c 0
 353 637 330 689 268 690 c 0
 197 692 152 627 137 559 c 1
 118 559 l 1
 134 638 186 709 269 708 c 0
 344 707 373 645 364 590 c 0
 356 543 323 506 289 475 c 2
 98 301 l 1
 327 301 l 1
 323 282 l 1
 52 283 l 1
693 215 m 1
 696 228 l 1
 751 233 810 261 821 318 c 0
 829 363 802 406 749 407 c 0
 692 408 653 366 639 317 c 1
 619 317 l 1
 634 377 681 427 750 426 c 0
 816 425 851 373 841 318 c 0
 829 252 760 219 693 215 c 1
675 -6 m 0
 598 -6 563 47 568 111 c 1
 587 111 l 1
 584 56 610 14 676 13 c 0
 736 12 788 54 797 109 c 0
 807 175 747 204 693 209 c 1
 695 223 l 1
 761 218 829 183 817 106 c 0
 807 41 745 -6 675 -6 c 0
EndSplineSet
EndChar

StartChar: uni2155
Encoding: 8533 8533 158
Width: 722
VWidth: 0
Flags: HMW
LayerCount: 2
Fore
SplineSet
679 699 m 1
 707 699 l 1
 47 0 l 1
 19 0 l 1
 679 699 l 1
107 650 m 1
 110 671 l 1
 232 698 l 1
 158 274 l 1
 138 274 l 1
 206 673 l 1
 107 650 l 1
669 136 m 0
 657 51 589 -8 510 -8 c 0
 447 -8 414 28 395 80 c 1
 413 91 l 1
 429 45 457 11 511 11 c 0
 581 11 638 64 649 136 c 0
 658 196 626 249 565 251 c 0
 516 253 476 227 439 195 c 1
 459 220 l 1
 485 248 527 270 572 269 c 0
 642 268 679 205 669 136 c 0
544 400 m 1
 470 224 l 1
 437 193 l 1
 531 418 l 1
 724 418 l 1
 721 400 l 1
 544 400 l 1
EndSplineSet
EndChar

StartChar: uni2156
Encoding: 8534 8534 159
Width: 845
VWidth: 0
Flags: HMW
LayerCount: 2
Fore
SplineSet
802 699 m 1
 830 699 l 1
 170 0 l 1
 142 0 l 1
 802 699 l 1
52 283 m 1
 274 486 l 2
 305 515 338 548 345 592 c 0
 353 637 330 689 268 690 c 0
 197 692 152 627 137 559 c 1
 118 559 l 1
 134 638 186 709 269 708 c 0
 344 707 373 645 364 590 c 0
 356 543 323 506 289 475 c 2
 98 301 l 1
 327 301 l 1
 323 282 l 1
 52 283 l 1
792 136 m 0
 780 51 712 -8 633 -8 c 0
 570 -8 537 28 518 80 c 1
 536 91 l 1
 552 45 580 11 634 11 c 0
 704 11 761 64 772 136 c 0
 781 196 749 249 688 251 c 0
 639 253 600 227 563 195 c 1
 582 220 l 1
 608 248 651 270 696 269 c 0
 766 268 802 205 792 136 c 0
667 400 m 1
 593 224 l 1
 560 193 l 1
 654 418 l 1
 847 418 l 1
 844 400 l 1
 667 400 l 1
EndSplineSet
EndChar

StartChar: uni2157
Encoding: 8535 8535 160
Width: 806
VWidth: 0
Flags: HMW
LayerCount: 2
Fore
SplineSet
763 699 m 1
 792 699 l 1
 132 0 l 1
 103 0 l 1
 763 699 l 1
198 495 m 1
 200 508 l 1
 255 513 315 541 326 598 c 0
 334 643 306 686 253 687 c 0
 196 688 157 646 143 597 c 1
 124 597 l 1
 139 657 185 707 254 706 c 0
 320 705 355 653 345 598 c 0
 333 532 265 499 198 495 c 1
179 274 m 0
 102 274 67 327 72 391 c 1
 91 391 l 1
 88 336 114 294 180 293 c 0
 240 292 292 334 301 389 c 0
 311 455 251 484 197 489 c 1
 199 503 l 1
 265 498 333 463 321 386 c 0
 311 321 249 274 179 274 c 0
753 136 m 0
 741 51 673 -8 594 -8 c 0
 531 -8 499 28 480 80 c 1
 497 91 l 1
 513 45 541 11 595 11 c 0
 665 11 722 64 733 136 c 0
 742 196 711 249 650 251 c 0
 601 253 561 227 524 195 c 1
 543 220 l 1
 569 248 612 270 657 269 c 0
 727 268 763 205 753 136 c 0
628 400 m 1
 554 224 l 1
 522 193 l 1
 616 418 l 1
 808 418 l 1
 805 400 l 1
 628 400 l 1
EndSplineSet
EndChar

StartChar: uni2158
Encoding: 8536 8536 161
Width: 840
VWidth: 0
Flags: HMW
LayerCount: 2
Fore
SplineSet
797 699 m 1
 826 699 l 1
 166 0 l 1
 137 0 l 1
 797 699 l 1
67 364 m 1
 86 382 l 1
 288 382 l 1
 293 382 l 1
 365 382 l 1
 362 364 l 1
 67 364 l 1
89 365 m 1
 67 365 l 1
 349 699 l 1
 356 700 l 1
 284 280 l 1
 264 280 l 1
 280 371 l 1
 280 375 l 1
 327 649 l 1
 89 365 l 1
787 136 m 0
 775 51 707 -8 628 -8 c 0
 565 -8 533 28 514 80 c 1
 531 91 l 1
 547 45 575 11 629 11 c 0
 699 11 756 64 767 136 c 0
 776 196 745 249 684 251 c 0
 635 253 595 227 558 195 c 1
 577 220 l 1
 603 248 646 270 691 269 c 0
 761 268 797 205 787 136 c 0
662 400 m 1
 588 224 l 1
 556 193 l 1
 650 418 l 1
 842 418 l 1
 839 400 l 1
 662 400 l 1
EndSplineSet
EndChar

StartChar: uni2159
Encoding: 8537 8537 162
Width: 712
VWidth: 0
Flags: HMW
LayerCount: 2
Fore
SplineSet
679 699 m 1
 707 699 l 1
 47 0 l 1
 19 0 l 1
 679 699 l 1
107 650 m 1
 110 671 l 1
 232 698 l 1
 158 274 l 1
 138 274 l 1
 206 673 l 1
 107 650 l 1
428 132 m 0
 418 69 450 12 518 11 c 0
 586 10 642 66 652 132 c 0
 661 191 627 246 566 248 c 0
 495 250 439 193 428 132 c 0
621 417 m 1
 647 416 l 1
 475 222 l 1
 474 223 l 1
 500 247 533 265 572 264 c 0
 641 263 680 197 671 131 c 0
 660 54 597 -9 518 -8 c 0
 439 -7 398 58 409 132 c 0
 415 166 435 200 456 224 c 1
 621 417 l 1
EndSplineSet
EndChar

StartChar: uni215A
Encoding: 8538 8538 163
Width: 830
VWidth: 0
Flags: HMW
LayerCount: 2
Fore
SplineSet
797 699 m 1
 826 699 l 1
 166 0 l 1
 137 0 l 1
 797 699 l 1
340 416 m 0
 328 331 260 272 181 272 c 0
 118 272 85 308 66 360 c 1
 84 371 l 1
 100 325 128 291 182 291 c 0
 252 291 309 344 320 416 c 0
 329 476 297 529 236 531 c 0
 187 533 148 507 111 475 c 1
 130 500 l 1
 156 528 199 550 244 549 c 0
 314 548 350 485 340 416 c 0
215 680 m 1
 141 504 l 1
 108 473 l 1
 202 698 l 1
 395 698 l 1
 392 680 l 1
 215 680 l 1
546 132 m 0
 536 69 568 12 636 11 c 0
 704 10 761 66 771 132 c 0
 780 191 745 246 684 248 c 0
 613 250 557 193 546 132 c 0
740 417 m 1
 765 416 l 1
 593 222 l 1
 592 223 l 1
 618 247 652 265 691 264 c 0
 760 263 799 197 790 131 c 0
 779 54 715 -9 636 -8 c 0
 557 -7 516 58 527 132 c 0
 533 166 553 200 574 224 c 1
 740 417 l 1
EndSplineSet
EndChar

StartChar: oneeighth
Encoding: 8539 8539 164
Width: 737
VWidth: 0
Flags: HMW
LayerCount: 2
Fore
SplineSet
679 699 m 1
 707 699 l 1
 47 0 l 1
 19 0 l 1
 679 699 l 1
107 650 m 1
 110 671 l 1
 232 698 l 1
 158 274 l 1
 138 274 l 1
 206 673 l 1
 107 650 l 1
498 324 m 0
 507 378 560 426 619 426 c 0
 678 426 716 376 708 323 c 0
 700 266 643 218 586 219 c 0
 530 219 490 268 498 324 c 0
516 322 m 0
 509 276 543 233 586 232 c 0
 629 231 681 274 688 321 c 0
 695 366 667 407 618 408 c 0
 569 409 523 368 516 322 c 0
449 112 m 0
 459 176 522 226 585 226 c 0
 648 226 693 174 684 111 c 0
 675 47 617 -7 547 -6 c 0
 477 -5 439 50 449 112 c 0
468 114 m 0
 459 60 490 13 548 12 c 0
 607 11 658 57 666 114 c 0
 673 166 637 212 585 213 c 0
 532 214 477 168 468 114 c 0
EndSplineSet
EndChar

StartChar: threeeighths
Encoding: 8540 8540 165
Width: 821
VWidth: 0
Flags: HMW
LayerCount: 2
Fore
SplineSet
763 699 m 1
 792 699 l 1
 132 0 l 1
 103 0 l 1
 763 699 l 1
198 495 m 1
 200 508 l 1
 255 513 315 541 326 598 c 0
 334 643 306 686 253 687 c 0
 196 688 157 646 143 597 c 1
 124 597 l 1
 139 657 185 707 254 706 c 0
 320 705 355 653 345 598 c 0
 333 532 265 499 198 495 c 1
179 274 m 0
 102 274 67 327 72 391 c 1
 91 391 l 1
 88 336 114 294 180 293 c 0
 240 292 292 334 301 389 c 0
 311 455 251 484 197 489 c 1
 199 503 l 1
 265 498 333 463 321 386 c 0
 311 321 249 274 179 274 c 0
582 324 m 0
 591 378 645 426 704 426 c 0
 763 426 800 376 792 323 c 0
 784 266 727 218 670 219 c 0
 614 219 574 268 582 324 c 0
601 322 m 0
 594 276 627 233 670 232 c 0
 713 231 766 274 773 321 c 0
 780 366 752 407 703 408 c 0
 654 409 608 368 601 322 c 0
533 112 m 0
 543 176 607 226 670 226 c 0
 733 226 778 174 769 111 c 0
 760 47 702 -7 632 -6 c 0
 562 -5 523 50 533 112 c 0
553 114 m 0
 544 60 575 13 633 12 c 0
 692 11 742 57 750 114 c 0
 757 166 722 212 670 213 c 0
 617 214 562 168 553 114 c 0
EndSplineSet
EndChar

StartChar: fiveeighths
Encoding: 8541 8541 166
Width: 855
VWidth: 0
Flags: HMW
LayerCount: 2
Fore
SplineSet
797 699 m 1
 826 699 l 1
 166 0 l 1
 137 0 l 1
 797 699 l 1
340 416 m 0
 328 331 260 272 181 272 c 0
 118 272 85 308 66 360 c 1
 84 371 l 1
 100 325 128 291 182 291 c 0
 252 291 309 344 320 416 c 0
 329 476 297 529 236 531 c 0
 187 533 148 507 111 475 c 1
 130 500 l 1
 156 528 199 550 244 549 c 0
 314 548 350 485 340 416 c 0
215 680 m 1
 141 504 l 1
 108 473 l 1
 202 698 l 1
 395 698 l 1
 392 680 l 1
 215 680 l 1
616 324 m 0
 625 378 679 426 738 426 c 0
 797 426 834 376 826 323 c 0
 818 266 761 218 704 219 c 0
 648 219 608 268 616 324 c 0
635 322 m 0
 628 276 661 233 704 232 c 0
 747 231 800 274 807 321 c 0
 814 366 786 407 737 408 c 0
 688 409 642 368 635 322 c 0
567 112 m 0
 577 176 640 226 703 226 c 0
 766 226 812 174 803 111 c 0
 794 47 736 -7 666 -6 c 0
 596 -5 557 50 567 112 c 0
587 114 m 0
 578 60 609 13 667 12 c 0
 726 11 776 57 784 114 c 0
 791 166 755 212 703 213 c 0
 650 214 596 168 587 114 c 0
EndSplineSet
EndChar

StartChar: seveneighths
Encoding: 8542 8542 167
Width: 749
VWidth: 0
Flags: HMW
LayerCount: 2
Fore
SplineSet
690 699 m 1
 719 699 l 1
 59 0 l 1
 30 0 l 1
 690 699 l 1
122 681 m 1
 124 700 l 1
 403 700 l 1
 121 281 l 1
 100 281 l 1
 369 681 l 1
 122 681 l 1
509 324 m 0
 518 378 572 426 631 426 c 0
 690 426 727 376 719 323 c 0
 711 266 654 218 597 219 c 0
 541 219 501 268 509 324 c 0
528 322 m 0
 521 276 555 233 598 232 c 0
 641 231 693 274 700 321 c 0
 707 366 679 407 630 408 c 0
 581 409 535 368 528 322 c 0
461 112 m 0
 471 176 534 226 597 226 c 0
 660 226 705 174 696 111 c 0
 687 47 629 -7 559 -6 c 0
 489 -5 451 50 461 112 c 0
480 114 m 0
 471 60 502 13 560 12 c 0
 619 11 669 57 677 114 c 0
 684 166 649 212 597 213 c 0
 544 214 489 168 480 114 c 0
EndSplineSet
EndChar

StartChar: uni2074
Encoding: 8308 8308 168
Width: 364
VWidth: 0
Flags: HMW
LayerCount: 2
Fore
SplineSet
67 364 m 1
 86 382 l 1
 288 382 l 1
 293 382 l 1
 365 382 l 1
 362 364 l 1
 67 364 l 1
89 365 m 1
 67 365 l 1
 349 699 l 1
 356 700 l 1
 284 280 l 1
 264 280 l 1
 280 371 l 1
 280 375 l 1
 327 649 l 1
 89 365 l 1
EndSplineSet
EndChar

StartChar: uni2075
Encoding: 8309 8309 169
Width: 334
VWidth: 0
Flags: HMW
LayerCount: 2
Fore
SplineSet
340 416 m 0
 328 331 260 272 181 272 c 0
 118 272 85 308 66 360 c 1
 84 371 l 1
 100 325 128 291 182 291 c 0
 252 291 309 344 320 416 c 0
 329 476 297 529 236 531 c 0
 187 533 148 507 111 475 c 1
 130 500 l 1
 156 528 199 550 244 549 c 0
 314 548 350 485 340 416 c 0
215 680 m 1
 141 504 l 1
 108 473 l 1
 202 698 l 1
 395 698 l 1
 392 680 l 1
 215 680 l 1
EndSplineSet
EndChar

StartChar: uni2076
Encoding: 8310 8310 170
Width: 325
VWidth: 0
Flags: HMW
LayerCount: 2
Fore
SplineSet
99 412 m 0
 89 349 121 292 189 291 c 0
 257 290 314 346 324 412 c 0
 333 471 298 526 237 528 c 0
 166 530 110 473 99 412 c 0
293 697 m 1
 318 696 l 1
 146 502 l 1
 145 503 l 1
 171 527 204 545 243 544 c 0
 312 543 351 477 342 411 c 0
 331 334 268 271 189 272 c 0
 110 273 69 338 80 412 c 0
 86 446 106 480 127 504 c 1
 293 697 l 1
EndSplineSet
EndChar

StartChar: uni2077
Encoding: 8311 8311 171
Width: 341
VWidth: 0
Flags: HMW
LayerCount: 2
Fore
SplineSet
122 681 m 1
 124 700 l 1
 403 700 l 1
 121 281 l 1
 100 281 l 1
 369 681 l 1
 122 681 l 1
EndSplineSet
EndChar

StartChar: uni2078
Encoding: 8312 8312 172
Width: 298
VWidth: 0
Flags: HMW
LayerCount: 2
Fore
SplineSet
120 604 m 0
 129 658 183 706 242 706 c 0
 301 706 338 656 330 603 c 0
 322 546 265 498 208 499 c 0
 152 499 112 548 120 604 c 0
139 602 m 0
 132 556 166 513 209 512 c 0
 252 511 304 554 311 601 c 0
 318 646 290 687 241 688 c 0
 192 689 146 648 139 602 c 0
72 392 m 0
 82 456 145 506 208 506 c 0
 271 506 316 454 307 391 c 0
 298 327 240 273 170 274 c 0
 100 275 62 330 72 392 c 0
91 394 m 0
 82 340 113 293 171 292 c 0
 230 291 280 337 288 394 c 0
 295 446 260 492 208 493 c 0
 155 494 100 448 91 394 c 0
EndSplineSet
EndChar

StartChar: uni2079
Encoding: 8313 8313 173
Width: 325
VWidth: 0
Flags: HMW
LayerCount: 2
Fore
SplineSet
346 568 m 0
 356 631 323 688 255 689 c 0
 187 690 131 634 121 568 c 0
 112 509 147 454 208 452 c 0
 279 450 335 507 346 568 c 0
152 283 m 1
 127 284 l 1
 298 478 l 1
 300 477 l 1
 274 453 241 435 202 436 c 0
 133 437 93 503 102 569 c 0
 113 646 177 709 256 708 c 0
 335 707 376 642 365 568 c 0
 359 534 339 500 318 476 c 1
 152 283 l 1
EndSplineSet
EndChar

StartChar: uni2070
Encoding: 8304 8304 174
Width: 328
VWidth: 0
Flags: HMW
LayerCount: 2
Fore
SplineSet
109 490 m 0
 99 409 104 294 189 293 c 0
 273 292 327 399 340 490 c 0
 350 571 344 686 259 687 c 0
 175 688 122 581 109 490 c 0
88 490 m 0
 102 593 164 706 260 706 c 0
 357 705 371 584 360 490 c 0
 346 387 284 274 188 274 c 0
 91 275 77 396 88 490 c 0
EndSplineSet
EndChar

StartChar: uni2080
Encoding: 8320 8320 175
Width: 335
VWidth: 0
Flags: HMW
LayerCount: 2
Fore
SplineSet
61 210 m 0
 51 129 56 14 141 13 c 0
 225 12 279 119 292 210 c 0
 302 291 297 406 212 407 c 0
 128 408 74 301 61 210 c 0
41 210 m 0
 55 313 116 426 212 426 c 0
 309 425 323 304 312 210 c 0
 298 107 237 -6 141 -6 c 0
 44 -5 30 116 41 210 c 0
EndSplineSet
EndChar

StartChar: uni2084
Encoding: 8324 8324 176
Width: 364
VWidth: 0
Flags: HMW
LayerCount: 2
Fore
SplineSet
19 84 m 1
 38 102 l 1
 240 102 l 1
 245 102 l 1
 317 102 l 1
 314 84 l 1
 19 84 l 1
41 85 m 1
 19 85 l 1
 301 419 l 1
 309 420 l 1
 236 0 l 1
 216 0 l 1
 232 91 l 1
 232 95 l 1
 280 369 l 1
 41 85 l 1
EndSplineSet
EndChar

StartChar: uni2085
Encoding: 8325 8325 177
Width: 334
VWidth: 0
Flags: HMW
LayerCount: 2
Fore
SplineSet
292 136 m 0
 280 51 212 -8 133 -8 c 0
 70 -8 38 28 19 80 c 1
 36 91 l 1
 52 45 80 11 134 11 c 0
 204 11 261 64 272 136 c 0
 281 196 249 249 188 251 c 0
 139 253 100 227 63 195 c 1
 82 220 l 1
 108 248 151 270 196 269 c 0
 266 268 302 205 292 136 c 0
167 400 m 1
 93 224 l 1
 61 193 l 1
 155 418 l 1
 347 418 l 1
 344 400 l 1
 167 400 l 1
EndSplineSet
EndChar

StartChar: uni2086
Encoding: 8326 8326 178
Width: 325
VWidth: 0
Flags: HMW
LayerCount: 2
Fore
SplineSet
51 132 m 0
 41 69 73 12 141 11 c 0
 209 10 266 66 276 132 c 0
 285 191 250 246 189 248 c 0
 118 250 62 193 51 132 c 0
244 417 m 1
 270 416 l 1
 98 222 l 1
 96 223 l 1
 122 247 156 265 195 264 c 0
 264 263 303 197 294 131 c 0
 283 54 219 -9 140 -8 c 0
 61 -7 21 58 32 132 c 0
 38 166 58 200 79 224 c 1
 244 417 l 1
EndSplineSet
EndChar

StartChar: uni2087
Encoding: 8327 8327 179
Width: 341
VWidth: 0
Flags: HMW
LayerCount: 2
Fore
SplineSet
74 401 m 1
 77 420 l 1
 356 420 l 1
 73 0 l 1
 52 0 l 1
 321 401 l 1
 74 401 l 1
EndSplineSet
EndChar

StartChar: uni2088
Encoding: 8328 8328 180
Width: 298
VWidth: 0
Flags: HMW
LayerCount: 2
Fore
SplineSet
72 324 m 0
 81 378 135 426 194 426 c 0
 253 426 291 376 283 323 c 0
 275 266 218 218 161 219 c 0
 105 219 64 268 72 324 c 0
91 322 m 0
 84 276 118 233 161 232 c 0
 204 231 256 274 263 321 c 0
 270 366 242 407 193 408 c 0
 144 409 98 368 91 322 c 0
24 112 m 0
 34 176 97 226 160 226 c 0
 223 226 268 174 259 111 c 0
 250 47 192 -7 122 -6 c 0
 52 -5 14 50 24 112 c 0
43 114 m 0
 34 60 65 13 123 12 c 0
 182 11 233 57 241 114 c 0
 248 166 212 212 160 213 c 0
 107 214 52 168 43 114 c 0
EndSplineSet
EndChar

StartChar: uni2089
Encoding: 8329 8329 181
Width: 325
VWidth: 0
Flags: HMW
LayerCount: 2
Fore
SplineSet
293 288 m 0
 303 351 270 408 202 409 c 0
 134 410 78 354 68 288 c 0
 59 229 94 174 155 172 c 0
 226 170 282 227 293 288 c 0
99 3 m 1
 74 4 l 1
 246 198 l 1
 247 197 l 1
 221 173 188 155 149 156 c 0
 80 157 40 223 49 289 c 0
 60 366 124 429 203 428 c 0
 282 427 322 362 311 288 c 0
 305 254 286 220 265 196 c 1
 99 3 l 1
EndSplineSet
EndChar

StartChar: uni2081
Encoding: 8321 8321 182
Width: 286
VWidth: 0
Flags: HMW
LayerCount: 2
Fore
SplineSet
128 377 m 1
 131 398 l 1
 253 425 l 1
 179 2 l 1
 160 2 l 1
 228 400 l 1
 128 377 l 1
EndSplineSet
EndChar

StartChar: uni2082
Encoding: 8322 8322 183
Width: 325
VWidth: 0
Flags: HMW
LayerCount: 2
Fore
SplineSet
1 3 m 1
 223 206 l 2
 254 235 287 268 294 312 c 0
 302 357 279 409 217 410 c 0
 146 412 101 347 86 279 c 1
 66 279 l 1
 82 358 135 429 218 428 c 0
 293 427 322 365 313 310 c 0
 305 263 272 226 238 195 c 2
 47 21 l 1
 275 21 l 1
 272 2 l 1
 1 3 l 1
EndSplineSet
EndChar

StartChar: uni2083
Encoding: 8323 8323 184
Width: 305
VWidth: 0
Flags: HMW
LayerCount: 2
Fore
SplineSet
145 215 m 1
 147 228 l 1
 202 233 262 261 273 318 c 0
 281 363 253 406 200 407 c 0
 143 408 104 366 90 317 c 1
 71 317 l 1
 86 377 132 427 201 426 c 0
 267 425 303 373 293 318 c 0
 281 252 212 219 145 215 c 1
126 -6 m 0
 49 -6 14 47 19 111 c 1
 39 111 l 1
 36 56 61 14 127 13 c 0
 187 12 240 54 249 109 c 0
 259 175 198 204 144 209 c 1
 147 223 l 1
 213 218 280 183 268 106 c 0
 258 41 196 -6 126 -6 c 0
EndSplineSet
EndChar

StartChar: Agrave
Encoding: 192 192 185
Width: 599
VWidth: 0
Flags: HMW
LayerCount: 2
Fore
SplineSet
145 253 m 1
 159 284 l 1
 484 284 l 1
 488 253 l 1
 145 253 l 1
384 643 m 1
 175 273 l 1
 171 265 l 1
 21 0 l 1
 -17 0 l 1
 396 722 l 1
 561 0 l 1
 525 0 l 1
 468 263 l 1
 466 271 l 1
 384 643 l 1
302 936 m 1
 332 953 l 1
 466 793 l 1
 448 781 l 1
 302 936 l 1
EndSplineSet
EndChar

StartChar: Aacute
Encoding: 193 193 186
Width: 599
VWidth: 0
Flags: HMW
LayerCount: 2
Fore
SplineSet
145 253 m 1
 159 284 l 1
 484 284 l 1
 488 253 l 1
 145 253 l 1
384 643 m 1
 175 273 l 1
 171 265 l 1
 21 0 l 1
 -17 0 l 1
 396 722 l 1
 561 0 l 1
 525 0 l 1
 468 263 l 1
 466 271 l 1
 384 643 l 1
563 935 m 1
 366 782 l 1
 351 795 l 1
 538 953 l 1
 563 935 l 1
EndSplineSet
EndChar

StartChar: Acircumflex
Encoding: 194 194 187
Width: 599
VWidth: 0
Flags: HMW
LayerCount: 2
Fore
SplineSet
145 253 m 1
 159 284 l 1
 484 284 l 1
 488 253 l 1
 145 253 l 1
384 643 m 1
 175 273 l 1
 171 265 l 1
 21 0 l 1
 -17 0 l 1
 396 722 l 1
 561 0 l 1
 525 0 l 1
 468 263 l 1
 466 271 l 1
 384 643 l 1
426 891 m 1
 269 770 l 1
 251 787 l 1
 430 926 l 1
 563 786 l 1
 541 769 l 1
 426 891 l 1
EndSplineSet
EndChar

StartChar: Atilde
Encoding: 195 195 188
Width: 599
VWidth: 0
Flags: HMW
LayerCount: 2
Fore
SplineSet
145 253 m 1
 159 284 l 1
 484 284 l 1
 488 253 l 1
 145 253 l 1
384 643 m 1
 175 273 l 1
 171 265 l 1
 21 0 l 1
 -17 0 l 1
 396 722 l 1
 561 0 l 1
 525 0 l 1
 468 263 l 1
 466 271 l 1
 384 643 l 1
275 802 m 1
 288 834 315 866 358 866 c 0
 410 866 424 819 471 820 c 0
 498 821 516 842 534 867 c 1
 553 851 l 1
 533 820 504 792 467 793 c 0
 417 793 399 840 357 839 c 0
 321 838 306 811 297 789 c 1
 275 802 l 1
EndSplineSet
EndChar

StartChar: Adieresis
Encoding: 196 196 189
Width: 599
VWidth: 0
Flags: HMW
LayerCount: 2
Fore
SplineSet
145 253 m 1
 159 284 l 1
 484 284 l 1
 488 253 l 1
 145 253 l 1
384 643 m 1
 175 273 l 1
 171 265 l 1
 21 0 l 1
 -17 0 l 1
 396 722 l 1
 561 0 l 1
 525 0 l 1
 468 263 l 1
 466 271 l 1
 384 643 l 1
486 820 m 0
 487 832 502 844 514 844 c 0
 527 844 535 832 534 819 c 0
 533 807 518 795 506 795 c 0
 493 795 485 807 486 820 c 0
292 820 m 0
 293 832 307 844 319 844 c 0
 332 844 341 832 340 819 c 0
 339 807 324 795 312 795 c 0
 299 795 291 807 292 820 c 0
EndSplineSet
EndChar

StartChar: Aring
Encoding: 197 197 190
Width: 599
VWidth: 0
Flags: HMW
LayerCount: 2
Fore
SplineSet
145 253 m 1
 159 284 l 1
 484 284 l 1
 488 253 l 1
 145 253 l 1
384 643 m 1
 175 273 l 1
 171 265 l 1
 21 0 l 1
 -17 0 l 1
 396 722 l 1
 561 0 l 1
 525 0 l 1
 468 263 l 1
 466 271 l 1
 384 643 l 1
311 806 m 0
 319 861 374 904 427 904 c 0
 480 904 518 858 510 804 c 0
 502 749 447 705 394 705 c 0
 341 705 303 752 311 806 c 0
333 805 m 0
 327 764 355 728 396 727 c 0
 437 726 482 763 488 805 c 0
 494 846 466 882 425 883 c 0
 384 884 339 847 333 805 c 0
EndSplineSet
EndChar

StartChar: AE
Encoding: 198 198 191
Width: 887
VWidth: 0
Flags: HMW
LayerCount: 2
Fore
SplineSet
221 259 m 1
 226 290 l 1
 511 290 l 1
 506 259 l 1
 221 259 l 1
549 700 m 1
 576 686 l 1
 15 0 l 1
 -23 0 l 1
 549 700 l 1
467 0 m 1
 472 31 l 1
 793 31 l 1
 787 0 l 1
 467 0 l 1
587 669 m 1
 549 700 l 1
 907 700 l 1
 901 669 l 1
 587 669 l 1
530 371 m 1
 536 402 l 1
 836 402 l 1
 831 371 l 1
 530 371 l 1
568 700 m 1
 602 700 l 1
 481 0 l 1
 448 0 l 1
 568 700 l 1
EndSplineSet
EndChar

StartChar: Ccedilla
Encoding: 199 199 192
Width: 664
VWidth: 0
Flags: HMW
LayerCount: 2
Fore
SplineSet
113 350 m 0
 88 184 173 28 348 26 c 0
 443 25 519 61 583 115 c 1
 576 70 l 1
 510 21 439 -8 345 -8 c 0
 149 -7 51 164 78 350 c 0
 108 546 266 708 464 709 c 0
 553 709 616 683 671 630 c 1
 663 585 l 1
 614 644 546 674 461 674 c 0
 284 673 141 527 113 350 c 0
340 17 m 1
 367 17 l 1
 295 -69 l 1
 312 -60 326 -52 347 -53 c 0
 383 -55 411 -85 406 -128 c 0
 399 -185 341 -220 287 -220 c 0
 252 -220 231 -208 206 -183 c 1
 222 -167 l 1
 243 -186 261 -197 289 -197 c 0
 330 -197 376 -170 382 -127 c 0
 386 -94 364 -74 335 -72 c 0
 310 -70 282 -81 259 -94 c 1
 340 17 l 1
EndSplineSet
EndChar

StartChar: Egrave
Encoding: 200 200 193
Width: 505
VWidth: 0
Flags: HMW
LayerCount: 2
Fore
SplineSet
73 0 m 1
 78 31 l 1
 411 31 l 1
 406 0 l 1
 73 0 l 1
187 669 m 1
 192 700 l 1
 525 700 l 1
 520 669 l 1
 187 669 l 1
136 371 m 1
 141 402 l 1
 455 402 l 1
 449 371 l 1
 136 371 l 1
176 700 m 1
 210 700 l 1
 90 0 l 1
 57 0 l 1
 176 700 l 1
245 924 m 1
 275 941 l 1
 408 781 l 1
 391 769 l 1
 245 924 l 1
EndSplineSet
EndChar

StartChar: Eacute
Encoding: 201 201 194
Width: 505
VWidth: 0
Flags: HMW
LayerCount: 2
Fore
SplineSet
73 0 m 1
 78 31 l 1
 411 31 l 1
 406 0 l 1
 73 0 l 1
187 669 m 1
 192 700 l 1
 525 700 l 1
 520 669 l 1
 187 669 l 1
136 371 m 1
 141 402 l 1
 455 402 l 1
 449 371 l 1
 136 371 l 1
176 700 m 1
 210 700 l 1
 90 0 l 1
 57 0 l 1
 176 700 l 1
533 922 m 1
 336 770 l 1
 321 782 l 1
 508 940 l 1
 533 922 l 1
EndSplineSet
EndChar

StartChar: Ecircumflex
Encoding: 202 202 195
Width: 505
VWidth: 0
Flags: HMW
LayerCount: 2
Fore
SplineSet
73 0 m 1
 78 31 l 1
 411 31 l 1
 406 0 l 1
 73 0 l 1
187 669 m 1
 192 700 l 1
 525 700 l 1
 520 669 l 1
 187 669 l 1
136 371 m 1
 141 402 l 1
 455 402 l 1
 449 371 l 1
 136 371 l 1
176 700 m 1
 210 700 l 1
 90 0 l 1
 57 0 l 1
 176 700 l 1
387 891 m 1
 230 769 l 1
 212 787 l 1
 391 925 l 1
 524 785 l 1
 502 769 l 1
 387 891 l 1
EndSplineSet
EndChar

StartChar: Edieresis
Encoding: 203 203 196
Width: 505
VWidth: 0
Flags: HMW
LayerCount: 2
Fore
SplineSet
73 0 m 1
 78 31 l 1
 411 31 l 1
 406 0 l 1
 73 0 l 1
187 669 m 1
 192 700 l 1
 525 700 l 1
 520 669 l 1
 187 669 l 1
136 371 m 1
 141 402 l 1
 455 402 l 1
 449 371 l 1
 136 371 l 1
176 700 m 1
 210 700 l 1
 90 0 l 1
 57 0 l 1
 176 700 l 1
446 813 m 0
 447 825 462 837 474 837 c 0
 487 837 495 826 494 813 c 0
 493 801 478 789 466 789 c 0
 453 789 445 800 446 813 c 0
252 813 m 0
 253 825 267 837 279 837 c 0
 292 837 301 826 300 813 c 0
 299 801 284 789 272 789 c 0
 259 789 251 800 252 813 c 0
EndSplineSet
EndChar

StartChar: Igrave
Encoding: 204 204 197
Width: 193
VWidth: 0
Flags: HMW
LayerCount: 2
Fore
SplineSet
173 700 m 1
 206 700 l 1
 85 0 l 1
 53 0 l 1
 173 700 l 1
83 924 m 1
 113 941 l 1
 247 781 l 1
 229 769 l 1
 83 924 l 1
EndSplineSet
EndChar

StartChar: Iacute
Encoding: 205 205 198
Width: 193
VWidth: 0
Flags: HMW
LayerCount: 2
Fore
SplineSet
173 700 m 1
 206 700 l 1
 85 0 l 1
 53 0 l 1
 173 700 l 1
372 922 m 1
 174 769 l 1
 159 782 l 1
 346 940 l 1
 372 922 l 1
EndSplineSet
EndChar

StartChar: Icircumflex
Encoding: 206 206 199
Width: 193
VWidth: 0
Flags: HMW
LayerCount: 2
Fore
SplineSet
173 700 m 1
 206 700 l 1
 85 0 l 1
 53 0 l 1
 173 700 l 1
223 891 m 1
 65 769 l 1
 48 787 l 1
 227 925 l 1
 359 785 l 1
 338 769 l 1
 223 891 l 1
EndSplineSet
EndChar

StartChar: Idieresis
Encoding: 207 207 200
Width: 193
VWidth: 0
Flags: HMW
LayerCount: 2
Fore
SplineSet
173 700 m 1
 206 700 l 1
 85 0 l 1
 53 0 l 1
 173 700 l 1
260 807 m 0
 261 819 276 831 288 831 c 0
 301 831 310 820 309 807 c 0
 308 795 293 783 281 783 c 0
 268 783 259 794 260 807 c 0
107 807 m 0
 108 819 122 831 134 831 c 0
 147 831 156 820 155 807 c 0
 154 795 139 783 127 783 c 0
 114 783 106 794 107 807 c 0
EndSplineSet
EndChar

StartChar: Ntilde
Encoding: 209 209 201
Width: 677
VWidth: 0
Flags: HMW
LayerCount: 2
Fore
SplineSet
667 700 m 1
 700 700 l 1
 576 -21 l 1
 171 630 l 1
 63 0 l 1
 29 0 l 1
 153 721 l 1
 558 66 l 1
 667 700 l 1
305 768 m 1
 318 800 345 832 388 832 c 0
 437 832 453 785 500 786 c 0
 527 787 546 808 564 833 c 1
 582 817 l 1
 562 786 533 759 496 760 c 0
 449 760 429 806 387 806 c 0
 350 806 333 779 325 756 c 1
 305 768 l 1
EndSplineSet
EndChar

StartChar: Eth
Encoding: 208 208 202
Width: 659
VWidth: 0
Flags: HMW
LayerCount: 2
Fore
SplineSet
35 334 m 1
 40 364 l 1
 331 364 l 1
 327 334 l 1
 35 334 l 1
176 700 m 1
 210 700 l 1
 90 0 l 1
 57 0 l 1
 176 700 l 1
229 0 m 1
 74 0 l 1
 80 34 l 1
 232 34 l 1
 417 37 555 169 584 350 c 0
 611 522 525 662 342 666 c 1
 188 666 l 1
 194 700 l 1
 345 700 l 1
 546 696 645 540 617 350 c 0
 586 151 433 3 229 0 c 1
EndSplineSet
EndChar

StartChar: Ograve
Encoding: 210 210 203
Width: 755
VWidth: 0
Flags: HMW
LayerCount: 2
Fore
SplineSet
113 350 m 0
 88 183 174 26 354 25 c 0
 536 24 681 174 709 350 c 0
 734 517 647 674 467 675 c 0
 285 676 141 526 113 350 c 0
78 350 m 0
 108 546 270 709 470 709 c 0
 668 709 770 536 743 350 c 0
 713 154 551 -9 351 -9 c 0
 153 -9 51 164 78 350 c 0
381 924 m 1
 412 941 l 1
 545 781 l 1
 526 769 l 1
 381 924 l 1
EndSplineSet
EndChar

StartChar: Oacute
Encoding: 211 211 204
Width: 755
VWidth: 0
Flags: HMW
LayerCount: 2
Fore
SplineSet
113 350 m 0
 88 183 174 26 354 25 c 0
 536 24 681 174 709 350 c 0
 734 517 647 674 467 675 c 0
 285 676 141 526 113 350 c 0
78 350 m 0
 108 546 270 709 470 709 c 0
 668 709 770 536 743 350 c 0
 713 154 551 -9 351 -9 c 0
 153 -9 51 164 78 350 c 0
636 922 m 1
 440 770 l 1
 423 782 l 1
 610 940 l 1
 636 922 l 1
EndSplineSet
EndChar

StartChar: Ocircumflex
Encoding: 212 212 205
Width: 755
VWidth: 0
Flags: HMW
LayerCount: 2
Fore
SplineSet
113 350 m 0
 88 183 174 26 354 25 c 0
 536 24 681 174 709 350 c 0
 734 517 647 674 467 675 c 0
 285 676 141 526 113 350 c 0
78 350 m 0
 108 546 270 709 470 709 c 0
 668 709 770 536 743 350 c 0
 713 154 551 -9 351 -9 c 0
 153 -9 51 164 78 350 c 0
504 891 m 1
 347 769 l 1
 329 787 l 1
 508 925 l 1
 641 785 l 1
 619 769 l 1
 504 891 l 1
EndSplineSet
EndChar

StartChar: Otilde
Encoding: 213 213 206
Width: 755
VWidth: 0
Flags: HMW
LayerCount: 2
Fore
SplineSet
113 350 m 0
 88 183 174 26 354 25 c 0
 536 24 681 174 709 350 c 0
 734 517 647 674 467 675 c 0
 285 676 141 526 113 350 c 0
78 350 m 0
 108 546 270 709 470 709 c 0
 668 709 770 536 743 350 c 0
 713 154 551 -9 351 -9 c 0
 153 -9 51 164 78 350 c 0
352 795 m 1
 358 828 396 859 436 859 c 0
 485 859 501 812 548 813 c 0
 575 814 594 835 612 860 c 1
 629 845 l 1
 609 814 581 786 544 787 c 0
 497 787 477 833 435 833 c 0
 398 833 382 806 373 783 c 1
 352 795 l 1
EndSplineSet
EndChar

StartChar: Odieresis
Encoding: 214 214 207
Width: 755
VWidth: 0
Flags: HMW
LayerCount: 2
Fore
SplineSet
113 350 m 0
 88 183 174 26 354 25 c 0
 536 24 681 174 709 350 c 0
 734 517 647 674 467 675 c 0
 285 676 141 526 113 350 c 0
78 350 m 0
 108 546 270 709 470 709 c 0
 668 709 770 536 743 350 c 0
 713 154 551 -9 351 -9 c 0
 153 -9 51 164 78 350 c 0
570 814 m 0
 571 826 585 838 597 838 c 0
 610 838 618 827 617 814 c 0
 616 802 602 790 590 790 c 0
 577 790 569 801 570 814 c 0
362 814 m 0
 363 826 378 838 390 838 c 0
 403 838 411 827 410 814 c 0
 409 802 394 790 382 790 c 0
 369 790 361 801 362 814 c 0
EndSplineSet
EndChar

StartChar: Ugrave
Encoding: 217 217 208
Width: 572
VWidth: 0
Flags: HMW
LayerCount: 2
Fore
SplineSet
172 700 m 1
 205 700 l 1
 123 223 l 2
 109 116 147 24 262 23 c 0
 377 22 453 111 472 223 c 1
 554 700 l 1
 588 700 l 1
 506 223 l 2
 484 94 397 -10 260 -10 c 0
 124 -10 74 99 90 223 c 1
 172 700 l 1
287 924 m 1
 317 941 l 1
 450 781 l 1
 433 769 l 1
 287 924 l 1
EndSplineSet
EndChar

StartChar: Uacute
Encoding: 218 218 209
Width: 572
VWidth: 0
Flags: HMW
LayerCount: 2
Fore
SplineSet
172 700 m 1
 205 700 l 1
 123 223 l 2
 109 116 147 24 262 23 c 0
 377 22 453 111 472 223 c 1
 554 700 l 1
 588 700 l 1
 506 223 l 2
 484 94 397 -10 260 -10 c 0
 124 -10 74 99 90 223 c 1
 172 700 l 1
548 922 m 1
 351 770 l 1
 336 782 l 1
 523 940 l 1
 548 922 l 1
EndSplineSet
EndChar

StartChar: Ucircumflex
Encoding: 219 219 210
Width: 572
VWidth: 0
Flags: HMW
LayerCount: 2
Fore
SplineSet
172 700 m 1
 205 700 l 1
 123 223 l 2
 109 116 147 24 262 23 c 0
 377 22 453 111 472 223 c 1
 554 700 l 1
 588 700 l 1
 506 223 l 2
 484 94 397 -10 260 -10 c 0
 124 -10 74 99 90 223 c 1
 172 700 l 1
413 891 m 1
 255 769 l 1
 238 787 l 1
 417 925 l 1
 550 785 l 1
 528 769 l 1
 413 891 l 1
EndSplineSet
EndChar

StartChar: Udieresis
Encoding: 220 220 211
Width: 572
VWidth: 0
Flags: HMW
LayerCount: 2
Fore
SplineSet
172 700 m 1
 205 700 l 1
 123 223 l 2
 109 116 147 24 262 23 c 0
 377 22 453 111 472 223 c 1
 554 700 l 1
 588 700 l 1
 506 223 l 2
 484 94 397 -10 260 -10 c 0
 124 -10 74 99 90 223 c 1
 172 700 l 1
462 793 m 0
 463 805 477 817 489 817 c 0
 502 817 510 806 509 793 c 0
 508 781 494 769 482 769 c 0
 469 769 461 780 462 793 c 0
281 793 m 0
 282 805 296 817 308 817 c 0
 321 817 330 806 329 793 c 0
 328 781 313 769 301 769 c 0
 288 769 280 780 281 793 c 0
EndSplineSet
EndChar

StartChar: Yacute
Encoding: 221 221 212
Width: 507
VWidth: 0
Flags: HMW
LayerCount: 2
Fore
SplineSet
528 922 m 1
 332 769 l 1
 316 782 l 1
 503 940 l 1
 528 922 l 1
552 699 m 1
 590 699 l 1
 287 277 l 1
 240 0 l 1
 206 0 l 1
 255 278 l 1
 104 700 l 1
 141 700 l 1
 275 311 l 1
 552 699 l 1
EndSplineSet
EndChar

StartChar: agrave
Encoding: 224 224 213
Width: 533
VWidth: 0
Flags: HMW
LayerCount: 2
Fore
SplineSet
481 460 m 1
 511 460 l 1
 431 0 l 1
 403 0 l 1
 481 460 l 1
52 230 m 0
 71 363 176 471 304 470 c 0
 428 469 471 342 455 230 c 0
 437 110 348 -10 224 -10 c 0
 97 -10 35 104 52 230 c 0
84 230 m 0
 68 120 120 19 232 20 c 0
 336 21 424 125 441 230 c 0
 455 327 409 438 306 440 c 0
 194 442 102 346 84 230 c 0
233 692 m 1
 263 709 l 1
 396 549 l 1
 379 537 l 1
 233 692 l 1
EndSplineSet
Substitution2: "alt a" agrave.alt
EndChar

StartChar: aacute
Encoding: 225 225 214
Width: 533
VWidth: 0
Flags: HMW
LayerCount: 2
Fore
SplineSet
481 460 m 1
 511 460 l 1
 431 0 l 1
 403 0 l 1
 481 460 l 1
52 230 m 0
 71 363 176 471 304 470 c 0
 428 469 471 342 455 230 c 0
 437 110 348 -10 224 -10 c 0
 97 -10 35 104 52 230 c 0
84 230 m 0
 68 120 120 19 232 20 c 0
 336 21 424 125 441 230 c 0
 455 327 409 438 306 440 c 0
 194 442 102 346 84 230 c 0
447 690 m 1
 249 538 l 1
 234 551 l 1
 421 709 l 1
 447 690 l 1
EndSplineSet
Substitution2: "alt a" aacute.alt
EndChar

StartChar: acircumflex
Encoding: 226 226 215
Width: 533
VWidth: 0
Flags: HMW
LayerCount: 2
Fore
SplineSet
481 460 m 1
 511 460 l 1
 431 0 l 1
 403 0 l 1
 481 460 l 1
52 230 m 0
 71 363 176 471 304 470 c 0
 428 469 471 342 455 230 c 0
 437 110 348 -10 224 -10 c 0
 97 -10 35 104 52 230 c 0
84 230 m 0
 68 120 120 19 232 20 c 0
 336 21 424 125 441 230 c 0
 455 327 409 438 306 440 c 0
 194 442 102 346 84 230 c 0
346 666 m 1
 188 545 l 1
 170 562 l 1
 350 701 l 1
 482 561 l 1
 461 544 l 1
 346 666 l 1
EndSplineSet
Substitution2: "alt a" acircumflex.alt
EndChar

StartChar: atilde
Encoding: 227 227 216
Width: 533
VWidth: 0
Flags: HMW
LayerCount: 2
Fore
SplineSet
481 460 m 1
 511 460 l 1
 431 0 l 1
 403 0 l 1
 481 460 l 1
52 230 m 0
 71 363 176 471 304 470 c 0
 428 469 471 342 455 230 c 0
 437 110 348 -10 224 -10 c 0
 97 -10 35 104 52 230 c 0
84 230 m 0
 68 120 120 19 232 20 c 0
 336 21 424 125 441 230 c 0
 455 327 409 438 306 440 c 0
 194 442 102 346 84 230 c 0
191 557 m 1
 192 589 239 621 274 621 c 0
 323 621 340 574 387 575 c 0
 414 576 432 597 450 622 c 1
 469 606 l 1
 449 575 420 547 383 548 c 0
 336 548 315 595 273 594 c 0
 237 593 222 566 213 544 c 1
 191 557 l 1
EndSplineSet
Substitution2: "alt a" atilde.alt
EndChar

StartChar: adieresis
Encoding: 228 228 217
Width: 533
VWidth: 0
Flags: HMW
LayerCount: 2
Fore
SplineSet
481 460 m 1
 511 460 l 1
 431 0 l 1
 403 0 l 1
 481 460 l 1
52 230 m 0
 71 363 176 471 304 470 c 0
 428 469 471 342 455 230 c 0
 437 110 348 -10 224 -10 c 0
 97 -10 35 104 52 230 c 0
84 230 m 0
 68 120 120 19 232 20 c 0
 336 21 424 125 441 230 c 0
 455 327 409 438 306 440 c 0
 194 442 102 346 84 230 c 0
411 589 m 0
 412 601 427 613 439 613 c 0
 452 613 460 602 459 589 c 0
 458 577 443 565 431 565 c 0
 418 565 410 576 411 589 c 0
217 589 m 0
 218 601 233 613 245 613 c 0
 258 613 266 602 265 589 c 0
 264 577 249 565 237 565 c 0
 224 565 216 576 217 589 c 0
EndSplineSet
Substitution2: "alt a" adieresis.alt
EndChar

StartChar: aring
Encoding: 229 229 218
Width: 533
VWidth: 0
Flags: HMW
LayerCount: 2
Fore
SplineSet
481 460 m 1
 511 460 l 1
 431 0 l 1
 403 0 l 1
 481 460 l 1
52 230 m 0
 71 363 176 471 304 470 c 0
 428 469 471 342 455 230 c 0
 437 110 348 -10 224 -10 c 0
 97 -10 35 104 52 230 c 0
84 230 m 0
 68 120 120 19 232 20 c 0
 336 21 424 125 441 230 c 0
 455 327 409 438 306 440 c 0
 194 442 102 346 84 230 c 0
231 630 m 0
 239 685 293 729 346 729 c 0
 399 729 438 683 430 629 c 0
 422 574 367 530 314 530 c 0
 261 530 223 576 231 630 c 0
253 630 m 0
 247 589 275 553 316 552 c 0
 357 551 402 588 408 630 c 0
 414 671 386 707 345 708 c 0
 304 709 259 672 253 630 c 0
EndSplineSet
Substitution2: "alt a" aring.alt
EndChar

StartChar: germandbls
Encoding: 223 223 219
Width: 525
VWidth: 0
Flags: HMW
LayerCount: 2
Fore
SplineSet
226 20 m 1
 343 28 444 107 464 228 c 0
 484 353 388 424 277 431 c 1
 281 452 l 1
 422 446 516 357 494 225 c 0
 472 88 357 -3 221 -10 c 1
 226 20 l 1
279 439 m 1
 282 461 l 1
 385 465 471 505 489 603 c 0
 504 687 464 760 359 760 c 0
 270 760 200 691 185 606 c 2
 81 0 l 1
 50 0 l 1
 153 606 l 1
 171 709 254 790 362 790 c 0
 485 790 538 710 521 606 c 0
 501 494 414 443 279 439 c 1
EndSplineSet
EndChar

StartChar: ae
Encoding: 230 230 220
Width: 800
VWidth: 0
Flags: HMW
LayerCount: 2
Fore
SplineSet
62 133 m 0
 51 70 90 19 167 19 c 0
 256 19 329 89 344 170 c 1
 361 154 l 1
 345 68 264 -10 165 -10 c 0
 71 -10 17 50 30 130 c 0
 45 226 137 282 238 282 c 0
 302 282 343 256 366 232 c 1
 363 211 l 1
 334 237 293 256 238 256 c 0
 151 256 75 210 62 133 c 0
128 382 m 1
 115 407 l 1
 157 437 213 472 286 470 c 0
 372 468 404 404 394 330 c 1
 365 152 l 1
 341 152 l 1
 370 320 l 1
 379 380 355 439 281 441 c 0
 216 443 166 408 128 382 c 1
375 223 m 1
 379 250 l 1
 769 250 l 1
 774 223 l 1
 375 223 l 1
747 250 m 2
 762 352 708 441 610 442 c 0
 493 443 410 348 388 243 c 1
 385 233 l 1
 372 126 413 22 524 20 c 0
 617 19 677 68 726 123 c 1
 749 106 l 1
 692 40 626 -12 519 -10 c 0
 397 -8 337 110 356 230 c 0
 359 247 366 263 372 279 c 0
 409 384 496 471 618 470 c 0
 722 469 796 368 780 247 c 0
 779 239 776 231 774 223 c 1
 744 230 l 1
 747 250 l 2
EndSplineSet
EndChar

StartChar: ccedilla
Encoding: 231 231 221
Width: 469
VWidth: 0
Flags: HMW
LayerCount: 2
Fore
SplineSet
79 230 m 0
 62 121 124 21 239 20 c 0
 308 20 367 54 403 87 c 1
 397 48 l 1
 359 17 301 -10 236 -10 c 0
 103 -10 29 104 47 230 c 0
 67 362 180 470 315 470 c 0
 376 470 429 445 459 412 c 1
 453 372 l 1
 428 409 377 440 313 440 c 0
 196 440 98 345 79 230 c 0
232 15 m 1
 259 15 l 1
 186 -71 l 1
 203 -62 217 -54 238 -55 c 0
 274 -57 303 -86 298 -129 c 0
 291 -186 233 -222 179 -222 c 0
 144 -222 122 -209 97 -184 c 1
 114 -168 l 1
 135 -187 153 -199 181 -199 c 0
 222 -199 268 -171 274 -128 c 0
 278 -95 256 -75 227 -73 c 0
 202 -71 173 -83 150 -96 c 1
 232 15 l 1
EndSplineSet
EndChar

StartChar: egrave
Encoding: 232 232 222
Width: 490
VWidth: 0
Flags: HMW
LayerCount: 2
Fore
SplineSet
76 223 m 1
 80 250 l 1
 436 250 l 1
 452 344 404 440 301 441 c 0
 196 442 108 351 90 241 c 1
 88 232 l 1
 76 126 120 21 229 20 c 0
 319 19 374 72 417 123 c 1
 440 106 l 1
 391 48 330 -11 223 -10 c 0
 99 -9 42 110 57 231 c 0
 61 255 66 277 75 299 c 0
 112 393 198 470 303 470 c 0
 420 469 484 364 470 248 c 0
 469 240 466 231 464 223 c 1
 76 223 l 1
185 688 m 1
 215 705 l 1
 350 545 l 1
 332 533 l 1
 185 688 l 1
EndSplineSet
EndChar

StartChar: eacute
Encoding: 233 233 223
Width: 490
VWidth: 0
Flags: HMW
LayerCount: 2
Fore
SplineSet
76 223 m 1
 80 250 l 1
 436 250 l 1
 452 344 404 440 301 441 c 0
 196 442 108 351 90 241 c 1
 88 232 l 1
 76 126 120 21 229 20 c 0
 319 19 374 72 417 123 c 1
 440 106 l 1
 391 48 330 -11 223 -10 c 0
 99 -9 42 110 57 231 c 0
 61 255 66 277 75 299 c 0
 112 393 198 470 303 470 c 0
 420 469 484 364 470 248 c 0
 469 240 466 231 464 223 c 1
 76 223 l 1
492 685 m 1
 297 533 l 1
 281 546 l 1
 466 704 l 1
 492 685 l 1
EndSplineSet
EndChar

StartChar: ecircumflex
Encoding: 234 234 224
Width: 490
VWidth: 0
Flags: HMW
LayerCount: 2
Fore
SplineSet
76 223 m 1
 80 250 l 1
 436 250 l 1
 452 344 404 440 301 441 c 0
 196 442 108 351 90 241 c 1
 88 232 l 1
 76 126 120 21 229 20 c 0
 319 19 374 72 417 123 c 1
 440 106 l 1
 391 48 330 -11 223 -10 c 0
 99 -9 42 110 57 231 c 0
 61 255 66 277 75 299 c 0
 112 393 198 470 303 470 c 0
 420 469 484 364 470 248 c 0
 469 240 466 231 464 223 c 1
 76 223 l 1
333 652 m 1
 175 531 l 1
 157 548 l 1
 336 686 l 1
 469 546 l 1
 447 530 l 1
 333 652 l 1
EndSplineSet
EndChar

StartChar: edieresis
Encoding: 235 235 225
Width: 490
VWidth: 0
Flags: HMW
LayerCount: 2
Fore
SplineSet
76 223 m 1
 80 250 l 1
 436 250 l 1
 452 344 404 440 301 441 c 0
 196 442 108 351 90 241 c 1
 88 232 l 1
 76 126 120 21 229 20 c 0
 319 19 374 72 417 123 c 1
 440 106 l 1
 391 48 330 -11 223 -10 c 0
 99 -9 42 110 57 231 c 0
 61 255 66 277 75 299 c 0
 112 393 198 470 303 470 c 0
 420 469 484 364 470 248 c 0
 469 240 466 231 464 223 c 1
 76 223 l 1
387 554 m 0
 388 566 402 578 414 578 c 0
 427 578 436 567 435 554 c 0
 434 542 419 530 407 530 c 0
 394 530 386 541 387 554 c 0
193 554 m 0
 194 566 208 578 220 578 c 0
 233 578 242 567 241 554 c 0
 240 542 225 530 213 530 c 0
 200 530 192 541 193 554 c 0
EndSplineSet
EndChar

StartChar: igrave
Encoding: 236 236 226
Width: 204
VWidth: 0
Flags: HMW
LayerCount: 2
Fore
SplineSet
139 460 m 1
 170 460 l 1
 90 0 l 1
 60 0 l 1
 139 460 l 1
41 691 m 1
 71 708 l 1
 204 548 l 1
 185 536 l 1
 41 691 l 1
EndSplineSet
EndChar

StartChar: dotlessi
Encoding: 305 305 227
Width: 204
VWidth: 0
Flags: HMW
LayerCount: 2
Fore
SplineSet
139 460 m 1
 170 460 l 1
 90 0 l 1
 60 0 l 1
 139 460 l 1
EndSplineSet
EndChar

StartChar: kgreenlandic
Encoding: 312 312 228
Width: 380
VWidth: 0
Flags: HMW
LayerCount: 2
Fore
SplineSet
126 460 m 1
 158 460 l 1
 78 0 l 1
 47 0 l 1
 126 460 l 1
366 459 m 1
 409 459 l 1
 152 269 l 1
 347 0 l 1
 309 0 l 1
 114 271 l 1
 366 459 l 1
EndSplineSet
EndChar

StartChar: iacute
Encoding: 237 237 229
Width: 204
VWidth: 0
Flags: HMW
LayerCount: 2
Fore
SplineSet
139 460 m 1
 170 460 l 1
 90 0 l 1
 60 0 l 1
 139 460 l 1
346 690 m 1
 150 537 l 1
 134 550 l 1
 320 708 l 1
 346 690 l 1
EndSplineSet
EndChar

StartChar: icircumflex
Encoding: 238 238 230
Width: 204
VWidth: 0
Flags: HMW
LayerCount: 2
Fore
SplineSet
139 460 m 1
 170 460 l 1
 90 0 l 1
 60 0 l 1
 139 460 l 1
188 655 m 1
 31 534 l 1
 14 551 l 1
 193 690 l 1
 325 550 l 1
 303 533 l 1
 188 655 l 1
EndSplineSet
EndChar

StartChar: idieresis
Encoding: 239 239 231
Width: 204
VWidth: 0
Flags: HMW
LayerCount: 2
Fore
SplineSet
139 460 m 1
 170 460 l 1
 90 0 l 1
 60 0 l 1
 139 460 l 1
231 564 m 0
 232 576 247 588 259 588 c 0
 272 588 280 576 279 563 c 0
 278 551 264 539 252 539 c 0
 239 539 230 551 231 564 c 0
64 564 m 0
 65 576 80 588 92 588 c 0
 105 588 113 576 112 563 c 0
 111 551 96 539 84 539 c 0
 71 539 63 551 64 564 c 0
EndSplineSet
EndChar

StartChar: ntilde
Encoding: 241 241 232
Width: 474
VWidth: 0
Flags: HMW
LayerCount: 2
Fore
SplineSet
162 460 m 1
 83 0 l 1
 51 0 l 1
 131 460 l 1
 162 460 l 1
391 308 m 2
 400 377 383 439 303 440 c 0
 214 441 149 361 130 281 c 1
 116 281 l 1
 136 379 211 470 312 470 c 0
 406 470 434 397 423 311 c 1
 369 0 l 1
 338 0 l 1
 391 308 l 2
172 557 m 1
 185 589 212 621 255 621 c 0
 304 621 320 574 367 575 c 0
 394 576 412 597 430 622 c 1
 449 606 l 1
 429 575 400 547 363 548 c 0
 316 548 296 594 254 594 c 0
 217 594 200 567 192 544 c 1
 172 557 l 1
EndSplineSet
EndChar

StartChar: ograve
Encoding: 242 242 233
Width: 535
VWidth: 0
Flags: HMW
LayerCount: 2
Fore
SplineSet
52 230 m 0
 72 361 186 470 320 470 c 0
 453 470 527 356 509 230 c 0
 489 99 375 -10 241 -10 c 0
 108 -10 34 104 52 230 c 0
84 230 m 0
 67 121 128 20 243 20 c 0
 360 20 459 115 477 230 c 0
 494 339 433 440 318 440 c 0
 201 440 102 345 84 230 c 0
219 691 m 1
 250 708 l 1
 383 548 l 1
 365 536 l 1
 219 691 l 1
EndSplineSet
EndChar

StartChar: oacute
Encoding: 243 243 234
Width: 535
VWidth: 0
Flags: HMW
LayerCount: 2
Fore
SplineSet
52 230 m 0
 72 361 186 470 320 470 c 0
 453 470 527 356 509 230 c 0
 489 99 375 -10 241 -10 c 0
 108 -10 34 104 52 230 c 0
84 230 m 0
 67 121 128 20 243 20 c 0
 360 20 459 115 477 230 c 0
 494 339 433 440 318 440 c 0
 201 440 102 345 84 230 c 0
499 690 m 1
 302 537 l 1
 287 550 l 1
 473 708 l 1
 499 690 l 1
EndSplineSet
EndChar

StartChar: ocircumflex
Encoding: 244 244 235
Width: 535
VWidth: 0
Flags: HMW
LayerCount: 2
Fore
SplineSet
52 230 m 0
 72 361 186 470 320 470 c 0
 453 470 527 356 509 230 c 0
 489 99 375 -10 241 -10 c 0
 108 -10 34 104 52 230 c 0
84 230 m 0
 67 121 128 20 243 20 c 0
 360 20 459 115 477 230 c 0
 494 339 433 440 318 440 c 0
 201 440 102 345 84 230 c 0
357 672 m 1
 200 551 l 1
 182 568 l 1
 361 707 l 1
 494 567 l 1
 472 550 l 1
 357 672 l 1
EndSplineSet
EndChar

StartChar: otilde
Encoding: 245 245 236
Width: 535
VWidth: 0
Flags: HMW
LayerCount: 2
Fore
SplineSet
52 230 m 0
 72 361 186 470 320 470 c 0
 453 470 527 356 509 230 c 0
 489 99 375 -10 241 -10 c 0
 108 -10 34 104 52 230 c 0
84 230 m 0
 67 121 128 20 243 20 c 0
 360 20 459 115 477 230 c 0
 494 339 433 440 318 440 c 0
 201 440 102 345 84 230 c 0
201 557 m 1
 196 589 253 621 285 621 c 0
 334 621 350 574 397 575 c 0
 424 576 442 597 460 622 c 1
 479 606 l 1
 459 575 431 547 394 548 c 0
 347 548 326 595 284 594 c 0
 248 593 232 566 223 544 c 1
 201 557 l 1
EndSplineSet
EndChar

StartChar: odieresis
Encoding: 246 246 237
Width: 535
VWidth: 0
Flags: HMW
LayerCount: 2
Fore
SplineSet
52 230 m 0
 72 361 186 470 320 470 c 0
 453 470 527 356 509 230 c 0
 489 99 375 -10 241 -10 c 0
 108 -10 34 104 52 230 c 0
84 230 m 0
 67 121 128 20 243 20 c 0
 360 20 459 115 477 230 c 0
 494 339 433 440 318 440 c 0
 201 440 102 345 84 230 c 0
413 578 m 0
 414 590 428 602 440 602 c 0
 453 602 462 590 461 577 c 0
 460 565 445 553 433 553 c 0
 420 553 412 565 413 578 c 0
219 578 m 0
 220 590 234 602 246 602 c 0
 259 602 268 590 267 577 c 0
 266 565 251 553 239 553 c 0
 226 553 218 565 219 578 c 0
EndSplineSet
EndChar

StartChar: ugrave
Encoding: 249 249 238
Width: 474
VWidth: 0
Flags: HMW
LayerCount: 2
Fore
SplineSet
338 0 m 1
 417 460 l 1
 449 460 l 1
 369 0 l 1
 338 0 l 1
110 159 m 2
 101 86 115 21 197 20 c 0
 286 19 351 99 370 179 c 1
 385 179 l 1
 365 81 290 -11 188 -10 c 0
 91 -10 68 67 79 156 c 1
 131 460 l 1
 162 460 l 1
 110 159 l 2
189 698 m 1
 219 715 l 1
 352 555 l 1
 334 543 l 1
 189 698 l 1
EndSplineSet
EndChar

StartChar: uacute
Encoding: 250 250 239
Width: 474
VWidth: 0
Flags: HMW
LayerCount: 2
Fore
SplineSet
338 0 m 1
 417 460 l 1
 449 460 l 1
 369 0 l 1
 338 0 l 1
110 159 m 2
 101 86 115 21 197 20 c 0
 286 19 351 99 370 179 c 1
 385 179 l 1
 365 81 290 -11 188 -10 c 0
 91 -10 68 67 79 156 c 1
 131 460 l 1
 162 460 l 1
 110 159 l 2
471 696 m 1
 274 544 l 1
 259 557 l 1
 445 715 l 1
 471 696 l 1
EndSplineSet
EndChar

StartChar: ucircumflex
Encoding: 251 251 240
Width: 474
VWidth: 0
Flags: HMW
LayerCount: 2
Fore
SplineSet
338 0 m 1
 417 460 l 1
 449 460 l 1
 369 0 l 1
 338 0 l 1
110 159 m 2
 101 86 115 21 197 20 c 0
 286 19 351 99 370 179 c 1
 385 179 l 1
 365 81 290 -11 188 -10 c 0
 91 -10 68 67 79 156 c 1
 131 460 l 1
 162 460 l 1
 110 159 l 2
326 665 m 1
 168 544 l 1
 151 561 l 1
 330 700 l 1
 462 560 l 1
 440 543 l 1
 326 665 l 1
EndSplineSet
EndChar

StartChar: udieresis
Encoding: 252 252 241
Width: 474
VWidth: 0
Flags: HMW
LayerCount: 2
Fore
SplineSet
338 0 m 1
 417 460 l 1
 449 460 l 1
 369 0 l 1
 338 0 l 1
110 159 m 2
 101 86 115 21 197 20 c 0
 286 19 351 99 370 179 c 1
 385 179 l 1
 365 81 290 -11 188 -10 c 0
 91 -10 68 67 79 156 c 1
 131 460 l 1
 162 460 l 1
 110 159 l 2
368 575 m 0
 369 587 384 599 396 599 c 0
 409 598 417 587 416 574 c 0
 415 562 401 550 389 550 c 0
 376 550 367 562 368 575 c 0
201 575 m 0
 202 587 217 599 229 599 c 0
 242 598 250 587 249 574 c 0
 248 562 234 550 222 550 c 0
 209 550 200 562 201 575 c 0
EndSplineSet
EndChar

StartChar: yacute
Encoding: 253 253 242
Width: 416
VWidth: 0
Flags: HMW
LayerCount: 2
Fore
SplineSet
463 460 m 1
 54 -220 l 1
 19 -219 l 1
 173 35 l 1
 58 460 l 1
 95 460 l 1
 201 44 l 1
 183 46 l 1
 428 460 l 1
 463 460 l 1
443 690 m 1
 247 537 l 1
 231 550 l 1
 417 708 l 1
 443 690 l 1
EndSplineSet
EndChar

StartChar: thorn
Encoding: 254 254 243
Width: 533
VWidth: 0
Flags: HMW
LayerCount: 2
Fore
SplineSet
40 -220 m 1
 9 -220 l 1
 181 780 l 1
 212 780 l 1
 40 -220 l 1
506 230 m 0
 486 97 382 -11 254 -10 c 0
 130 -9 87 118 103 230 c 0
 121 350 209 470 333 470 c 0
 460 470 523 356 506 230 c 0
474 230 m 0
 490 340 438 441 326 440 c 0
 222 439 134 335 117 230 c 0
 103 133 149 22 252 20 c 0
 364 18 456 114 474 230 c 0
EndSplineSet
EndChar

StartChar: ydieresis
Encoding: 255 255 244
Width: 416
VWidth: 0
Flags: HMW
LayerCount: 2
Fore
SplineSet
463 460 m 1
 54 -220 l 1
 19 -219 l 1
 173 35 l 1
 58 460 l 1
 95 460 l 1
 201 44 l 1
 183 46 l 1
 428 460 l 1
 463 460 l 1
338 569 m 0
 339 581 353 593 365 593 c 0
 378 593 387 581 386 568 c 0
 385 556 370 544 358 544 c 0
 345 545 337 556 338 569 c 0
171 569 m 0
 172 581 186 593 198 593 c 0
 211 593 220 581 219 568 c 0
 218 556 203 544 191 544 c 0
 178 545 170 556 171 569 c 0
EndSplineSet
EndChar

StartChar: Amacron
Encoding: 256 256 245
Width: 599
VWidth: 0
Flags: HMW
LayerCount: 2
Fore
SplineSet
145 253 m 1
 159 284 l 1
 484 284 l 1
 488 253 l 1
 145 253 l 1
384 643 m 1
 175 273 l 1
 171 265 l 1
 21 0 l 1
 -17 0 l 1
 396 722 l 1
 561 0 l 1
 525 0 l 1
 468 263 l 1
 466 271 l 1
 384 643 l 1
239 795 m 1
 244 825 l 1
 584 825 l 1
 579 795 l 1
 239 795 l 1
EndSplineSet
EndChar

StartChar: amacron
Encoding: 257 257 246
Width: 533
VWidth: 0
Flags: HMW
LayerCount: 2
Fore
SplineSet
481 460 m 1
 511 460 l 1
 431 0 l 1
 403 0 l 1
 481 460 l 1
52 230 m 0
 71 363 176 471 304 470 c 0
 428 469 471 342 455 230 c 0
 437 110 348 -10 224 -10 c 0
 97 -10 35 104 52 230 c 0
84 230 m 0
 68 120 120 19 232 20 c 0
 336 21 424 125 441 230 c 0
 455 327 409 438 306 440 c 0
 194 442 102 346 84 230 c 0
151 547 m 1
 156 577 l 1
 496 577 l 1
 491 547 l 1
 151 547 l 1
EndSplineSet
Substitution2: "alt a" amacron.alt
EndChar

StartChar: breve
Encoding: 728 728 247
Width: 529
VWidth: 0
Flags: HMW
LayerCount: 2
Fore
SplineSet
225 850 m 1
 253 850 l 1
 250 792 283 737 360 737 c 0
 440 737 487 793 504 850 c 1
 533 849 l 1
 514 777 455 710 358 710 c 0
 262 710 220 777 225 850 c 1
EndSplineSet
EndChar

StartChar: Abreve
Encoding: 258 258 248
Width: 599
VWidth: 0
Flags: HMW
LayerCount: 2
Fore
SplineSet
145 253 m 1
 159 284 l 1
 484 284 l 1
 488 253 l 1
 145 253 l 1
384 643 m 1
 175 273 l 1
 171 265 l 1
 21 0 l 1
 -17 0 l 1
 396 722 l 1
 561 0 l 1
 525 0 l 1
 468 263 l 1
 466 271 l 1
 384 643 l 1
278 928 m 1
 306 928 l 1
 301 871 334 815 411 815 c 0
 491 815 539 871 557 927 c 1
 585 927 l 1
 565 855 506 789 409 789 c 0
 313 789 271 855 278 928 c 1
EndSplineSet
EndChar

StartChar: abreve
Encoding: 259 259 249
Width: 533
VWidth: 0
Flags: HMW
LayerCount: 2
Fore
SplineSet
481 460 m 1
 511 460 l 1
 431 0 l 1
 403 0 l 1
 481 460 l 1
52 230 m 0
 71 363 176 471 304 470 c 0
 428 469 471 342 455 230 c 0
 437 110 348 -10 224 -10 c 0
 97 -10 35 104 52 230 c 0
84 230 m 0
 68 120 120 19 232 20 c 0
 336 21 424 125 441 230 c 0
 455 327 409 438 306 440 c 0
 194 442 102 346 84 230 c 0
182 684 m 1
 210 684 l 1
 206 627 238 571 315 571 c 0
 395 571 444 627 461 683 c 1
 490 683 l 1
 471 611 410 544 313 544 c 0
 217 544 176 611 182 684 c 1
EndSplineSet
Substitution2: "alt a" abreve.alt
EndChar

StartChar: Aogonek
Encoding: 260 260 250
Width: 599
VWidth: 0
Flags: HMW
LayerCount: 2
Fore
SplineSet
147 253 m 1
 160 284 l 1
 484 284 l 1
 488 253 l 1
 147 253 l 1
384 643 m 1
 175 273 l 1
 171 265 l 1
 21 0 l 1
 -17 0 l 1
 396 722 l 1
 561 0 l 1
 525 0 l 1
 468 263 l 1
 466 271 l 1
 384 643 l 1
558 -160 m 1
 570 -181 l 1
 547 -201 511 -220 471 -220 c 0
 410 -220 371 -186 379 -133 c 0
 390 -61 478 -19 546 14 c 1
 562 0 l 1
 503 -28 420 -68 411 -128 c 0
 406 -168 436 -190 476 -191 c 0
 509 -192 538 -175 558 -160 c 1
EndSplineSet
EndChar

StartChar: aogonek
Encoding: 261 261 251
Width: 533
VWidth: 0
Flags: HMW
LayerCount: 2
Fore
SplineSet
481 460 m 1
 511 460 l 1
 431 0 l 1
 403 0 l 1
 481 460 l 1
52 230 m 0
 71 363 176 471 304 470 c 0
 428 469 471 342 455 230 c 0
 437 110 348 -10 224 -10 c 0
 97 -10 35 104 52 230 c 0
84 230 m 0
 68 120 120 19 232 20 c 0
 336 21 424 125 441 230 c 0
 455 327 409 438 306 440 c 0
 194 442 102 346 84 230 c 0
429 -160 m 1
 440 -181 l 1
 417 -201 382 -220 342 -220 c 0
 281 -220 241 -186 249 -133 c 0
 260 -61 349 -19 417 14 c 1
 433 0 l 1
 374 -28 290 -68 281 -128 c 0
 276 -168 307 -190 347 -191 c 0
 380 -192 409 -175 429 -160 c 1
EndSplineSet
Substitution2: "alt a" aogonek.alt
EndChar

StartChar: Cacute
Encoding: 262 262 252
Width: 664
VWidth: 0
Flags: HMW
LayerCount: 2
Fore
SplineSet
113 350 m 0
 88 184 173 28 348 26 c 0
 443 25 519 61 583 115 c 1
 576 70 l 1
 510 21 439 -8 345 -8 c 0
 149 -7 51 164 78 350 c 0
 108 546 266 708 464 709 c 0
 553 709 616 683 671 630 c 1
 663 585 l 1
 614 644 546 674 461 674 c 0
 284 673 141 527 113 350 c 0
633 922 m 1
 436 770 l 1
 421 782 l 1
 607 940 l 1
 633 922 l 1
EndSplineSet
EndChar

StartChar: cacute
Encoding: 263 263 253
Width: 469
VWidth: 0
Flags: HMW
LayerCount: 2
Fore
SplineSet
79 230 m 0
 62 121 124 21 239 20 c 0
 308 20 367 54 403 87 c 1
 397 48 l 1
 359 17 301 -10 236 -10 c 0
 103 -10 29 104 47 230 c 0
 67 362 180 470 315 470 c 0
 376 470 429 445 459 412 c 1
 453 372 l 1
 428 409 377 440 313 440 c 0
 196 440 98 345 79 230 c 0
491 690 m 1
 295 538 l 1
 279 551 l 1
 466 709 l 1
 491 690 l 1
EndSplineSet
EndChar

StartChar: Ccircumflex
Encoding: 264 264 254
Width: 664
VWidth: 0
Flags: HMW
LayerCount: 2
Fore
SplineSet
113 350 m 0
 88 184 173 28 348 26 c 0
 443 25 519 61 583 115 c 1
 576 70 l 1
 510 21 439 -8 345 -8 c 0
 149 -7 51 164 78 350 c 0
 108 546 266 708 464 709 c 0
 553 709 616 683 671 630 c 1
 663 585 l 1
 614 644 546 674 461 674 c 0
 284 673 141 527 113 350 c 0
498 891 m 1
 340 769 l 1
 323 787 l 1
 502 925 l 1
 634 785 l 1
 613 769 l 1
 498 891 l 1
EndSplineSet
EndChar

StartChar: ccircumflex
Encoding: 265 265 255
Width: 469
VWidth: 0
Flags: HMW
LayerCount: 2
Fore
SplineSet
79 230 m 0
 62 121 124 21 239 20 c 0
 308 20 367 54 403 87 c 1
 397 48 l 1
 359 17 301 -10 236 -10 c 0
 103 -10 29 104 47 230 c 0
 67 362 180 470 315 470 c 0
 376 470 429 445 459 412 c 1
 453 372 l 1
 428 409 377 440 313 440 c 0
 196 440 98 345 79 230 c 0
349 652 m 1
 191 531 l 1
 174 548 l 1
 353 687 l 1
 485 547 l 1
 464 530 l 1
 349 652 l 1
EndSplineSet
EndChar

StartChar: Cdotaccent
Encoding: 266 266 256
Width: 664
VWidth: 0
Flags: HMW
LayerCount: 2
Fore
SplineSet
113 350 m 0
 88 184 173 28 348 26 c 0
 443 25 519 61 583 115 c 1
 576 70 l 1
 510 21 439 -8 345 -8 c 0
 149 -7 51 164 78 350 c 0
 108 546 266 708 464 709 c 0
 553 709 616 683 671 630 c 1
 663 585 l 1
 614 644 546 674 461 674 c 0
 284 673 141 527 113 350 c 0
457 800 m 0
 458 812 473 824 485 824 c 0
 498 824 506 813 505 800 c 0
 504 788 489 776 477 776 c 0
 464 776 456 787 457 800 c 0
EndSplineSet
EndChar

StartChar: cdotaccent
Encoding: 267 267 257
Width: 469
VWidth: 0
Flags: HMW
LayerCount: 2
Fore
SplineSet
79 230 m 0
 62 121 124 21 239 20 c 0
 308 20 367 54 403 87 c 1
 397 48 l 1
 359 17 301 -10 236 -10 c 0
 103 -10 29 104 47 230 c 0
 67 362 180 470 315 470 c 0
 376 470 429 445 459 412 c 1
 453 372 l 1
 428 409 377 440 313 440 c 0
 196 440 98 345 79 230 c 0
308 562 m 0
 309 574 324 586 336 586 c 0
 349 586 357 574 356 561 c 0
 355 549 340 537 328 537 c 0
 315 537 307 549 308 562 c 0
EndSplineSet
EndChar

StartChar: Ccaron
Encoding: 268 268 258
Width: 664
VWidth: 0
Flags: HMW
LayerCount: 2
Fore
SplineSet
113 350 m 0
 88 184 173 28 348 26 c 0
 443 25 519 61 583 115 c 1
 576 70 l 1
 510 21 439 -8 345 -8 c 0
 149 -7 51 164 78 350 c 0
 108 546 266 708 464 709 c 0
 553 709 616 683 671 630 c 1
 663 585 l 1
 614 644 546 674 461 674 c 0
 284 673 141 527 113 350 c 0
482 810 m 1
 639 932 l 1
 657 914 l 1
 478 776 l 1
 345 916 l 1
 368 933 l 1
 482 810 l 1
EndSplineSet
EndChar

StartChar: ccaron
Encoding: 269 269 259
Width: 469
VWidth: 0
Flags: HMW
LayerCount: 2
Fore
SplineSet
79 230 m 0
 62 121 124 21 239 20 c 0
 308 20 367 54 403 87 c 1
 397 48 l 1
 359 17 301 -10 236 -10 c 0
 103 -10 29 104 47 230 c 0
 67 362 180 470 315 470 c 0
 376 470 429 445 459 412 c 1
 453 372 l 1
 428 409 377 440 313 440 c 0
 196 440 98 345 79 230 c 0
334 579 m 1
 491 701 l 1
 509 683 l 1
 330 544 l 1
 197 684 l 1
 220 702 l 1
 334 579 l 1
EndSplineSet
EndChar

StartChar: Dcaron
Encoding: 270 270 260
Width: 629
VWidth: 0
Flags: HMW
LayerCount: 2
Fore
SplineSet
176 700 m 1
 210 700 l 1
 90 0 l 1
 57 0 l 1
 176 700 l 1
229 0 m 1
 74 0 l 1
 80 34 l 1
 232 34 l 1
 418 37 555 169 584 350 c 0
 611 522 525 662 342 666 c 1
 188 666 l 1
 194 700 l 1
 345 700 l 1
 546 696 645 540 617 350 c 0
 586 151 433 3 229 0 c 1
424 824 m 1
 581 946 l 1
 600 928 l 1
 421 790 l 1
 288 930 l 1
 310 947 l 1
 424 824 l 1
EndSplineSet
EndChar

StartChar: dcaron
Encoding: 271 271 261
Width: 553
VWidth: 0
Flags: HMW
LayerCount: 2
Fore
SplineSet
534 780 m 1
 566 780 l 1
 431 0 l 1
 401 0 l 1
 534 780 l 1
52 230 m 0
 71 363 176 471 304 470 c 0
 428 469 471 342 455 230 c 0
 437 110 348 -10 224 -10 c 0
 97 -10 35 104 52 230 c 0
84 230 m 0
 68 120 120 19 232 20 c 0
 336 21 424 125 441 230 c 0
 455 327 409 438 306 440 c 0
 194 442 102 346 84 230 c 0
729 768 m 1
 759 755 l 1
 608 507 l 1
 587 515 l 1
 729 768 l 1
EndSplineSet
EndChar

StartChar: Dcroat
Encoding: 272 272 262
Width: 659
VWidth: 0
Flags: HMW
LayerCount: 2
Fore
SplineSet
35 334 m 1
 40 364 l 1
 331 364 l 1
 327 334 l 1
 35 334 l 1
176 700 m 1
 210 700 l 1
 90 0 l 1
 57 0 l 1
 176 700 l 1
229 0 m 1
 74 0 l 1
 80 34 l 1
 232 34 l 1
 417 37 555 169 584 350 c 0
 611 522 525 662 342 666 c 1
 188 666 l 1
 194 700 l 1
 345 700 l 1
 546 696 645 540 617 350 c 0
 586 151 433 3 229 0 c 1
EndSplineSet
EndChar

StartChar: dcroat
Encoding: 273 273 263
Width: 533
VWidth: 0
Flags: HMW
LayerCount: 2
Fore
SplineSet
368 635 m 1
 372 665 l 1
 664 665 l 1
 659 635 l 1
 368 635 l 1
534 780 m 1
 566 780 l 1
 431 0 l 1
 401 0 l 1
 534 780 l 1
52 230 m 0
 71 364 176 471 304 470 c 0
 425 469 471 345 455 230 c 0
 437 107 345 -10 224 -10 c 0
 97 -10 34 103 52 230 c 0
84 230 m 0
 68 120 121 19 232 20 c 0
 338 21 424 128 441 230 c 0
 455 324 411 438 306 440 c 0
 195 442 102 346 84 230 c 0
EndSplineSet
EndChar

StartChar: Emacron
Encoding: 274 274 264
Width: 505
VWidth: 0
Flags: HMW
LayerCount: 2
Fore
SplineSet
73 0 m 1
 78 31 l 1
 411 31 l 1
 406 0 l 1
 73 0 l 1
187 669 m 1
 192 700 l 1
 525 700 l 1
 520 669 l 1
 187 669 l 1
136 371 m 1
 141 402 l 1
 455 402 l 1
 449 371 l 1
 136 371 l 1
176 700 m 1
 210 700 l 1
 90 0 l 1
 57 0 l 1
 176 700 l 1
214 815 m 1
 219 845 l 1
 559 845 l 1
 554 815 l 1
 214 815 l 1
EndSplineSet
EndChar

StartChar: emacron
Encoding: 275 275 265
Width: 490
VWidth: 0
Flags: HMW
LayerCount: 2
Fore
SplineSet
76 223 m 1
 80 250 l 1
 436 250 l 1
 452 344 404 440 301 441 c 0
 196 442 108 351 90 241 c 1
 88 232 l 1
 76 126 120 21 229 20 c 0
 319 19 374 72 417 123 c 1
 440 106 l 1
 391 48 330 -11 223 -10 c 0
 99 -9 42 110 57 231 c 0
 61 255 66 277 75 299 c 0
 112 393 198 470 303 470 c 0
 420 469 484 364 470 248 c 0
 469 240 466 231 464 223 c 1
 76 223 l 1
141 530 m 1
 146 560 l 1
 485 560 l 1
 481 530 l 1
 141 530 l 1
EndSplineSet
EndChar

StartChar: Ebreve
Encoding: 276 276 266
Width: 505
VWidth: 0
Flags: HMW
LayerCount: 2
Fore
SplineSet
73 0 m 1
 78 31 l 1
 411 31 l 1
 406 0 l 1
 73 0 l 1
187 669 m 1
 192 700 l 1
 525 700 l 1
 520 669 l 1
 187 669 l 1
136 371 m 1
 141 402 l 1
 455 402 l 1
 449 371 l 1
 136 371 l 1
176 700 m 1
 210 700 l 1
 90 0 l 1
 57 0 l 1
 176 700 l 1
239 909 m 1
 267 908 l 1
 262 851 295 796 372 796 c 0
 452 796 500 852 518 908 c 1
 547 908 l 1
 527 836 467 769 370 769 c 0
 274 769 232 836 239 909 c 1
EndSplineSet
EndChar

StartChar: ebreve
Encoding: 277 277 267
Width: 490
VWidth: 0
Flags: HMW
LayerCount: 2
Fore
SplineSet
76 223 m 1
 80 250 l 1
 436 250 l 1
 452 344 404 440 301 441 c 0
 196 442 108 351 90 241 c 1
 88 232 l 1
 76 126 120 21 229 20 c 0
 319 19 374 72 417 123 c 1
 440 106 l 1
 391 48 330 -11 223 -10 c 0
 99 -9 42 110 57 231 c 0
 61 255 66 277 75 299 c 0
 112 393 198 470 303 470 c 0
 420 469 484 364 470 248 c 0
 469 240 466 231 464 223 c 1
 76 223 l 1
172 669 m 1
 200 669 l 1
 196 611 230 557 307 557 c 0
 387 557 434 612 451 669 c 1
 480 668 l 1
 461 596 402 530 305 530 c 0
 209 530 166 596 172 669 c 1
EndSplineSet
EndChar

StartChar: Edotaccent
Encoding: 278 278 268
Width: 505
VWidth: 0
Flags: HMW
LayerCount: 2
Fore
SplineSet
73 0 m 1
 78 31 l 1
 411 31 l 1
 406 0 l 1
 73 0 l 1
187 669 m 1
 192 700 l 1
 525 700 l 1
 520 669 l 1
 187 669 l 1
136 371 m 1
 141 402 l 1
 455 402 l 1
 449 371 l 1
 136 371 l 1
176 700 m 1
 210 700 l 1
 90 0 l 1
 57 0 l 1
 176 700 l 1
343 793 m 0
 344 805 358 817 370 817 c 0
 383 817 392 806 391 793 c 0
 390 781 375 769 363 769 c 0
 350 769 342 780 343 793 c 0
EndSplineSet
EndChar

StartChar: edotaccent
Encoding: 279 279 269
Width: 490
VWidth: 0
Flags: HMW
LayerCount: 2
Fore
SplineSet
76 223 m 1
 80 250 l 1
 436 250 l 1
 452 344 404 440 301 441 c 0
 196 442 108 351 90 241 c 1
 88 232 l 1
 76 126 120 21 229 20 c 0
 319 19 374 72 417 123 c 1
 440 106 l 1
 391 48 330 -11 223 -10 c 0
 99 -9 42 110 57 231 c 0
 61 255 66 277 75 299 c 0
 112 393 198 470 303 470 c 0
 420 469 484 364 470 248 c 0
 469 240 466 231 464 223 c 1
 76 223 l 1
290 554 m 0
 291 566 306 578 318 578 c 0
 331 578 339 567 338 554 c 0
 337 542 323 530 311 530 c 0
 298 530 289 541 290 554 c 0
EndSplineSet
EndChar

StartChar: Eogonek
Encoding: 280 280 270
Width: 505
VWidth: 0
Flags: HMW
LayerCount: 2
Fore
SplineSet
73 0 m 1
 78 31 l 1
 411 31 l 1
 406 0 l 1
 73 0 l 1
187 669 m 1
 192 700 l 1
 525 700 l 1
 520 669 l 1
 187 669 l 1
136 371 m 1
 141 402 l 1
 455 402 l 1
 449 371 l 1
 136 371 l 1
176 700 m 1
 210 700 l 1
 90 0 l 1
 57 0 l 1
 176 700 l 1
366 -160 m 1
 378 -181 l 1
 355 -201 319 -220 279 -220 c 0
 218 -220 179 -186 187 -133 c 0
 198 -61 286 -19 354 14 c 1
 370 0 l 1
 311 -28 228 -68 219 -128 c 0
 214 -168 244 -190 284 -191 c 0
 317 -192 346 -175 366 -160 c 1
EndSplineSet
EndChar

StartChar: eogonek
Encoding: 281 281 271
Width: 490
VWidth: 0
Flags: HMW
LayerCount: 2
Fore
SplineSet
76 223 m 1
 80 250 l 1
 436 250 l 1
 452 344 404 440 301 441 c 0
 196 442 108 351 90 241 c 1
 88 232 l 1
 76 126 120 21 229 20 c 0
 319 19 374 72 417 123 c 1
 440 106 l 1
 391 48 330 -11 223 -10 c 0
 99 -9 42 110 57 231 c 0
 61 255 66 277 75 299 c 0
 112 393 198 470 303 470 c 0
 420 469 484 364 470 248 c 0
 469 240 466 231 464 223 c 1
 76 223 l 1
238 -163 m 1
 250 -184 l 1
 227 -204 192 -222 152 -222 c 0
 91 -222 52 -189 59 -136 c 0
 69 -64 156 -26 223 7 c 1
 240 -7 l 1
 181 -35 98 -70 90 -131 c 0
 86 -171 116 -193 156 -194 c 0
 189 -195 218 -179 238 -163 c 1
EndSplineSet
EndChar

StartChar: Ecaron
Encoding: 282 282 272
Width: 505
VWidth: 0
Flags: HMW
LayerCount: 2
Fore
SplineSet
73 0 m 1
 78 31 l 1
 411 31 l 1
 406 0 l 1
 73 0 l 1
187 669 m 1
 192 700 l 1
 525 700 l 1
 520 669 l 1
 187 669 l 1
136 371 m 1
 141 402 l 1
 455 402 l 1
 449 371 l 1
 136 371 l 1
176 700 m 1
 210 700 l 1
 90 0 l 1
 57 0 l 1
 176 700 l 1
367 803 m 1
 524 926 l 1
 542 907 l 1
 363 769 l 1
 230 909 l 1
 253 926 l 1
 367 803 l 1
EndSplineSet
EndChar

StartChar: ecaron
Encoding: 283 283 273
Width: 490
VWidth: 0
Flags: HMW
LayerCount: 2
Fore
SplineSet
76 223 m 1
 80 250 l 1
 436 250 l 1
 452 344 404 440 301 441 c 0
 196 442 108 351 90 241 c 1
 88 232 l 1
 76 126 120 21 229 20 c 0
 319 19 374 72 417 123 c 1
 440 106 l 1
 391 48 330 -11 223 -10 c 0
 99 -9 42 110 57 231 c 0
 61 255 66 277 75 299 c 0
 112 393 198 470 303 470 c 0
 420 469 484 364 470 248 c 0
 469 240 466 231 464 223 c 1
 76 223 l 1
307 564 m 1
 464 686 l 1
 482 668 l 1
 303 530 l 1
 170 670 l 1
 193 687 l 1
 307 564 l 1
EndSplineSet
EndChar

StartChar: Gcircumflex
Encoding: 284 284 274
Width: 745
VWidth: 0
Flags: HMW
LayerCount: 2
Fore
SplineSet
429 313 m 1
 435 345 l 1
 727 344 l 1
 692 163 555 -8 353 -8 c 0
 155 -8 51 163 78 350 c 0
 109 547 271 709 472 709 c 0
 589 709 673 650 722 557 c 1
 695 537 l 1
 656 621 575 675 469 675 c 0
 287 675 142 529 113 350 c 0
 88 183 176 25 356 25 c 0
 528 25 647 164 687 313 c 1
 429 313 l 1
506 891 m 1
 348 769 l 1
 331 787 l 1
 510 925 l 1
 643 785 l 1
 621 769 l 1
 506 891 l 1
EndSplineSet
EndChar

StartChar: gcircumflex
Encoding: 285 285 275
Width: 533
VWidth: 0
Flags: HMW
LayerCount: 2
Fore
SplineSet
21 -30 m 1
 52 -30 l 1
 42 -122 86 -199 188 -200 c 0
 295 -201 384 -112 403 10 c 1
 480 460 l 1
 511 460 l 1
 434 10 l 2
 412 -129 312 -230 186 -230 c 0
 66 -230 9 -140 21 -30 c 1
52 230 m 0
 71 363 176 471 304 470 c 0
 428 469 471 342 455 230 c 0
 437 110 348 -10 224 -10 c 0
 97 -10 35 104 52 230 c 0
84 230 m 0
 68 120 120 20 232 20 c 0
 337 20 424 126 441 233 c 0
 455 327 408 438 306 440 c 0
 194 442 102 346 84 230 c 0
338 652 m 1
 180 531 l 1
 162 548 l 1
 341 687 l 1
 474 547 l 1
 452 530 l 1
 338 652 l 1
EndSplineSet
EndChar

StartChar: Gbreve
Encoding: 286 286 276
Width: 745
VWidth: 0
Flags: HMW
LayerCount: 2
Fore
SplineSet
429 313 m 1
 435 345 l 1
 727 344 l 1
 692 163 555 -8 353 -8 c 0
 155 -8 51 163 78 350 c 0
 109 547 271 709 472 709 c 0
 589 709 673 650 722 557 c 1
 695 537 l 1
 656 621 575 675 469 675 c 0
 287 675 142 529 113 350 c 0
 88 183 176 25 356 25 c 0
 528 25 647 164 687 313 c 1
 429 313 l 1
354 909 m 1
 382 908 l 1
 377 851 410 796 487 796 c 0
 567 796 616 852 634 908 c 1
 662 908 l 1
 642 836 582 769 485 769 c 0
 389 769 347 836 354 909 c 1
EndSplineSet
EndChar

StartChar: gbreve
Encoding: 287 287 277
Width: 533
VWidth: 0
Flags: HMW
LayerCount: 2
Fore
SplineSet
21 -30 m 1
 52 -30 l 1
 42 -122 86 -199 188 -200 c 0
 295 -201 384 -112 403 10 c 1
 480 460 l 1
 511 460 l 1
 434 10 l 2
 412 -129 312 -230 186 -230 c 0
 66 -230 9 -140 21 -30 c 1
52 230 m 0
 71 363 176 471 304 470 c 0
 428 469 471 342 455 230 c 0
 437 110 348 -10 224 -10 c 0
 97 -10 35 104 52 230 c 0
84 230 m 0
 68 120 120 20 232 20 c 0
 337 20 424 126 441 233 c 0
 455 327 408 438 306 440 c 0
 194 442 102 346 84 230 c 0
186 670 m 1
 213 670 l 1
 208 613 241 557 318 557 c 0
 398 557 447 613 465 669 c 1
 493 669 l 1
 473 597 413 530 316 530 c 0
 220 530 179 597 186 670 c 1
EndSplineSet
EndChar

StartChar: Gdotaccent
Encoding: 288 288 278
Width: 745
VWidth: 0
Flags: HMW
LayerCount: 2
Fore
SplineSet
429 313 m 1
 435 345 l 1
 727 344 l 1
 692 163 555 -8 353 -8 c 0
 155 -8 51 163 78 350 c 0
 109 547 271 709 472 709 c 0
 589 709 673 650 722 557 c 1
 695 537 l 1
 656 621 575 675 469 675 c 0
 287 675 142 529 113 350 c 0
 88 183 176 25 356 25 c 0
 528 25 647 164 687 313 c 1
 429 313 l 1
464 793 m 0
 465 805 480 817 492 817 c 0
 505 817 513 806 512 793 c 0
 511 781 496 769 484 769 c 0
 471 769 463 780 464 793 c 0
EndSplineSet
EndChar

StartChar: gdotaccent
Encoding: 289 289 279
Width: 533
VWidth: 0
Flags: HMW
LayerCount: 2
Fore
SplineSet
21 -30 m 1
 52 -30 l 1
 42 -122 86 -199 188 -200 c 0
 295 -201 384 -112 403 10 c 1
 480 460 l 1
 511 460 l 1
 434 10 l 2
 412 -129 312 -230 186 -230 c 0
 66 -230 9 -140 21 -30 c 1
52 230 m 0
 71 363 176 471 304 470 c 0
 428 469 471 342 455 230 c 0
 437 110 348 -10 224 -10 c 0
 97 -10 35 104 52 230 c 0
84 230 m 0
 68 120 120 20 232 20 c 0
 337 20 424 126 441 233 c 0
 455 327 408 438 306 440 c 0
 194 442 102 346 84 230 c 0
304 567 m 0
 305 579 319 591 331 591 c 0
 344 591 352 579 351 566 c 0
 350 554 336 542 324 542 c 0
 311 542 303 554 304 567 c 0
EndSplineSet
EndChar

StartChar: uni0122
Encoding: 290 290 280
Width: 745
VWidth: 0
Flags: HMW
LayerCount: 2
Fore
SplineSet
429 313 m 1
 435 345 l 1
 727 344 l 1
 692 163 555 -8 353 -8 c 0
 155 -8 51 163 78 350 c 0
 109 547 271 709 472 709 c 0
 589 709 673 650 722 557 c 1
 695 537 l 1
 656 621 575 675 469 675 c 0
 287 675 142 529 113 350 c 0
 88 183 176 25 356 25 c 0
 528 25 647 164 687 313 c 1
 429 313 l 1
374 -70 m 1
 404 -83 l 1
 253 -330 l 1
 232 -322 l 1
 374 -70 l 1
EndSplineSet
EndChar

StartChar: Hcircumflex
Encoding: 292 292 281
Width: 646
VWidth: 0
Flags: HMW
LayerCount: 2
Fore
SplineSet
136 366 m 1
 141 397 l 1
 594 397 l 1
 589 366 l 1
 136 366 l 1
623 700 m 1
 657 700 l 1
 536 0 l 1
 504 0 l 1
 623 700 l 1
176 700 m 1
 210 700 l 1
 90 0 l 1
 57 0 l 1
 176 700 l 1
451 891 m 1
 292 769 l 1
 275 787 l 1
 454 925 l 1
 587 785 l 1
 565 769 l 1
 451 891 l 1
EndSplineSet
EndChar

StartChar: hcircumflex
Encoding: 293 293 282
Width: 474
VWidth: 0
Flags: HMW
LayerCount: 2
Fore
SplineSet
217 780 m 1
 83 0 l 1
 51 0 l 1
 186 780 l 1
 217 780 l 1
391 308 m 2
 400 377 383 439 303 440 c 0
 214 441 149 361 130 281 c 1
 116 281 l 1
 136 379 211 470 312 470 c 0
 406 470 434 397 423 311 c 1
 369 0 l 1
 338 0 l 1
 391 308 l 2
241 962 m 1
 82 841 l 1
 65 858 l 1
 244 997 l 1
 377 857 l 1
 355 840 l 1
 241 962 l 1
EndSplineSet
EndChar

StartChar: Itilde
Encoding: 296 296 283
Width: 193
VWidth: 0
Flags: HMW
LayerCount: 2
Fore
SplineSet
173 700 m 1
 206 700 l 1
 85 0 l 1
 53 0 l 1
 173 700 l 1
83 824 m 1
 96 856 124 888 167 888 c 0
 216 888 232 841 279 842 c 0
 306 843 324 865 342 890 c 1
 361 874 l 1
 341 843 312 815 275 816 c 0
 228 816 208 862 166 862 c 0
 129 862 112 835 104 812 c 1
 83 824 l 1
EndSplineSet
EndChar

StartChar: itilde
Encoding: 297 297 284
Width: 204
VWidth: 0
Flags: HMW
LayerCount: 2
Fore
SplineSet
139 460 m 1
 170 460 l 1
 90 0 l 1
 60 0 l 1
 139 460 l 1
49 584 m 1
 62 616 90 648 133 648 c 0
 182 648 198 601 245 602 c 0
 272 603 290 625 308 650 c 1
 326 634 l 1
 306 603 278 575 241 576 c 0
 194 576 174 622 132 622 c 0
 95 622 78 595 70 572 c 1
 49 584 l 1
EndSplineSet
EndChar

StartChar: Imacron
Encoding: 298 298 285
Width: 193
VWidth: 0
Flags: HMW
LayerCount: 2
Fore
SplineSet
173 700 m 1
 206 700 l 1
 85 0 l 1
 53 0 l 1
 173 700 l 1
62 815 m 1
 66 845 l 1
 407 845 l 1
 402 815 l 1
 62 815 l 1
EndSplineSet
EndChar

StartChar: imacron
Encoding: 299 299 286
Width: 204
VWidth: 0
Flags: HMW
LayerCount: 2
Fore
SplineSet
139 460 m 1
 170 460 l 1
 90 0 l 1
 60 0 l 1
 139 460 l 1
27 575 m 1
 32 605 l 1
 372 605 l 1
 368 575 l 1
 27 575 l 1
EndSplineSet
EndChar

StartChar: Ibreve
Encoding: 300 300 287
Width: 193
VWidth: 0
Flags: HMW
LayerCount: 2
Fore
SplineSet
173 700 m 1
 206 700 l 1
 85 0 l 1
 53 0 l 1
 173 700 l 1
71 910 m 1
 98 910 l 1
 93 853 126 797 203 797 c 0
 283 797 332 853 350 909 c 1
 378 909 l 1
 358 837 298 770 201 770 c 0
 105 770 64 837 71 910 c 1
EndSplineSet
EndChar

StartChar: ibreve
Encoding: 301 301 288
Width: 204
VWidth: 0
Flags: HMW
LayerCount: 2
Fore
SplineSet
139 460 m 1
 170 460 l 1
 90 0 l 1
 60 0 l 1
 139 460 l 1
36 670 m 1
 64 670 l 1
 59 613 92 557 169 557 c 0
 249 557 297 613 315 669 c 1
 344 669 l 1
 324 597 264 530 167 530 c 0
 71 530 29 597 36 670 c 1
EndSplineSet
EndChar

StartChar: Iogonek
Encoding: 302 302 289
Width: 193
VWidth: 0
Flags: HMW
LayerCount: 2
Fore
SplineSet
173 700 m 1
 206 700 l 1
 85 0 l 1
 53 0 l 1
 173 700 l 1
83 -160 m 1
 94 -181 l 1
 71 -201 36 -220 -4 -220 c 0
 -65 -220 -105 -186 -97 -133 c 0
 -86 -61 3 -19 71 14 c 1
 86 0 l 1
 27 -28 -56 -68 -65 -128 c 0
 -70 -168 -39 -190 1 -191 c 0
 34 -192 63 -175 83 -160 c 1
EndSplineSet
EndChar

StartChar: iogonek
Encoding: 303 303 290
Width: 204
VWidth: 0
Flags: HMW
LayerCount: 2
Fore
SplineSet
169 682 m 0
 170 694 182 705 195 705 c 0
 208 705 216 693 215 681 c 0
 214 669 201 658 188 658 c 0
 175 658 168 670 169 682 c 0
139 460 m 1
 170 460 l 1
 90 0 l 1
 60 0 l 1
 139 460 l 1
88 -160 m 1
 99 -181 l 1
 76 -201 41 -220 1 -220 c 0
 -60 -220 -100 -186 -92 -133 c 0
 -81 -61 8 -19 76 14 c 1
 91 0 l 1
 32 -28 -51 -68 -60 -128 c 0
 -65 -168 -34 -190 6 -191 c 0
 39 -192 68 -175 88 -160 c 1
EndSplineSet
EndChar

StartChar: Idotaccent
Encoding: 304 304 291
Width: 193
VWidth: 0
Flags: HMW
LayerCount: 2
Fore
SplineSet
173 700 m 1
 206 700 l 1
 85 0 l 1
 53 0 l 1
 173 700 l 1
182 798 m 0
 183 810 198 822 210 822 c 0
 223 822 231 811 230 798 c 0
 229 786 214 774 202 774 c 0
 189 774 181 785 182 798 c 0
EndSplineSet
EndChar

StartChar: uni0136
Encoding: 310 310 292
Width: 472
VWidth: 0
Flags: HMW
LayerCount: 2
Fore
SplineSet
173 700 m 1
 207 700 l 1
 86 0 l 1
 53 0 l 1
 173 700 l 1
497 699 m 1
 541 699 l 1
 181 371 l 1
 434 0 l 1
 393 0 l 1
 141 372 l 1
 497 699 l 1
267 -61 m 1
 297 -74 l 1
 147 -322 l 1
 126 -314 l 1
 267 -61 l 1
EndSplineSet
EndChar

StartChar: uni0137
Encoding: 311 311 293
Width: 380
VWidth: 0
Flags: HMW
LayerCount: 2
Fore
SplineSet
180 780 m 1
 212 780 l 1
 78 0 l 1
 47 0 l 1
 180 780 l 1
366 459 m 1
 409 459 l 1
 152 269 l 1
 347 0 l 1
 309 0 l 1
 114 271 l 1
 366 459 l 1
220 -61 m 1
 250 -74 l 1
 100 -322 l 1
 79 -314 l 1
 220 -61 l 1
EndSplineSet
EndChar

StartChar: Lacute
Encoding: 313 313 294
Width: 422
VWidth: 0
Flags: HMW
LayerCount: 2
Fore
SplineSet
177 700 m 1
 210 700 l 1
 95 31 l 1
 385 31 l 1
 380 0 l 1
 57 0 l 1
 177 700 l 1
534 922 m 1
 336 770 l 1
 322 782 l 1
 508 940 l 1
 534 922 l 1
EndSplineSet
EndChar

StartChar: lacute
Encoding: 314 314 295
Width: 188
VWidth: 0
Flags: HMW
LayerCount: 2
Fore
SplineSet
185 780 m 1
 217 780 l 1
 82 0 l 1
 52 0 l 1
 185 780 l 1
395 993 m 1
 198 841 l 1
 183 854 l 1
 369 1012 l 1
 395 993 l 1
EndSplineSet
EndChar

StartChar: uni013B
Encoding: 315 315 296
Width: 422
VWidth: 0
Flags: HMW
LayerCount: 2
Fore
SplineSet
177 700 m 1
 210 700 l 1
 95 31 l 1
 385 31 l 1
 380 0 l 1
 57 0 l 1
 177 700 l 1
214 -61 m 1
 244 -74 l 1
 94 -322 l 1
 73 -314 l 1
 214 -61 l 1
EndSplineSet
EndChar

StartChar: uni013C
Encoding: 316 316 297
Width: 188
VWidth: 0
Flags: HMW
LayerCount: 2
Fore
SplineSet
185 780 m 1
 217 780 l 1
 82 0 l 1
 52 0 l 1
 185 780 l 1
77 -61 m 1
 107 -74 l 1
 -44 -322 l 1
 -65 -314 l 1
 77 -61 l 1
EndSplineSet
EndChar

StartChar: Lcaron
Encoding: 317 317 298
Width: 422
VWidth: 0
Flags: HMW
LayerCount: 2
Fore
SplineSet
177 700 m 1
 210 700 l 1
 95 31 l 1
 385 31 l 1
 380 0 l 1
 57 0 l 1
 177 700 l 1
423 708 m 1
 454 695 l 1
 303 447 l 1
 282 455 l 1
 423 708 l 1
EndSplineSet
EndChar

StartChar: lcaron
Encoding: 318 318 299
Width: 223
VWidth: 0
Flags: HMW
LayerCount: 2
Fore
SplineSet
185 780 m 1
 217 780 l 1
 82 0 l 1
 52 0 l 1
 185 780 l 1
407 768 m 1
 437 755 l 1
 286 507 l 1
 265 515 l 1
 407 768 l 1
EndSplineSet
EndChar

StartChar: Ldot
Encoding: 319 319 300
Width: 422
VWidth: 0
Flags: HMW
LayerCount: 2
Fore
SplineSet
177 700 m 1
 210 700 l 1
 95 31 l 1
 385 31 l 1
 380 0 l 1
 57 0 l 1
 177 700 l 1
300 415 m 0
 301 427 316 439 328 439 c 0
 341 439 349 427 348 414 c 0
 347 402 333 390 321 390 c 0
 308 390 299 402 300 415 c 0
EndSplineSet
EndChar

StartChar: ldot
Encoding: 320 320 301
Width: 359
VWidth: 0
Flags: HMW
LayerCount: 2
Fore
SplineSet
185 780 m 1
 217 780 l 1
 82 0 l 1
 52 0 l 1
 185 780 l 1
260 402 m 0
 261 414 276 426 288 426 c 0
 301 426 309 414 308 401 c 0
 307 389 292 378 280 378 c 0
 267 378 259 389 260 402 c 0
EndSplineSet
EndChar

StartChar: eth
Encoding: 240 240 302
Width: 531
VWidth: 0
Flags: HMW
LayerCount: 2
Fore
SplineSet
464 223 m 0
 480 322 421 417 304 417 c 0
 200 417 107 326 90 223 c 0
 74 119 128 21 241 21 c 0
 357 21 447 115 464 223 c 0
304 700 m 1
 470 378 l 2
 491 334 503 277 495 223 c 0
 476 94 373 -10 239 -10 c 0
 106 -10 41 100 59 224 c 0
 78 340 179 443 297 443 c 0
 358 443 404 418 438 373 c 1
 436 372 l 1
 265 700 l 1
 304 700 l 1
212 558 m 1
 216 585 l 1
 487 585 l 1
 483 558 l 1
 212 558 l 1
EndSplineSet
EndChar

StartChar: racute
Encoding: 341 341 303
Width: 296
VWidth: 0
Flags: HMW
LayerCount: 2
Fore
SplineSet
162 460 m 1
 83 0 l 1
 51 0 l 1
 131 460 l 1
 162 460 l 1
314 419 m 1
 297 430 281 440 261 440 c 0
 183 442 144 355 130 281 c 1
 116 281 l 1
 132 372 182 472 270 470 c 0
 295 470 316 459 335 444 c 1
 314 419 l 1
403 683 m 1
 206 531 l 1
 191 544 l 1
 378 702 l 1
 403 683 l 1
EndSplineSet
EndChar

StartChar: rcaron
Encoding: 345 345 304
Width: 296
VWidth: 0
Flags: HMW
LayerCount: 2
Fore
SplineSet
162 460 m 1
 83 0 l 1
 51 0 l 1
 131 460 l 1
 162 460 l 1
314 419 m 1
 297 430 281 440 261 440 c 0
 183 442 144 355 130 281 c 1
 116 281 l 1
 132 372 182 472 270 470 c 0
 295 470 316 459 335 444 c 1
 314 419 l 1
250 565 m 1
 407 687 l 1
 426 669 l 1
 247 530 l 1
 114 670 l 1
 136 688 l 1
 250 565 l 1
EndSplineSet
EndChar

StartChar: Rcaron
Encoding: 344 344 305
Width: 480
VWidth: 0
Flags: HMW
LayerCount: 2
Fore
SplineSet
223 326 m 1
 259 326 l 1
 427 0 l 1
 388 0 l 1
 223 326 l 1
176 700 m 1
 210 700 l 1
 90 0 l 1
 57 0 l 1
 176 700 l 1
186 669 m 1
 192 700 l 1
 309 700 l 1
 434 698 527 626 507 502 c 0
 487 376 374 306 244 304 c 1
 124 304 l 1
 129 333 l 1
 247 333 l 1
 360 335 456 393 474 502 c 0
 492 609 416 667 307 669 c 1
 186 669 l 1
338 803 m 1
 495 926 l 1
 513 907 l 1
 334 769 l 1
 201 909 l 1
 224 926 l 1
 338 803 l 1
EndSplineSet
EndChar

StartChar: uni0213
Encoding: 531 531 306
Width: 296
VWidth: 0
Flags: HMW
LayerCount: 2
Fore
SplineSet
162 460 m 1
 83 0 l 1
 51 0 l 1
 131 460 l 1
 162 460 l 1
314 419 m 1
 297 430 281 440 261 440 c 0
 183 442 144 355 130 281 c 1
 116 281 l 1
 132 372 182 472 270 470 c 0
 295 470 316 459 335 444 c 1
 314 419 l 1
94 544 m 1
 123 544 l 1
 141 601 188 657 268 657 c 0
 346 657 379 602 375 544 c 1
 401 544 l 1
 409 616 370 682 274 683 c 0
 176 684 115 616 94 544 c 1
EndSplineSet
EndChar

StartChar: uni0212
Encoding: 530 530 307
Width: 480
VWidth: 0
Flags: HMW
LayerCount: 2
Fore
SplineSet
223 326 m 1
 259 326 l 1
 427 0 l 1
 388 0 l 1
 223 326 l 1
176 700 m 1
 210 700 l 1
 90 0 l 1
 57 0 l 1
 176 700 l 1
186 669 m 1
 192 700 l 1
 309 700 l 1
 434 698 527 626 507 502 c 0
 487 376 374 306 244 304 c 1
 124 304 l 1
 129 333 l 1
 247 333 l 1
 360 335 456 393 474 502 c 0
 492 609 416 667 307 669 c 1
 186 669 l 1
205 769 m 1
 234 769 l 1
 252 826 299 881 379 881 c 0
 457 881 490 826 486 768 c 1
 512 769 l 1
 520 841 481 907 385 908 c 0
 287 909 226 841 205 769 c 1
EndSplineSet
EndChar

StartChar: OE
Encoding: 338 338 308
Width: 931
VWidth: 0
Flags: HMW
LayerCount: 2
Fore
SplineSet
551 371 m 1
 557 403 l 1
 880 403 l 1
 875 371 l 1
 551 371 l 1
590 687 m 1
 623 687 l 1
 507 13 l 1
 475 13 l 1
 590 687 l 1
837 31 m 1
 832 0 l 1
 353 0 l 1
 154 4 42 159 71 350 c 0
 103 550 265 697 469 700 c 1
 950 700 l 1
 945 669 l 1
 609 669 l 1
 593 669 l 1
 467 669 l 1
 283 666 133 530 103 350 c 0
 76 179 176 34 355 31 c 1
 478 31 l 1
 502 31 l 1
 837 31 l 1
EndSplineSet
EndChar

StartChar: oe
Encoding: 339 339 309
Width: 889
VWidth: 0
Flags: HMW
LayerCount: 2
Fore
SplineSet
833 250 m 1
 848 342 800 440 692 441 c 0
 576 442 495 343 472 241 c 1
 470 232 l 1
 456 122 501 21 617 20 c 0
 701 19 764 66 811 123 c 1
 834 105 l 1
 779 41 710 -11 615 -10 c 0
 483 -9 427 111 444 230 c 0
 446 247 450 263 456 279 c 0
 490 384 583 471 697 470 c 0
 812 469 882 363 866 247 c 0
 865 239 862 231 860 223 c 1
 828 230 l 1
 833 250 l 1
460 223 m 1
 464 250 l 1
 858 250 l 1
 860 223 l 1
 460 223 l 1
52 230 m 0
 71 363 175 471 300 470 c 0
 421 469 476 354 460 230 c 0
 441 98 342 -10 221 -10 c 0
 96 -10 35 104 52 230 c 0
84 230 m 0
 68 120 117 20 228 20 c 0
 329 20 421 118 438 230 c 0
 452 335 404 438 303 440 c 0
 192 442 102 346 84 230 c 0
EndSplineSet
EndChar

StartChar: a.alt
Encoding: 65536 -1 310
Width: 436
VWidth: 0
Flags: HMW
LayerCount: 2
Fore
SplineSet
63 135 m 0
 52 62 101 19 167 19 c 0
 257 18 323 85 343 165 c 1
 349 150 l 1
 329 64 258 -10 158 -10 c 0
 77 -10 18 46 31 135 c 0
 46 229 139 282 236 282 c 0
 301 282 340 258 366 232 c 1
 363 211 l 1
 331 238 290 256 235 256 c 0
 155 256 76 214 63 135 c 0
128 382 m 1
 115 407 l 1
 158 437 213 471 282 470 c 0
 372 469 412 405 400 323 c 2
 345 0 l 1
 313 0 l 1
 370 323 l 2
 379 388 352 440 280 441 c 0
 218 442 168 411 128 382 c 1
EndSplineSet
EndChar

StartChar: Jcircumflex
Encoding: 308 308 312
Width: 203
VWidth: 0
Flags: HMW
LayerCount: 2
Fore
SplineSet
-158 -142 m 1
 -137 -166 -107 -188 -68 -188 c 0
 6 -188 40 -132 52 -50 c 1
 181 700 l 1
 213 700 l 1
 83 -60 l 2
 68 -154 22 -221 -72 -220 c 0
 -120 -220 -159 -192 -179 -166 c 1
 -158 -142 l 1
230 891 m 1
 72 769 l 1
 56 787 l 1
 235 925 l 1
 367 785 l 1
 345 769 l 1
 230 891 l 1
EndSplineSet
EndChar

StartChar: jcircumflex
Encoding: 309 309 313
Width: 194
VWidth: 0
Flags: HMW
LayerCount: 2
Fore
SplineSet
-123 -150 m 1
 -109 -170 -91 -187 -63 -188 c 0
 0 -189 28 -126 38 -72 c 2
 129 460 l 1
 160 460 l 1
 69 -75 l 2
 57 -148 14 -222 -68 -220 c 0
 -106 -219 -129 -196 -145 -174 c 1
 -123 -150 l 1
178 652 m 1
 21 531 l 1
 3 548 l 1
 182 687 l 1
 315 547 l 1
 293 530 l 1
 178 652 l 1
EndSplineSet
EndChar

StartChar: Nacute
Encoding: 323 323 314
Width: 677
VWidth: 0
Flags: HMW
LayerCount: 2
Fore
SplineSet
667 700 m 1
 700 700 l 1
 576 -21 l 1
 171 630 l 1
 63 0 l 1
 29 0 l 1
 153 721 l 1
 558 66 l 1
 667 700 l 1
616 908 m 1
 418 756 l 1
 403 769 l 1
 590 927 l 1
 616 908 l 1
EndSplineSet
EndChar

StartChar: nacute
Encoding: 324 324 315
Width: 474
VWidth: 0
Flags: HMW
LayerCount: 2
Fore
SplineSet
162 460 m 1
 83 0 l 1
 51 0 l 1
 131 460 l 1
 162 460 l 1
391 308 m 2
 400 377 383 439 303 440 c 0
 214 441 149 361 130 281 c 1
 119 281 l 1
 139 379 211 470 312 470 c 0
 406 470 434 397 423 311 c 1
 369 0 l 1
 338 0 l 1
 391 308 l 2
469 690 m 1
 272 538 l 1
 257 551 l 1
 444 709 l 1
 469 690 l 1
EndSplineSet
EndChar

StartChar: uni0145
Encoding: 325 325 316
Width: 677
VWidth: 0
Flags: HMW
LayerCount: 2
Fore
SplineSet
314 -43 m 1
 345 -56 l 1
 194 -304 l 1
 173 -296 l 1
 314 -43 l 1
667 700 m 1
 700 700 l 1
 576 -21 l 1
 171 630 l 1
 63 0 l 1
 29 0 l 1
 153 721 l 1
 558 66 l 1
 667 700 l 1
EndSplineSet
EndChar

StartChar: uni0146
Encoding: 326 326 317
Width: 474
VWidth: 0
Flags: HMW
LayerCount: 2
Fore
SplineSet
162 460 m 1
 83 0 l 1
 51 0 l 1
 131 460 l 1
 162 460 l 1
391 308 m 2
 400 377 383 439 303 440 c 0
 214 441 149 361 130 281 c 1
 116 281 l 1
 136 379 211 470 312 470 c 0
 406 470 434 397 423 311 c 1
 369 0 l 1
 338 0 l 1
 391 308 l 2
215 -47 m 1
 246 -60 l 1
 95 -308 l 1
 74 -300 l 1
 215 -47 l 1
EndSplineSet
EndChar

StartChar: Ncaron
Encoding: 327 327 318
Width: 677
VWidth: 0
Flags: HMW
LayerCount: 2
Fore
SplineSet
457 809 m 1
 614 931 l 1
 632 913 l 1
 453 775 l 1
 321 914 l 1
 343 932 l 1
 457 809 l 1
667 700 m 1
 700 700 l 1
 576 -21 l 1
 171 630 l 1
 63 0 l 1
 29 0 l 1
 153 721 l 1
 558 66 l 1
 667 700 l 1
EndSplineSet
EndChar

StartChar: ncaron
Encoding: 328 328 319
Width: 474
VWidth: 0
Flags: HMW
LayerCount: 2
Fore
SplineSet
162 460 m 1
 83 0 l 1
 51 0 l 1
 131 460 l 1
 162 460 l 1
391 308 m 2
 400 377 383 439 303 440 c 0
 214 441 149 361 130 281 c 1
 116 281 l 1
 136 379 211 470 312 470 c 0
 406 470 434 397 423 311 c 1
 369 0 l 1
 338 0 l 1
 391 308 l 2
306 565 m 1
 463 687 l 1
 481 669 l 1
 302 530 l 1
 170 670 l 1
 192 688 l 1
 306 565 l 1
EndSplineSet
EndChar

StartChar: Omacron
Encoding: 332 332 320
Width: 755
VWidth: 0
Flags: HMW
LayerCount: 2
Fore
SplineSet
113 350 m 0
 88 183 174 26 354 25 c 0
 536 24 681 174 709 350 c 0
 734 517 647 674 467 675 c 0
 285 676 141 526 113 350 c 0
78 350 m 0
 108 546 270 709 470 709 c 0
 668 709 770 536 743 350 c 0
 713 154 551 -9 351 -9 c 0
 153 -9 51 164 78 350 c 0
315 783 m 1
 319 812 l 1
 660 812 l 1
 655 783 l 1
 315 783 l 1
EndSplineSet
EndChar

StartChar: omacron
Encoding: 333 333 321
Width: 535
VWidth: 0
Flags: HMW
LayerCount: 2
Fore
SplineSet
52 230 m 0
 72 361 186 470 320 470 c 0
 453 470 527 356 509 230 c 0
 489 99 375 -10 241 -10 c 0
 108 -10 34 104 52 230 c 0
84 230 m 0
 67 121 128 20 243 20 c 0
 360 20 459 115 477 230 c 0
 494 339 433 440 318 440 c 0
 201 440 102 345 84 230 c 0
164 544 m 1
 169 574 l 1
 509 574 l 1
 504 544 l 1
 164 544 l 1
EndSplineSet
EndChar

StartChar: Obreve
Encoding: 334 334 322
Width: 755
VWidth: 0
Flags: HMW
LayerCount: 2
Fore
SplineSet
113 350 m 0
 88 183 174 26 354 25 c 0
 536 24 681 174 709 350 c 0
 734 517 647 674 467 675 c 0
 285 676 141 526 113 350 c 0
78 350 m 0
 108 546 270 709 470 709 c 0
 668 709 770 536 743 350 c 0
 713 154 551 -9 351 -9 c 0
 153 -9 51 164 78 350 c 0
352 909 m 1
 380 908 l 1
 375 851 408 796 485 796 c 0
 565 796 613 852 631 908 c 1
 660 908 l 1
 640 836 580 769 483 769 c 0
 387 769 345 836 352 909 c 1
EndSplineSet
EndChar

StartChar: obreve
Encoding: 335 335 323
Width: 535
VWidth: 0
Flags: HMW
LayerCount: 2
Fore
SplineSet
52 230 m 0
 72 361 186 470 320 470 c 0
 453 470 527 356 509 230 c 0
 489 99 375 -10 241 -10 c 0
 108 -10 34 104 52 230 c 0
84 230 m 0
 67 121 128 20 243 20 c 0
 360 20 459 115 477 230 c 0
 494 339 433 440 318 440 c 0
 201 440 102 345 84 230 c 0
202 670 m 1
 230 670 l 1
 225 613 258 557 335 557 c 0
 415 557 463 613 481 669 c 1
 510 669 l 1
 490 597 430 530 333 530 c 0
 237 530 195 597 202 670 c 1
EndSplineSet
EndChar

StartChar: Racute
Encoding: 340 340 324
Width: 480
VWidth: 0
Flags: HMW
LayerCount: 2
Fore
SplineSet
223 326 m 1
 259 326 l 1
 427 0 l 1
 388 0 l 1
 223 326 l 1
176 700 m 1
 210 700 l 1
 90 0 l 1
 57 0 l 1
 176 700 l 1
186 669 m 1
 192 700 l 1
 309 700 l 1
 434 698 527 626 507 502 c 0
 487 376 374 306 244 304 c 1
 124 304 l 1
 129 333 l 1
 247 333 l 1
 360 335 456 393 474 502 c 0
 492 609 416 667 307 669 c 1
 186 669 l 1
496 922 m 1
 299 770 l 1
 283 782 l 1
 470 940 l 1
 496 922 l 1
EndSplineSet
EndChar

StartChar: uni0156
Encoding: 342 342 325
Width: 480
VWidth: 0
Flags: HMW
LayerCount: 2
Fore
SplineSet
223 326 m 1
 259 326 l 1
 427 0 l 1
 388 0 l 1
 223 326 l 1
176 700 m 1
 210 700 l 1
 90 0 l 1
 57 0 l 1
 176 700 l 1
186 669 m 1
 192 700 l 1
 309 700 l 1
 434 698 527 626 507 502 c 0
 487 376 374 306 244 304 c 1
 124 304 l 1
 129 333 l 1
 247 333 l 1
 360 335 456 393 474 502 c 0
 492 609 416 667 307 669 c 1
 186 669 l 1
231 -61 m 1
 262 -74 l 1
 112 -322 l 1
 90 -314 l 1
 231 -61 l 1
EndSplineSet
EndChar

StartChar: uni0157
Encoding: 343 343 326
Width: 296
VWidth: 0
Flags: HMW
LayerCount: 2
Fore
SplineSet
162 460 m 1
 83 0 l 1
 51 0 l 1
 131 460 l 1
 162 460 l 1
314 419 m 1
 297 430 281 440 261 440 c 0
 183 442 144 355 130 281 c 1
 116 281 l 1
 132 372 182 472 270 470 c 0
 295 470 316 459 335 444 c 1
 314 419 l 1
63 -61 m 1
 93 -74 l 1
 -57 -322 l 1
 -78 -314 l 1
 63 -61 l 1
EndSplineSet
EndChar

StartChar: Scedilla
Encoding: 350 350 327
Width: 490
VWidth: 0
Flags: HMW
LayerCount: 2
Fore
SplineSet
75 206 m 1
 92 120 129 25 235 24 c 0
 339 23 403 89 417 177 c 0
 431 269 362 321 288 353 c 0
 211 387 126 439 141 544 c 0
 156 640 245 708 345 708 c 0
 448 708 495 631 510 553 c 1
 480 538 l 1
 467 605 429 676 340 676 c 0
 259 676 189 620 176 544 c 0
 161 456 241 410 317 377 c 0
 396 342 466 282 452 179 c 0
 436 74 354 -9 230 -8 c 0
 112 -7 62 91 44 190 c 1
 75 206 l 1
232 17 m 1
 259 17 l 1
 187 -69 l 1
 204 -60 218 -52 239 -53 c 0
 275 -55 303 -85 298 -128 c 0
 291 -185 233 -220 179 -220 c 0
 144 -220 122 -208 97 -183 c 1
 114 -167 l 1
 135 -186 153 -197 181 -197 c 0
 222 -197 269 -170 275 -127 c 0
 279 -94 257 -74 228 -72 c 0
 203 -70 173 -81 150 -94 c 1
 232 17 l 1
EndSplineSet
EndChar

StartChar: scedilla
Encoding: 351 351 328
Width: 391
VWidth: 0
Flags: HMW
LayerCount: 2
Fore
SplineSet
58 152 m 1
 68 89 94 21 172 20 c 0
 232 19 287 60 296 119 c 0
 306 178 255 205 200 225 c 0
 136 249 82 276 94 355 c 0
 106 426 174 468 245 468 c 0
 316 468 352 426 369 372 c 1
 342 358 l 1
 328 402 298 439 242 439 c 0
 187 439 134 409 125 356 c 0
 114 291 168 269 224 249 c 0
 284 226 338 191 328 121 c 0
 317 41 249 -9 170 -9 c 0
 76 -9 41 64 31 138 c 1
 58 152 l 1
171 16 m 1
 199 16 l 1
 126 -70 l 1
 143 -61 157 -53 178 -54 c 0
 214 -56 243 -86 238 -129 c 0
 231 -186 172 -222 118 -222 c 0
 83 -222 62 -209 37 -184 c 1
 53 -168 l 1
 74 -187 92 -198 120 -198 c 0
 161 -198 208 -171 214 -128 c 0
 218 -95 195 -75 166 -73 c 0
 141 -71 113 -83 90 -96 c 1
 171 16 l 1
EndSplineSet
EndChar

StartChar: Zcaron
Encoding: 381 381 329
Width: 521
VWidth: 0
Flags: HMW
LayerCount: 2
Fore
SplineSet
124 668 m 1
 129 700 l 1
 599 700 l 1
 54 33 l 1
 472 32 l 1
 467 0 l 1
 -10 0 l 1
 535 667 l 1
 124 668 l 1
380 803 m 1
 537 926 l 1
 556 907 l 1
 377 769 l 1
 244 909 l 1
 266 926 l 1
 380 803 l 1
EndSplineSet
EndChar

StartChar: zcaron
Encoding: 382 382 330
Width: 425
VWidth: 0
Flags: HMW
LayerCount: 2
Fore
SplineSet
289 565 m 1
 446 687 l 1
 464 669 l 1
 285 530 l 1
 152 670 l 1
 175 688 l 1
 289 565 l 1
390 430 m 1
 86 430 l 1
 91 460 l 1
 454 460 l 1
 53 30 l 1
 381 30 l 1
 376 0 l 1
 -10 0 l 1
 390 430 l 1
EndSplineSet
EndChar

StartChar: Ydieresis
Encoding: 376 376 331
Width: 507
VWidth: 0
Flags: HMW
LayerCount: 2
Fore
SplineSet
248 794 m 0
 249 806 264 817 276 817 c 0
 289 817 297 806 296 793 c 0
 295 781 281 769 269 769 c 0
 256 769 247 781 248 794 c 0
428 794 m 0
 429 806 444 817 456 817 c 0
 469 817 478 806 477 793 c 0
 476 781 461 769 449 769 c 0
 436 769 427 781 428 794 c 0
552 699 m 1
 590 699 l 1
 287 277 l 1
 240 0 l 1
 206 0 l 1
 255 278 l 1
 104 700 l 1
 141 700 l 1
 275 311 l 1
 552 699 l 1
EndSplineSet
EndChar

StartChar: Scaron
Encoding: 352 352 332
Width: 490
VWidth: 0
Flags: HMW
LayerCount: 2
Fore
SplineSet
75 206 m 1
 92 120 129 25 235 24 c 0
 339 23 403 89 417 177 c 0
 431 269 362 320 288 353 c 0
 211 387 127 443 142 546 c 0
 157 641 247 708 345 708 c 0
 448 708 497 630 510 553 c 1
 480 538 l 1
 467 605 432 675 343 676 c 0
 262 676 189 620 176 544 c 0
 161 456 241 410 317 377 c 0
 396 342 466 282 452 179 c 0
 436 74 356 -9 230 -8 c 0
 112 -7 62 91 44 190 c 1
 75 206 l 1
363 810 m 1
 520 932 l 1
 538 914 l 1
 359 776 l 1
 226 916 l 1
 249 933 l 1
 363 810 l 1
EndSplineSet
EndChar

StartChar: scaron
Encoding: 353 353 333
Width: 391
VWidth: 0
Flags: HMW
LayerCount: 2
Fore
SplineSet
59 151 m 1
 64 87 90 20 171 20 c 0
 233 20 287 60 296 119 c 0
 306 179 255 206 200 226 c 0
 136 250 82 279 94 356 c 0
 105 425 174 468 245 468 c 0
 316 468 355 425 369 371 c 1
 342 357 l 1
 328 400 298 438 242 438 c 0
 187 438 134 407 125 354 c 0
 114 290 169 268 224 248 c 0
 284 225 338 189 328 121 c 0
 317 41 248 -11 167 -10 c 0
 73 -10 36 63 31 138 c 1
 59 151 l 1
261 565 m 1
 418 687 l 1
 436 669 l 1
 257 530 l 1
 124 670 l 1
 147 688 l 1
 261 565 l 1
EndSplineSet
EndChar

StartChar: Lslash
Encoding: 321 321 334
Width: 385
VWidth: 0
Flags: HMW
LayerCount: 2
Fore
SplineSet
32 373 m 1
 26 396 l 1
 317 564 l 1
 323 542 l 1
 32 373 l 1
170 700 m 1
 204 700 l 1
 89 31 l 1
 355 31 l 1
 349 0 l 1
 50 0 l 1
 170 700 l 1
EndSplineSet
EndChar

StartChar: lslash
Encoding: 322 322 335
Width: 175
VWidth: 0
Flags: HMW
LayerCount: 2
Fore
SplineSet
33 373 m 1
 25 396 l 1
 247 544 l 1
 254 522 l 1
 33 373 l 1
179 780 m 1
 210 780 l 1
 76 0 l 1
 45 0 l 1
 179 780 l 1
EndSplineSet
EndChar

StartChar: uni0218
Encoding: 536 536 336
Width: 490
VWidth: 0
Flags: HMW
LayerCount: 2
Fore
SplineSet
75 206 m 1
 92 120 129 25 235 24 c 0
 339 23 403 89 417 177 c 0
 431 269 362 320 288 353 c 0
 211 387 127 443 142 546 c 0
 157 641 247 708 345 708 c 0
 448 708 497 630 510 553 c 1
 480 538 l 1
 467 605 432 675 343 676 c 0
 262 676 189 620 176 544 c 0
 161 456 241 410 317 377 c 0
 396 342 466 282 452 179 c 0
 436 74 356 -9 230 -8 c 0
 112 -7 62 91 44 190 c 1
 75 206 l 1
252 -70 m 1
 282 -83 l 1
 131 -330 l 1
 110 -322 l 1
 252 -70 l 1
EndSplineSet
EndChar

StartChar: uni0219
Encoding: 537 537 337
Width: 391
VWidth: 0
Flags: HMW
LayerCount: 2
Fore
SplineSet
59 151 m 1
 64 87 90 20 171 20 c 0
 233 20 287 60 296 119 c 0
 306 179 255 206 200 226 c 0
 136 250 82 279 94 356 c 0
 105 425 174 468 245 468 c 0
 316 468 355 425 369 371 c 1
 342 357 l 1
 328 400 298 438 242 438 c 0
 187 438 134 407 125 354 c 0
 114 290 169 268 224 248 c 0
 284 225 338 189 328 121 c 0
 317 41 248 -11 167 -10 c 0
 73 -10 36 63 31 138 c 1
 59 151 l 1
188 -71 m 1
 218 -84 l 1
 68 -332 l 1
 47 -324 l 1
 188 -71 l 1
EndSplineSet
EndChar

StartChar: pi
Encoding: 960 960 338
Width: 476
VWidth: 0
Flags: HMW
LayerCount: 2
Fore
SplineSet
136 443 m 1
 168 444 l 1
 90 0 l 1
 60 0 l 1
 136 443 l 1
80 460 m 1
 490 460 l 1
 485 430 l 1
 75 430 l 1
 80 460 l 1
379 444 m 1
 410 444 l 1
 355 127 l 1
 347 61 343 34 389 22 c 1
 384 -8 l 1
 318 2 313 36 323 121 c 1
 379 444 l 1
EndSplineSet
EndChar

StartChar: trademark
Encoding: 8482 8482 339
Width: 645
VWidth: 0
Flags: HMW
LayerCount: 2
Fore
SplineSet
125 684 m 1
 127 700 l 1
 326 700 l 1
 323 684 l 1
 232 684 l 1
 174 350 l 1
 158 350 l 1
 215 684 l 1
 125 684 l 1
652 662 m 1
 672 712 l 1
 646 350 l 1
 630 350 l 1
 652 662 l 1
400 710 m 1
 401 660 l 1
 316 350 l 1
 299 351 l 1
 400 710 l 1
673 712 m 1
 662 670 l 1
 481 396 l 1
 394 672 l 1
 399 711 l 1
 486 431 l 1
 673 712 l 1
EndSplineSet
EndChar

StartChar: uni2219
Encoding: 8729 8729 340
Width: 263
VWidth: 0
Flags: HMW
LayerCount: 2
Fore
SplineSet
156 439 m 0
 157 451 172 463 184 463 c 0
 197 463 205 451 204 438 c 0
 203 426 188 414 176 414 c 0
 163 414 155 426 156 439 c 0
EndSplineSet
EndChar

StartChar: agrave.alt
Encoding: 65537 -1 341
Width: 436
VWidth: 0
Flags: HMW
LayerCount: 2
Fore
SplineSet
63 135 m 0
 52 62 99 19 167 19 c 0
 257 19 323 84 343 165 c 1
 349 150 l 1
 329 64 258 -10 158 -10 c 0
 77 -10 18 44 31 132 c 0
 46 228 141 282 236 282 c 0
 301 282 340 258 366 232 c 1
 363 211 l 1
 331 238 290 256 235 256 c 0
 155 256 76 213 63 135 c 0
128 382 m 1
 115 407 l 1
 158 437 213 471 282 470 c 0
 372 469 410 405 400 323 c 1
 345 0 l 1
 313 0 l 1
 370 323 l 1
 377 389 352 440 280 441 c 0
 218 442 168 411 128 382 c 1
184 699 m 1
 214 716 l 1
 347 556 l 1
 328 544 l 1
 184 699 l 1
EndSplineSet
EndChar

StartChar: aacute.alt
Encoding: 65538 -1 342
Width: 436
VWidth: 0
Flags: HMW
LayerCount: 2
Fore
SplineSet
63 135 m 0
 52 62 99 19 167 19 c 0
 257 19 323 84 343 165 c 1
 349 150 l 1
 329 64 258 -10 158 -10 c 0
 77 -10 18 44 31 132 c 0
 46 228 141 282 236 282 c 0
 301 282 340 258 366 232 c 1
 363 211 l 1
 331 238 290 256 235 256 c 0
 155 256 76 213 63 135 c 0
128 382 m 1
 115 407 l 1
 158 437 213 471 282 470 c 0
 372 469 410 405 400 323 c 1
 345 0 l 1
 313 0 l 1
 370 323 l 1
 377 389 352 440 280 441 c 0
 218 442 168 411 128 382 c 1
448 697 m 1
 252 545 l 1
 236 558 l 1
 423 716 l 1
 448 697 l 1
EndSplineSet
EndChar

StartChar: acircumflex.alt
Encoding: 65539 -1 343
Width: 436
VWidth: 0
Flags: HMW
LayerCount: 2
Fore
SplineSet
63 135 m 0
 52 62 99 19 167 19 c 0
 257 19 323 84 343 165 c 1
 349 150 l 1
 329 64 258 -10 158 -10 c 0
 77 -10 18 44 31 132 c 0
 46 228 141 282 236 282 c 0
 301 282 340 258 366 232 c 1
 363 211 l 1
 331 238 290 256 235 256 c 0
 155 256 76 213 63 135 c 0
128 382 m 1
 115 407 l 1
 158 437 213 471 282 470 c 0
 372 469 410 405 400 323 c 1
 345 0 l 1
 313 0 l 1
 370 323 l 1
 377 389 352 440 280 441 c 0
 218 442 168 411 128 382 c 1
317 659 m 1
 160 538 l 1
 142 555 l 1
 321 694 l 1
 454 554 l 1
 432 537 l 1
 317 659 l 1
EndSplineSet
EndChar

StartChar: atilde.alt
Encoding: 65540 -1 344
Width: 436
VWidth: 0
Flags: HMW
LayerCount: 2
Fore
SplineSet
63 135 m 0
 52 62 99 19 167 19 c 0
 257 19 323 84 343 165 c 1
 349 150 l 1
 329 64 258 -10 158 -10 c 0
 77 -10 18 44 31 132 c 0
 46 228 141 282 236 282 c 0
 301 282 340 258 366 232 c 1
 363 211 l 1
 331 238 290 256 235 256 c 0
 155 256 76 213 63 135 c 0
128 382 m 1
 115 407 l 1
 158 437 213 471 282 470 c 0
 372 469 410 405 400 323 c 1
 345 0 l 1
 313 0 l 1
 370 323 l 1
 377 389 352 440 280 441 c 0
 218 442 168 411 128 382 c 1
161 578 m 1
 174 610 201 642 244 642 c 0
 293 642 310 595 357 596 c 0
 384 597 402 618 420 643 c 1
 438 627 l 1
 418 596 389 568 352 569 c 0
 305 569 286 615 244 615 c 0
 207 615 190 588 181 565 c 1
 161 578 l 1
EndSplineSet
EndChar

StartChar: adieresis.alt
Encoding: 65541 -1 345
Width: 436
VWidth: 0
Flags: HMW
LayerCount: 2
Fore
SplineSet
63 135 m 0
 52 62 99 19 167 19 c 0
 257 19 323 84 343 165 c 1
 349 150 l 1
 329 64 258 -10 158 -10 c 0
 77 -10 18 44 31 132 c 0
 46 228 141 282 236 282 c 0
 301 282 340 258 366 232 c 1
 363 211 l 1
 331 238 290 256 235 256 c 0
 155 256 76 213 63 135 c 0
128 382 m 1
 115 407 l 1
 158 437 213 471 282 470 c 0
 372 469 410 405 400 323 c 1
 345 0 l 1
 313 0 l 1
 370 323 l 1
 377 389 352 440 280 441 c 0
 218 442 168 411 128 382 c 1
353 569 m 0
 354 581 369 593 381 593 c 0
 394 593 402 581 401 568 c 0
 400 556 386 544 374 544 c 0
 361 544 352 556 353 569 c 0
186 569 m 0
 187 581 202 593 214 593 c 0
 227 593 235 581 234 568 c 0
 233 556 218 544 206 544 c 0
 193 544 185 556 186 569 c 0
EndSplineSet
EndChar

StartChar: aring.alt
Encoding: 65542 -1 346
Width: 436
VWidth: 0
Flags: HMW
LayerCount: 2
Fore
SplineSet
63 135 m 0
 52 62 99 19 167 19 c 0
 257 19 323 84 343 165 c 1
 349 150 l 1
 329 64 258 -10 158 -10 c 0
 77 -10 18 44 31 132 c 0
 46 228 141 282 236 282 c 0
 301 282 340 258 366 232 c 1
 363 211 l 1
 331 238 290 256 235 256 c 0
 155 256 76 213 63 135 c 0
128 382 m 1
 115 407 l 1
 158 437 213 471 282 470 c 0
 372 469 410 405 400 323 c 1
 345 0 l 1
 313 0 l 1
 370 323 l 1
 377 389 352 440 280 441 c 0
 218 442 168 411 128 382 c 1
211 631 m 0
 219 686 274 730 327 730 c 0
 380 730 419 683 411 629 c 0
 403 574 348 530 295 530 c 0
 242 530 203 577 211 631 c 0
234 630 m 0
 228 589 255 553 296 552 c 0
 337 551 382 588 388 630 c 0
 394 671 366 707 325 708 c 0
 284 709 240 672 234 630 c 0
EndSplineSet
EndChar

StartChar: amacron.alt
Encoding: 65543 -1 347
Width: 436
VWidth: 0
Flags: HMW
LayerCount: 2
Fore
SplineSet
63 135 m 0
 52 62 99 19 167 19 c 0
 257 19 323 84 343 165 c 1
 349 150 l 1
 329 64 258 -10 158 -10 c 0
 77 -10 18 44 31 132 c 0
 46 228 141 282 236 282 c 0
 301 282 340 258 366 232 c 1
 363 211 l 1
 331 238 290 256 235 256 c 0
 155 256 76 213 63 135 c 0
128 382 m 1
 115 407 l 1
 158 437 213 471 282 470 c 0
 372 469 410 405 400 323 c 1
 345 0 l 1
 313 0 l 1
 370 323 l 1
 377 389 352 440 280 441 c 0
 218 442 168 411 128 382 c 1
128 550 m 1
 132 580 l 1
 473 580 l 1
 468 550 l 1
 128 550 l 1
EndSplineSet
EndChar

StartChar: abreve.alt
Encoding: 65544 -1 348
Width: 436
VWidth: 0
Flags: HMW
LayerCount: 2
Fore
SplineSet
63 135 m 0
 52 62 99 19 167 19 c 0
 257 19 323 84 343 165 c 1
 349 150 l 1
 329 64 258 -10 158 -10 c 0
 77 -10 18 44 31 132 c 0
 46 228 141 282 236 282 c 0
 301 282 340 258 366 232 c 1
 363 211 l 1
 331 238 290 256 235 256 c 0
 155 256 76 213 63 135 c 0
128 382 m 1
 115 407 l 1
 158 437 213 471 282 470 c 0
 372 469 410 405 400 323 c 1
 345 0 l 1
 313 0 l 1
 370 323 l 1
 377 389 352 440 280 441 c 0
 218 442 168 411 128 382 c 1
159 677 m 1
 187 677 l 1
 182 620 215 564 292 564 c 0
 372 564 420 620 438 676 c 1
 466 676 l 1
 446 604 386 537 289 537 c 0
 193 537 152 604 159 677 c 1
EndSplineSet
EndChar

StartChar: aogonek.alt
Encoding: 65545 -1 349
Width: 436
VWidth: 0
Flags: HMW
LayerCount: 2
Fore
SplineSet
63 135 m 0
 52 62 101 19 167 19 c 0
 257 18 323 85 343 165 c 1
 349 150 l 1
 329 64 258 -10 158 -10 c 0
 77 -10 18 46 31 135 c 0
 46 229 139 282 236 282 c 0
 301 282 340 258 366 232 c 1
 363 211 l 1
 331 238 290 256 235 256 c 0
 155 256 76 214 63 135 c 0
128 382 m 1
 115 407 l 1
 158 437 213 471 282 470 c 0
 372 469 410 405 400 323 c 1
 345 0 l 1
 313 0 l 1
 370 323 l 1
 377 389 352 440 280 441 c 0
 218 442 168 411 128 382 c 1
342 -160 m 1
 353 -181 l 1
 330 -201 295 -220 255 -220 c 0
 194 -220 154 -186 162 -133 c 0
 173 -61 262 -19 330 14 c 1
 345 0 l 1
 286 -28 203 -68 194 -128 c 0
 189 -168 220 -190 260 -191 c 0
 293 -192 322 -175 342 -160 c 1
EndSplineSet
EndChar

StartChar: dagger
Encoding: 8224 8224 350
Width: 505
VWidth: 0
Flags: HMW
LayerCount: 2
Fore
SplineSet
153 540 m 1
 485 540 l 1
 480 510 l 1
 148 510 l 1
 153 540 l 1
328 700 m 1
 360 700 l 1
 228 -150 l 1
 197 -150 l 1
 328 700 l 1
EndSplineSet
EndChar

StartChar: daggerdbl
Encoding: 8225 8225 351
Width: 505
VWidth: 0
Flags: HMW
LayerCount: 2
Fore
SplineSet
88 120 m 1
 421 120 l 1
 416 90 l 1
 84 90 l 1
 88 120 l 1
153 540 m 1
 485 540 l 1
 480 510 l 1
 148 510 l 1
 153 540 l 1
328 700 m 1
 360 700 l 1
 228 -150 l 1
 197 -150 l 1
 328 700 l 1
EndSplineSet
EndChar

StartChar: ellipsis
Encoding: 8230 8230 352
Width: 813
VWidth: 0
Flags: HMW
LayerCount: 2
Fore
SplineSet
84 13 m 0
 85 25 100 37 112 37 c 0
 125 37 133 26 132 13 c 0
 131 1 116 -11 104 -11 c 0
 91 -11 83 0 84 13 c 0
358 13 m 0
 359 25 374 37 386 37 c 0
 399 37 407 26 406 13 c 0
 405 1 390 -11 378 -11 c 0
 365 -11 357 0 358 13 c 0
632 13 m 0
 633 25 648 37 660 37 c 0
 673 37 681 26 680 13 c 0
 679 1 665 -11 653 -11 c 0
 640 -11 631 0 632 13 c 0
EndSplineSet
EndChar

StartChar: uniFF10
Encoding: 65296 65296 353
Width: 541
VWidth: 0
Flags: HMW
LayerCount: 2
Fore
SplineSet
112 350 m 0
 96 215 104 23 246 22 c 0
 387 21 474 197 496 350 c 0
 512 485 504 677 362 678 c 0
 221 679 134 503 112 350 c 0
78 350 m 0
 102 523 204 711 364 710 c 0
 526 709 547 506 529 350 c 0
 505 177 404 -11 244 -10 c 0
 82 -9 60 194 78 350 c 0
EndSplineSet
EndChar

StartChar: uniFF11
Encoding: 65297 65297 354
Width: 541
VWidth: 0
Flags: HMW
LayerCount: 2
Fore
SplineSet
224 626 m 1
 231 661 l 1
 432 707 l 1
 310 0 l 1
 278 0 l 1
 392 665 l 1
 224 626 l 1
EndSplineSet
EndChar

StartChar: uniFF12
Encoding: 65298 65298 355
Width: 541
VWidth: 0
Flags: HMW
LayerCount: 2
Fore
SplineSet
9 0 m 1
 380 340 l 2
 433 389 484 441 497 515 c 0
 511 591 473 678 369 679 c 0
 251 680 174 575 151 460 c 1
 119 461 l 1
 144 594 234 711 371 710 c 0
 496 709 546 605 530 513 c 0
 517 434 462 374 405 322 c 2
 84 32 l 1
 468 31 l 1
 463 0 l 1
 9 0 l 1
EndSplineSet
EndChar

StartChar: uniFF13
Encoding: 65299 65299 356
Width: 541
VWidth: 0
Flags: HMW
LayerCount: 2
Fore
SplineSet
281 357 m 1
 284 380 l 1
 376 386 475 435 492 529 c 0
 505 605 462 678 371 679 c 0
 275 680 210 610 189 527 c 1
 157 527 l 1
 180 629 259 711 373 710 c 0
 483 710 542 621 526 530 c 0
 507 420 393 362 281 357 c 1
249 -10 m 0
 122 -10 58 77 70 185 c 1
 103 185 l 1
 93 93 143 22 251 22 c 0
 353 22 437 89 452 181 c 0
 470 290 371 343 280 349 c 1
 283 371 l 1
 394 366 504 304 485 178 c 0
 467 68 368 -10 249 -10 c 0
EndSplineSet
EndChar

StartChar: uniFF14
Encoding: 65300 65300 357
Width: 541
VWidth: 0
Flags: HMW
LayerCount: 2
Fore
SplineSet
17 140 m 1
 50 169 l 1
 386 170 l 1
 394 170 l 1
 514 170 l 1
 508 140 l 1
 17 140 l 1
53 141 m 1
 17 140 l 1
 486 699 l 1
 499 700 l 1
 378 0 l 1
 345 0 l 1
 372 152 l 1
 373 159 l 1
 451 616 l 1
 53 141 l 1
EndSplineSet
EndChar

StartChar: uniFF15
Encoding: 65301 65301 358
Width: 541
VWidth: 0
Flags: HMW
LayerCount: 2
Fore
SplineSet
498 230 m 0
 478 87 366 -10 233 -10 c 0
 128 -10 70 50 42 137 c 1
 72 155 l 1
 96 77 145 22 235 22 c 0
 352 22 445 109 464 230 c 0
 479 330 427 419 324 421 c 0
 242 423 176 383 116 328 c 1
 149 370 l 1
 192 417 262 453 337 452 c 0
 454 451 514 345 498 230 c 0
289 670 m 1
 167 377 l 1
 114 326 l 1
 268 700 l 1
 590 700 l 1
 585 670 l 1
 289 670 l 1
EndSplineSet
EndChar

StartChar: uniFF16
Encoding: 65302 65302 359
Width: 541
VWidth: 0
Flags: HMW
LayerCount: 2
Fore
SplineSet
96 223 m 0
 80 119 133 22 246 21 c 0
 360 20 452 113 469 223 c 0
 484 321 427 416 324 417 c 0
 205 418 114 326 96 223 c 0
417 699 m 1
 459 699 l 1
 174 373 l 1
 171 375 l 1
 215 416 270 444 335 443 c 0
 451 441 516 333 500 223 c 0
 481 94 378 -10 244 -10 c 0
 111 -10 46 99 64 223 c 0
 74 281 106 337 141 378 c 2
 417 699 l 1
EndSplineSet
EndChar

StartChar: uniFF17
Encoding: 65303 65303 360
Width: 541
VWidth: 0
Flags: HMW
LayerCount: 2
Fore
SplineSet
139 669 m 1
 144 700 l 1
 608 700 l 1
 138 0 l 1
 104 0 l 1
 552 668 l 1
 139 669 l 1
EndSplineSet
EndChar

StartChar: uniFF18
Encoding: 65304 65304 361
Width: 541
VWidth: 0
Flags: HMW
LayerCount: 2
Fore
SplineSet
162 538 m 0
 177 629 264 710 364 710 c 0
 463 710 524 625 510 537 c 0
 495 440 404 365 308 365 c 0
 213 365 148 444 162 538 c 0
192 535 m 0
 181 459 237 387 309 386 c 0
 383 385 466 455 479 535 c 0
 491 609 445 679 362 680 c 0
 278 681 205 613 192 535 c 0
81 187 m 0
 98 295 200 377 307 377 c 0
 412 377 486 292 471 186 c 0
 454 79 363 -10 244 -10 c 0
 126 -10 65 84 81 187 c 0
112 190 m 0
 97 99 148 21 246 20 c 0
 345 19 426 95 441 190 c 0
 454 277 393 354 306 355 c 0
 218 356 127 281 112 190 c 0
EndSplineSet
EndChar

StartChar: uniFF19
Encoding: 65305 65305 362
Width: 541
VWidth: 0
Flags: HMW
LayerCount: 2
Fore
SplineSet
512 477 m 0
 528 581 475 678 362 679 c 0
 248 680 156 587 139 477 c 0
 124 379 181 284 284 283 c 0
 403 282 494 374 512 477 c 0
190 0 m 1
 149 0 l 1
 434 327 l 1
 437 325 l 1
 393 284 338 256 273 257 c 0
 157 259 92 367 108 477 c 0
 127 606 230 710 364 710 c 0
 497 710 562 601 544 477 c 0
 534 419 502 363 467 322 c 2
 190 0 l 1
EndSplineSet
EndChar

StartChar: caron
Encoding: 711 711 363
Width: 465
VWidth: 0
Flags: HMW
LayerCount: 2
Fore
SplineSet
308 605 m 1
 465 727 l 1
 483 709 l 1
 304 570 l 1
 171 710 l 1
 194 728 l 1
 308 605 l 1
EndSplineSet
EndChar

StartChar: napostrophe
Encoding: 329 329 364
Width: 602
VWidth: 0
Flags: HMW
LayerCount: 2
Fore
SplineSet
255 460 m 1
 176 0 l 1
 145 0 l 1
 225 460 l 1
 255 460 l 1
485 308 m 2
 494 377 477 439 397 440 c 0
 308 441 243 361 224 281 c 1
 209 281 l 1
 229 379 303 470 405 470 c 0
 499 470 527 397 516 311 c 1
 462 0 l 1
 431 0 l 1
 485 308 l 2
248 699 m 1
 285 699 l 1
 150 471 l 1
 127 471 l 1
 248 699 l 1
EndSplineSet
EndChar

StartChar: IJ
Encoding: 306 306 365
Width: 475
VWidth: 0
Flags: HMW
LayerCount: 2
Fore
SplineSet
85 -142 m 1
 106 -166 135 -188 174 -188 c 0
 248 -188 283 -132 295 -50 c 1
 424 700 l 1
 455 700 l 1
 326 -60 l 2
 311 -154 264 -221 170 -220 c 0
 122 -220 83 -192 63 -166 c 1
 85 -142 l 1
173 700 m 1
 206 700 l 1
 85 0 l 1
 53 0 l 1
 173 700 l 1
EndSplineSet
EndChar

StartChar: ij
Encoding: 307 307 366
Width: 494
VWidth: 0
Flags: HMW
LayerCount: 2
Fore
SplineSet
411 682 m 0
 412 694 425 705 438 705 c 0
 451 705 459 693 458 681 c 0
 457 669 444 658 431 658 c 0
 418 658 410 670 411 682 c 0
129 -150 m 1
 145 -160 164 -187 189 -188 c 0
 251 -192 281 -124 290 -72 c 2
 382 460 l 1
 413 460 l 1
 321 -75 l 2
 309 -148 266 -222 184 -220 c 0
 146 -219 123 -196 107 -174 c 1
 129 -150 l 1
169 682 m 0
 170 694 182 705 195 705 c 0
 208 705 216 693 215 681 c 0
 214 669 201 658 188 658 c 0
 175 658 168 670 169 682 c 0
139 460 m 1
 170 460 l 1
 90 0 l 1
 60 0 l 1
 139 460 l 1
EndSplineSet
EndChar

StartChar: uni0237
Encoding: 567 567 367
Width: 194
VWidth: 0
Flags: HMW
LayerCount: 2
Fore
SplineSet
-123 -150 m 1
 -109 -170 -91 -187 -63 -188 c 0
 0 -189 28 -126 38 -72 c 2
 129 460 l 1
 160 460 l 1
 69 -75 l 2
 57 -148 14 -222 -68 -220 c 0
 -106 -219 -129 -196 -145 -174 c 1
 -123 -150 l 1
EndSplineSet
EndChar

StartChar: Sacute
Encoding: 346 346 368
Width: 490
VWidth: 0
Flags: HMW
LayerCount: 2
Fore
SplineSet
75 206 m 1
 92 120 129 25 235 24 c 0
 339 23 403 89 417 177 c 0
 431 269 362 320 288 353 c 0
 211 387 127 443 142 546 c 0
 157 641 247 708 345 708 c 0
 448 708 497 630 510 553 c 1
 480 538 l 1
 467 605 432 675 343 676 c 0
 262 676 189 620 176 544 c 0
 161 456 241 410 317 377 c 0
 396 342 466 282 452 179 c 0
 436 74 356 -9 230 -8 c 0
 112 -7 62 91 44 190 c 1
 75 206 l 1
542 922 m 1
 346 770 l 1
 330 782 l 1
 516 940 l 1
 542 922 l 1
EndSplineSet
EndChar

StartChar: sacute
Encoding: 347 347 369
Width: 391
VWidth: 0
Flags: HMW
LayerCount: 2
Fore
SplineSet
59 151 m 1
 64 87 90 20 171 20 c 0
 233 20 287 60 296 119 c 0
 306 179 255 206 200 226 c 0
 136 250 82 279 94 356 c 0
 105 425 174 468 245 468 c 0
 316 468 355 425 369 371 c 1
 342 357 l 1
 328 400 298 438 242 438 c 0
 187 438 134 407 125 354 c 0
 114 290 169 268 224 248 c 0
 284 225 338 189 328 121 c 0
 317 41 248 -11 167 -10 c 0
 73 -10 36 63 31 138 c 1
 59 151 l 1
441 683 m 1
 245 531 l 1
 229 544 l 1
 415 702 l 1
 441 683 l 1
EndSplineSet
EndChar

StartChar: Scircumflex
Encoding: 348 348 370
Width: 490
VWidth: 0
Flags: HMW
LayerCount: 2
Fore
SplineSet
75 206 m 1
 92 120 129 25 235 24 c 0
 339 23 403 89 417 177 c 0
 431 269 362 320 288 353 c 0
 211 387 127 443 142 546 c 0
 157 641 247 708 345 708 c 0
 448 708 497 630 510 553 c 1
 480 538 l 1
 467 605 432 675 343 676 c 0
 262 676 189 620 176 544 c 0
 161 456 241 410 317 377 c 0
 396 342 466 282 452 179 c 0
 436 74 356 -9 230 -8 c 0
 112 -7 62 91 44 190 c 1
 75 206 l 1
379 891 m 1
 222 769 l 1
 204 787 l 1
 383 925 l 1
 516 785 l 1
 494 769 l 1
 379 891 l 1
EndSplineSet
EndChar

StartChar: scircumflex
Encoding: 349 349 371
Width: 391
VWidth: 0
Flags: HMW
LayerCount: 2
Fore
SplineSet
59 151 m 1
 64 87 90 20 171 20 c 0
 233 20 287 60 296 119 c 0
 306 179 255 206 200 226 c 0
 136 250 82 279 94 356 c 0
 105 425 174 468 245 468 c 0
 316 468 355 425 369 371 c 1
 342 357 l 1
 328 400 298 438 242 438 c 0
 187 438 134 407 125 354 c 0
 114 290 169 268 224 248 c 0
 284 225 338 189 328 121 c 0
 317 41 248 -11 167 -10 c 0
 73 -10 36 63 31 138 c 1
 59 151 l 1
278 652 m 1
 121 531 l 1
 103 548 l 1
 282 687 l 1
 415 547 l 1
 393 530 l 1
 278 652 l 1
EndSplineSet
EndChar

StartChar: uni1E9E
Encoding: 7838 7838 372
Width: 660
VWidth: 0
Flags: HMW
LayerCount: 2
Fore
SplineSet
369 -10 m 0
 251 -10 186 80 197 185 c 1
 230 185 l 1
 221 97 272 22 371 22 c 0
 470 22 551 96 566 188 c 0
 584 295 496 343 392 348 c 1
 396 370 l 1
 517 366 619 310 599 185 c 0
 582 76 484 -10 369 -10 c 0
393 357 m 1
 397 379 l 1
 503 384 589 435 605 530 c 0
 620 622 539 678 445 679 c 0
 287 680 178 564 152 407 c 2
 82 0 l 1
 50 0 l 1
 119 407 l 2
 148 583 270 711 448 710 c 0
 558 710 656 645 639 534 c 0
 620 420 517 362 393 357 c 1
EndSplineSet
EndChar

StartChar: Zacute
Encoding: 377 377 373
Width: 521
VWidth: 0
Flags: HW
LayerCount: 2
Fore
SplineSet
124 668 m 1
 129 700 l 1
 599 700 l 1
 54 33 l 1
 472 32 l 1
 467 0 l 1
 -10 0 l 1
 535 667 l 1
 124 668 l 1
549 922 m 1
 351 770 l 1
 336 782 l 1
 523 940 l 1
 549 922 l 1
EndSplineSet
EndChar

StartChar: zacute
Encoding: 378 378 374
Width: 425
VWidth: 0
Flags: HW
LayerCount: 2
Fore
SplineSet
390 430 m 1
 86 430 l 1
 91 460 l 1
 454 460 l 1
 54 30 l 1
 381 30 l 1
 376 0 l 1
 -10 0 l 1
 390 430 l 1
458 690 m 1
 261 537 l 1
 246 550 l 1
 432 708 l 1
 458 690 l 1
EndSplineSet
EndChar

StartChar: Zdotaccent
Encoding: 379 379 375
Width: 521
VWidth: 0
Flags: HW
LayerCount: 2
Fore
SplineSet
124 668 m 1
 129 700 l 1
 599 700 l 1
 54 33 l 1
 472 32 l 1
 467 0 l 1
 -10 0 l 1
 535 667 l 1
 124 668 l 1
356 793 m 0
 357 805 371 817 383 817 c 0
 396 817 405 806 404 793 c 0
 403 781 388 769 376 769 c 0
 363 769 355 780 356 793 c 0
EndSplineSet
EndChar

StartChar: zdotaccent
Encoding: 380 380 376
Width: 425
VWidth: 0
Flags: HW
LayerCount: 2
Fore
SplineSet
390 430 m 1
 86 430 l 1
 91 460 l 1
 454 460 l 1
 54 30 l 1
 381 30 l 1
 376 0 l 1
 -10 0 l 1
 390 430 l 1
269 585 m 0
 270 597 285 609 297 609 c 0
 310 609 318 597 317 584 c 0
 316 572 302 560 290 560 c 0
 277 560 268 572 269 585 c 0
EndSplineSet
EndChar

StartChar: Tcaron
Encoding: 356 356 377
Width: 427
VWidth: 0
Flags: HW
LayerCount: 2
Fore
SplineSet
103 668 m 1
 108 700 l 1
 505 700 l 1
 499 668 l 1
 318 668 l 1
 203 0 l 1
 170 0 l 1
 284 668 l 1
 103 668 l 1
323 803 m 1
 480 926 l 1
 498 907 l 1
 319 769 l 1
 186 909 l 1
 209 926 l 1
 323 803 l 1
EndSplineSet
EndChar

StartChar: tcaron
Encoding: 357 357 378
Width: 291
VWidth: 0
Flags: HW
LayerCount: 2
Fore
SplineSet
63 460 m 1
 240 460 l 1
 234 430 l 1
 57 430 l 1
 63 460 l 1
163 620 m 1
 195 620 l 1
 87 0 l 1
 57 0 l 1
 163 620 l 1
379 785 m 1
 409 772 l 1
 259 524 l 1
 238 532 l 1
 379 785 l 1
EndSplineSet
EndChar

StartChar: Uring
Encoding: 366 366 379
Width: 572
VWidth: 0
Flags: HW
LayerCount: 2
Fore
SplineSet
172 700 m 1
 205 700 l 1
 123 223 l 2
 109 116 147 24 262 23 c 0
 377 22 453 111 472 223 c 1
 554 700 l 1
 588 700 l 1
 506 223 l 2
 484 94 397 -10 260 -10 c 0
 124 -10 74 99 90 223 c 1
 172 700 l 1
308 869 m 0
 316 924 371 968 424 968 c 0
 477 968 516 922 508 868 c 0
 500 813 445 769 392 769 c 0
 339 769 300 815 308 869 c 0
331 868 m 0
 325 827 353 791 394 790 c 0
 435 789 479 827 485 869 c 0
 491 910 463 946 422 947 c 0
 381 948 337 910 331 868 c 0
EndSplineSet
EndChar

StartChar: uring
Encoding: 367 367 380
Width: 474
VWidth: 0
Flags: HW
LayerCount: 2
Fore
SplineSet
338 0 m 1
 417 460 l 1
 449 460 l 1
 369 0 l 1
 338 0 l 1
110 159 m 2
 101 86 115 21 197 20 c 0
 286 19 351 99 370 179 c 1
 382 179 l 1
 362 81 289 -11 188 -10 c 0
 91 -10 68 67 79 156 c 1
 131 460 l 1
 162 460 l 1
 110 159 l 2
219 631 m 0
 227 686 282 730 335 730 c 0
 388 730 426 683 418 629 c 0
 410 574 355 530 302 530 c 0
 249 530 211 577 219 631 c 0
241 630 m 0
 235 589 263 553 304 552 c 0
 345 551 390 588 396 630 c 0
 402 671 374 707 333 708 c 0
 292 709 247 672 241 630 c 0
EndSplineSet
EndChar

StartChar: Wcircumflex
Encoding: 372 372 381
Width: 932
VWidth: 0
Flags: HW
LayerCount: 2
Fore
SplineSet
667 73 m 1
 973 700 l 1
 1010 700 l 1
 653 -23 l 1
 546 624 l 1
 232 -23 l 1
 108 700 l 1
 143 700 l 1
 249 73 l 1
 562 723 l 1
 667 73 l 1
595 904 m 1
 438 782 l 1
 420 800 l 1
 598 938 l 1
 731 798 l 1
 710 781 l 1
 595 904 l 1
EndSplineSet
EndChar

StartChar: wcircumflex
Encoding: 373 373 382
Width: 618
VWidth: 0
Flags: HW
LayerCount: 2
Fore
SplineSet
64 460 m 1
 97 460 l 1
 154 63 l 1
 360 482 l 1
 430 62 l 1
 626 460 l 1
 661 460 l 1
 418 -22 l 1
 347 397 l 1
 138 -22 l 1
 64 460 l 1
394 664 m 1
 236 542 l 1
 218 560 l 1
 397 698 l 1
 530 558 l 1
 508 541 l 1
 394 664 l 1
EndSplineSet
EndChar

StartChar: Ycircumflex
Encoding: 374 374 383
Width: 507
VWidth: 0
Flags: HW
LayerCount: 2
Fore
SplineSet
551 699 m 1
 591 699 l 1
 287 276 l 1
 240 0 l 1
 206 0 l 1
 255 278 l 1
 104 700 l 1
 141 700 l 1
 275 311 l 1
 551 699 l 1
378 891 m 1
 220 769 l 1
 202 787 l 1
 381 925 l 1
 514 785 l 1
 492 769 l 1
 378 891 l 1
EndSplineSet
EndChar

StartChar: ycircumflex
Encoding: 375 375 384
Width: 416
VWidth: 0
Flags: HW
LayerCount: 2
Fore
SplineSet
463 460 m 1
 55 -220 l 1
 19 -219 l 1
 173 35 l 1
 58 460 l 1
 94 460 l 1
 201 44 l 1
 183 46 l 1
 427 460 l 1
 463 460 l 1
287 652 m 1
 130 530 l 1
 112 548 l 1
 290 686 l 1
 423 546 l 1
 402 530 l 1
 287 652 l 1
EndSplineSet
EndChar

StartChar: Umacron
Encoding: 362 362 385
Width: 572
VWidth: 0
Flags: HW
LayerCount: 2
Fore
SplineSet
172 700 m 1
 205 700 l 1
 123 223 l 2
 109 116 147 24 262 23 c 0
 377 22 453 111 472 223 c 1
 554 700 l 1
 588 700 l 1
 506 223 l 2
 484 94 397 -10 260 -10 c 0
 124 -10 74 99 90 223 c 1
 172 700 l 1
221 769 m 1
 226 798 l 1
 567 798 l 1
 562 769 l 1
 221 769 l 1
EndSplineSet
EndChar

StartChar: umacron
Encoding: 363 363 386
Width: 474
VWidth: 0
Flags: HW
LayerCount: 2
Fore
SplineSet
338 0 m 1
 417 460 l 1
 449 460 l 1
 369 0 l 1
 338 0 l 1
110 159 m 2
 101 86 115 22 197 21 c 0
 286 20 350 99 369 179 c 1
 382 179 l 1
 362 81 290 -11 189 -10 c 0
 92 -10 68 66 79 156 c 1
 131 460 l 1
 162 460 l 1
 110 159 l 2
132 530 m 1
 136 560 l 1
 477 560 l 1
 472 530 l 1
 132 530 l 1
EndSplineSet
EndChar

StartChar: Ubreve
Encoding: 364 364 387
Width: 572
VWidth: 0
Flags: HW
LayerCount: 2
Fore
SplineSet
172 700 m 1
 205 700 l 1
 123 223 l 2
 109 116 147 24 262 23 c 0
 377 22 453 111 472 223 c 1
 554 700 l 1
 588 700 l 1
 506 223 l 2
 484 94 397 -10 260 -10 c 0
 124 -10 74 99 90 223 c 1
 172 700 l 1
261 909 m 1
 289 908 l 1
 284 851 317 796 394 796 c 0
 474 796 522 852 540 908 c 1
 569 907 l 1
 550 835 490 769 393 769 c 0
 297 769 255 836 261 909 c 1
EndSplineSet
EndChar

StartChar: ubreve
Encoding: 365 365 388
Width: 474
VWidth: 0
Flags: HW
LayerCount: 2
Fore
SplineSet
338 0 m 1
 417 460 l 1
 449 460 l 1
 369 0 l 1
 338 0 l 1
110 159 m 2
 101 86 115 22 197 21 c 0
 286 20 350 99 369 179 c 1
 382 179 l 1
 362 81 290 -11 189 -10 c 0
 92 -10 68 66 79 156 c 1
 131 460 l 1
 162 460 l 1
 110 159 l 2
172 670 m 1
 199 670 l 1
 194 613 227 557 304 557 c 0
 384 557 432 613 450 669 c 1
 479 669 l 1
 460 597 400 530 303 530 c 0
 207 530 166 597 172 670 c 1
EndSplineSet
EndChar

StartChar: Utilde
Encoding: 360 360 389
Width: 572
VWidth: 0
Flags: HW
LayerCount: 2
Fore
SplineSet
172 700 m 1
 205 700 l 1
 123 223 l 2
 109 116 147 24 262 23 c 0
 377 22 453 111 472 223 c 1
 554 700 l 1
 588 700 l 1
 506 223 l 2
 484 94 397 -10 260 -10 c 0
 124 -10 74 99 90 223 c 1
 172 700 l 1
260 781 m 1
 266 814 302 845 342 845 c 0
 391 845 408 798 455 799 c 0
 482 800 501 821 518 846 c 1
 536 830 l 1
 516 799 489 772 452 773 c 0
 405 773 384 819 342 819 c 0
 305 819 289 792 281 769 c 1
 260 781 l 1
EndSplineSet
EndChar

StartChar: utilde
Encoding: 361 361 390
Width: 474
VWidth: 0
Flags: HW
LayerCount: 2
Fore
SplineSet
338 0 m 1
 417 460 l 1
 449 460 l 1
 369 0 l 1
 338 0 l 1
110 159 m 2
 101 86 115 22 197 21 c 0
 286 20 350 99 369 179 c 1
 382 179 l 1
 362 81 290 -11 189 -10 c 0
 92 -10 68 66 79 156 c 1
 131 460 l 1
 162 460 l 1
 110 159 l 2
169 543 m 1
 181 575 209 607 252 607 c 0
 301 607 317 560 364 561 c 0
 391 562 410 583 428 608 c 1
 446 592 l 1
 426 561 398 533 361 534 c 0
 314 534 294 580 252 580 c 0
 215 580 198 553 190 530 c 1
 169 543 l 1
EndSplineSet
EndChar

StartChar: uni0123
Encoding: 291 291 391
Width: 553
VWidth: 0
Flags: HW
LayerCount: 2
Fore
SplineSet
461 822 m 1
 490 808 l 1
 317 574 l 1
 296 583 l 1
 461 822 l 1
21 -30 m 1
 52 -30 l 1
 42 -122 86 -199 188 -200 c 0
 295 -201 384 -112 403 10 c 1
 480 460 l 1
 511 460 l 1
 434 10 l 2
 412 -129 312 -230 186 -230 c 0
 66 -230 9 -140 21 -30 c 1
52 230 m 0
 71 363 176 471 304 470 c 0
 428 469 471 342 455 230 c 0
 437 110 348 -10 224 -10 c 0
 97 -10 35 104 52 230 c 0
84 230 m 0
 68 120 120 20 232 20 c 0
 337 20 424 126 441 233 c 0
 455 327 408 438 306 440 c 0
 194 442 102 346 84 230 c 0
EndSplineSet
EndChar

StartChar: Hbar
Encoding: 294 294 392
Width: 646
VWidth: 0
Flags: HW
LayerCount: 2
Fore
SplineSet
136 366 m 1
 141 397 l 1
 594 397 l 1
 589 366 l 1
 136 366 l 1
623 700 m 1
 657 700 l 1
 536 0 l 1
 504 0 l 1
 623 700 l 1
176 700 m 1
 211 700 l 1
 90 0 l 1
 57 0 l 1
 176 700 l 1
78 585 m 1
 82 615 l 1
 722 615 l 1
 717 585 l 1
 78 585 l 1
EndSplineSet
EndChar

StartChar: hbar
Encoding: 295 295 393
Width: 509
VWidth: 0
Flags: HW
LayerCount: 2
Fore
SplineSet
217 780 m 1
 83 0 l 1
 51 0 l 1
 186 780 l 1
 217 780 l 1
391 308 m 2
 400 377 384 438 304 439 c 0
 215 440 149 361 130 281 c 1
 119 281 l 1
 139 379 210 470 311 470 c 0
 405 470 434 397 423 311 c 1
 369 0 l 1
 338 0 l 1
 391 308 l 2
92 670 m 1
 97 700 l 1
 401 700 l 1
 396 670 l 1
 92 670 l 1
EndSplineSet
EndChar

StartChar: uni0400
Encoding: 1024 1024 394
Width: 533
VWidth: 0
Flags: HW
LayerCount: 2
Fore
SplineSet
73 0 m 1
 78 31 l 1
 411 31 l 1
 406 0 l 1
 73 0 l 1
187 669 m 1
 192 700 l 1
 525 700 l 1
 520 669 l 1
 187 669 l 1
136 371 m 1
 141 402 l 1
 455 402 l 1
 450 371 l 1
 136 371 l 1
176 700 m 1
 211 700 l 1
 90 0 l 1
 57 0 l 1
 176 700 l 1
249 942 m 1
 279 960 l 1
 413 800 l 1
 395 788 l 1
 249 942 l 1
EndSplineSet
EndChar

StartChar: uni0401
Encoding: 1025 1025 395
Width: 533
VWidth: 0
Flags: HW
LayerCount: 2
Fore
SplineSet
73 0 m 1
 78 31 l 1
 411 31 l 1
 406 0 l 1
 73 0 l 1
187 669 m 1
 192 700 l 1
 525 700 l 1
 520 669 l 1
 187 669 l 1
136 371 m 1
 141 402 l 1
 455 402 l 1
 450 371 l 1
 136 371 l 1
176 700 m 1
 211 700 l 1
 90 0 l 1
 57 0 l 1
 176 700 l 1
449 845 m 0
 450 857 465 869 477 869 c 0
 490 869 498 858 497 845 c 0
 496 833 482 821 470 821 c 0
 457 821 448 832 449 845 c 0
255 845 m 0
 256 857 271 869 283 869 c 0
 296 869 304 858 303 845 c 0
 302 833 288 821 276 821 c 0
 263 821 254 832 255 845 c 0
EndSplineSet
EndChar

StartChar: uni0403
Encoding: 1027 1027 396
Width: 422
VWidth: 0
Flags: HW
LayerCount: 2
Fore
SplineSet
169 700 m 1
 505 700 l 1
 500 669 l 1
 197 669 l 1
 82 0 l 1
 50 0 l 1
 169 700 l 1
518 941 m 1
 321 788 l 1
 306 801 l 1
 491 959 l 1
 518 941 l 1
EndSplineSet
EndChar

StartChar: uni040C
Encoding: 1036 1036 397
Width: 548
VWidth: 0
Flags: HW
LayerCount: 2
Fore
SplineSet
173 700 m 1
 207 700 l 1
 86 0 l 1
 53 0 l 1
 173 700 l 1
497 699 m 1
 541 699 l 1
 181 371 l 1
 434 0 l 1
 393 0 l 1
 141 373 l 1
 497 699 l 1
576 940 m 1
 380 788 l 1
 364 801 l 1
 550 959 l 1
 576 940 l 1
EndSplineSet
EndChar

StartChar: uni040D
Encoding: 1037 1037 398
Width: 717
VWidth: 0
Flags: HW
LayerCount: 2
Fore
SplineSet
719 677 m 1
 49 -36 l 1
 65 23 l 1
 734 737 l 1
 719 677 l 1
210 700 m 1
 91 13 l 1
 49 -36 l 1
 177 700 l 1
 210 700 l 1
734 737 m 1
 607 0 l 1
 574 0 l 1
 693 689 l 1
 734 737 l 1
323 918 m 1
 353 935 l 1
 487 775 l 1
 469 763 l 1
 323 918 l 1
EndSplineSet
EndChar

StartChar: uni040E
Encoding: 1038 1038 399
Width: 490
VWidth: 0
Flags: HW
LayerCount: 2
Fore
SplineSet
585 700 m 1
 145 0 l 1
 108 0 l 1
 245 221 l 1
 93 700 l 1
 129 700 l 1
 274 230 l 1
 256 232 l 1
 548 700 l 1
 585 700 l 1
219 908 m 1
 247 908 l 1
 243 851 275 796 352 796 c 0
 432 796 481 852 498 908 c 1
 526 907 l 1
 507 835 447 769 350 769 c 0
 254 769 213 835 219 908 c 1
EndSplineSet
EndChar

StartChar: uni0410
Encoding: 1040 1040 400
Width: 640
VWidth: 0
Flags: HW
LayerCount: 2
Fore
SplineSet
147 253 m 1
 160 284 l 1
 484 284 l 1
 488 253 l 1
 147 253 l 1
384 643 m 1
 175 273 l 1
 171 265 l 1
 21 0 l 1
 -17 0 l 1
 396 722 l 1
 561 0 l 1
 525 0 l 1
 468 263 l 1
 466 271 l 1
 384 643 l 1
EndSplineSet
EndChar

StartChar: uni0411
Encoding: 1041 1041 401
Width: 503
VWidth: 0
Flags: HW
LayerCount: 2
Fore
SplineSet
135 389 m 1
 141 420 l 1
 277 420 l 1
 404 419 496 334 476 210 c 0
 456 83 341 1 210 0 c 1
 68 0 l 1
 74 31 l 1
 211 31 l 2
 325 32 424 101 443 210 c 0
 461 316 386 387 276 388 c 1
 135 389 l 1
169 700 m 1
 507 700 l 1
 502 669 l 1
 197 669 l 1
 82 0 l 1
 50 0 l 1
 169 700 l 1
EndSplineSet
EndChar

StartChar: uni0412
Encoding: 1042 1042 402
Width: 541
VWidth: 0
Flags: HW
LayerCount: 2
Fore
SplineSet
147 381 m 1
 150 401 l 1
 252 401 l 1
 341 403 423 444 438 534 c 0
 453 619 393 668 301 669 c 1
 204 669 l 1
 95 31 l 1
 198 31 l 1
 311 32 400 91 418 203 c 0
 434 303 354 370 259 371 c 1
 145 372 l 1
 148 391 l 1
 266 391 l 1
 369 391 469 320 452 201 c 0
 433 69 327 1 196 0 c 1
 56 0 l 1
 177 700 l 1
 302 700 l 1
 413 699 489 639 472 535 c 0
 456 432 364 383 258 381 c 2
 147 381 l 1
EndSplineSet
EndChar

StartChar: uni0413
Encoding: 1043 1043 403
Width: 422
VWidth: 0
Flags: HW
LayerCount: 2
Fore
SplineSet
169 700 m 1
 505 700 l 1
 500 669 l 1
 197 669 l 1
 82 0 l 1
 50 0 l 1
 169 700 l 1
EndSplineSet
EndChar

StartChar: uni0414
Encoding: 1044 1044 404
Width: 771
VWidth: 0
Flags: HW
LayerCount: 2
Fore
SplineSet
470 655 m 1
 118 16 l 1
 81 16 l 1
 482 736 l 1
 635 15 l 1
 601 15 l 1
 470 655 l 1
672 0 m 1
 42 0 l 1
 22 -110 l 1
 -8 -110 l 1
 17 31 l 1
 707 31 l 1
 682 -110 l 1
 652 -110 l 1
 672 0 l 1
EndSplineSet
EndChar

StartChar: uni0415
Encoding: 1045 1045 405
Width: 533
VWidth: 0
Flags: HW
LayerCount: 2
Fore
SplineSet
73 0 m 1
 78 31 l 1
 411 31 l 1
 406 0 l 1
 73 0 l 1
187 669 m 1
 192 700 l 1
 525 700 l 1
 520 669 l 1
 187 669 l 1
136 371 m 1
 141 402 l 1
 455 402 l 1
 450 371 l 1
 136 371 l 1
176 700 m 1
 211 700 l 1
 90 0 l 1
 57 0 l 1
 176 700 l 1
EndSplineSet
EndChar

StartChar: uni0416
Encoding: 1046 1046 406
Width: 696
VWidth: 0
Flags: HW
LayerCount: 2
Fore
SplineSet
152 700 m 1
 380 369 l 1
 20 0 l 1
 -25 0 l 1
 341 372 l 1
 113 700 l 1
 152 700 l 1
429 700 m 1
 463 700 l 1
 342 0 l 1
 310 0 l 1
 429 700 l 1
727 699 m 1
 772 699 l 1
 434 369 l 1
 664 0 l 1
 624 0 l 1
 399 372 l 1
 727 699 l 1
EndSplineSet
EndChar

StartChar: uni0417
Encoding: 1047 1047 407
Width: 588
VWidth: 0
Flags: HW
LayerCount: 2
Fore
SplineSet
308 356 m 1
 311 377 l 1
 427 381 535 427 554 523 c 0
 570 612 502 679 399 679 c 0
 287 680 206 616 181 527 c 1
 149 527 l 1
 175 635 271 710 400 710 c 0
 522 710 606 627 588 524 c 0
 567 412 444 360 308 356 c 1
277 -10 m 0
 133 -10 49 68 62 185 c 1
 95 185 l 1
 86 85 155 22 278 22 c 0
 401 22 499 85 517 188 c 0
 538 310 421 344 307 347 c 1
 310 369 l 1
 444 367 572 325 549 185 c 0
 529 63 417 -10 277 -10 c 0
EndSplineSet
EndChar

StartChar: uni0418
Encoding: 1048 1048 408
Width: 717
VWidth: 0
Flags: HW
LayerCount: 2
Fore
SplineSet
719 677 m 1
 49 -36 l 1
 65 23 l 1
 734 737 l 1
 719 677 l 1
210 700 m 1
 91 13 l 1
 49 -36 l 1
 177 700 l 1
 210 700 l 1
734 737 m 1
 607 0 l 1
 574 0 l 1
 693 689 l 1
 734 737 l 1
EndSplineSet
EndChar

StartChar: uni041A
Encoding: 1050 1050 410
Width: 548
VWidth: 0
Flags: HW
LayerCount: 2
Fore
SplineSet
173 700 m 1
 207 700 l 1
 86 0 l 1
 53 0 l 1
 173 700 l 1
497 699 m 1
 541 699 l 1
 181 370 l 1
 434 0 l 1
 393 0 l 1
 141 373 l 1
 497 699 l 1
EndSplineSet
EndChar

StartChar: uni041B
Encoding: 1051 1051 411
Width: 607
VWidth: 0
Flags: HW
LayerCount: 2
Fore
SplineSet
624 700 m 1
 503 0 l 1
 470 0 l 1
 586 669 l 1
 218 669 l 1
 145 240 l 2
 127 125 78 14 -18 1 c 1
 -13 29 l 1
 63 45 99 150 114 246 c 2
 192 700 l 1
 624 700 l 1
EndSplineSet
EndChar

StartChar: uni041C
Encoding: 1052 1052 412
Width: 786
VWidth: 0
Flags: HW
LayerCount: 2
Fore
SplineSet
227 612 m 1
 58 0 l 1
 24 0 l 1
 224 722 l 1
 399 162 l 1
 769 723 l 1
 720 0 l 1
 687 0 l 1
 729 610 l 1
 389 92 l 1
 227 612 l 1
EndSplineSet
EndChar

StartChar: uni041D
Encoding: 1053 1053 413
Width: 693
VWidth: 0
Flags: HW
LayerCount: 2
Fore
SplineSet
136 366 m 1
 141 397 l 1
 594 397 l 1
 589 366 l 1
 136 366 l 1
623 700 m 1
 657 700 l 1
 536 0 l 1
 504 0 l 1
 623 700 l 1
176 700 m 1
 211 700 l 1
 90 0 l 1
 57 0 l 1
 176 700 l 1
EndSplineSet
EndChar

StartChar: uni041E
Encoding: 1054 1054 414
Width: 766
VWidth: 0
Flags: HW
LayerCount: 2
Fore
SplineSet
113 350 m 0
 88 183 173 26 353 25 c 0
 535 24 679 174 708 350 c 0
 733 517 648 674 468 675 c 0
 286 676 142 526 113 350 c 0
78 350 m 0
 108 546 270 709 470 709 c 0
 668 709 771 536 744 350 c 0
 714 154 551 -9 351 -9 c 0
 153 -9 51 164 78 350 c 0
EndSplineSet
EndChar

StartChar: uni041F
Encoding: 1055 1055 415
Width: 642
VWidth: 0
Flags: HW
LayerCount: 2
Fore
SplineSet
622 669 m 1
 197 669 l 1
 82 0 l 1
 50 0 l 1
 170 700 l 1
 659 700 l 1
 538 0 l 1
 506 0 l 1
 622 669 l 1
EndSplineSet
EndChar

StartChar: uni0420
Encoding: 1056 1056 416
Width: 531
VWidth: 0
Flags: HW
LayerCount: 2
Fore
SplineSet
176 700 m 1
 211 700 l 1
 90 0 l 1
 57 0 l 1
 176 700 l 1
189 669 m 1
 195 700 l 1
 316 700 l 1
 438 699 518 616 499 495 c 0
 480 371 376 291 250 290 c 1
 125 290 l 1
 130 321 l 1
 251 321 l 2
 360 322 447 388 465 495 c 0
 482 599 419 667 313 668 c 1
 189 669 l 1
EndSplineSet
EndChar

StartChar: uni0421
Encoding: 1057 1057 417
Width: 664
VWidth: 0
Flags: HW
LayerCount: 2
Fore
SplineSet
113 350 m 0
 88 184 172 28 347 26 c 0
 442 25 519 61 583 115 c 1
 576 70 l 1
 510 21 439 -8 345 -8 c 0
 149 -7 51 164 78 350 c 0
 108 546 266 708 464 709 c 0
 553 709 615 683 671 630 c 1
 664 585 l 1
 615 644 546 674 461 674 c 0
 284 673 142 527 113 350 c 0
EndSplineSet
EndChar

StartChar: uni0422
Encoding: 1058 1058 418
Width: 451
VWidth: 0
Flags: HW
LayerCount: 2
Fore
SplineSet
103 668 m 1
 108 700 l 1
 505 700 l 1
 499 668 l 1
 318 668 l 1
 203 0 l 1
 170 0 l 1
 284 668 l 1
 103 668 l 1
EndSplineSet
EndChar

StartChar: uni0423
Encoding: 1059 1059 419
Width: 490
VWidth: 0
Flags: HW
LayerCount: 2
Fore
SplineSet
585 700 m 1
 145 0 l 1
 108 0 l 1
 245 220 l 1
 93 700 l 1
 129 700 l 1
 274 230 l 1
 256 232 l 1
 548 700 l 1
 585 700 l 1
EndSplineSet
EndChar

StartChar: uni0424
Encoding: 1060 1060 420
Width: 723
VWidth: 0
Flags: HW
LayerCount: 2
Fore
SplineSet
438 700 m 1
 472 700 l 1
 351 0 l 1
 319 0 l 1
 438 700 l 1
686 350 m 0
 711 496 601 584 449 586 c 1
 424 586 l 2
 266 584 129 499 103 350 c 0
 78 204 188 114 340 112 c 1
 365 112 l 2
 523 114 660 201 686 350 c 0
719 350 m 0
 692 183 539 82 363 80 c 1
 338 80 l 1
 168 82 45 186 71 350 c 0
 98 517 250 618 426 620 c 1
 452 620 l 1
 622 618 745 514 719 350 c 0
EndSplineSet
EndChar

StartChar: uni0425
Encoding: 1061 1061 421
Width: 538
VWidth: 0
Flags: HW
LayerCount: 2
Fore
SplineSet
523 699 m 1
 565 699 l 1
 305 365 l 1
 458 0 l 1
 419 0 l 1
 284 336 l 1
 29 0 l 1
 -12 0 l 1
 272 369 l 1
 133 700 l 1
 172 700 l 1
 293 398 l 1
 523 699 l 1
EndSplineSet
EndChar

StartChar: uni0426
Encoding: 1062 1062 422
Width: 686
VWidth: 0
Flags: HW
LayerCount: 2
Fore
SplineSet
87 31 m 1
 511 31 l 1
 626 700 l 1
 659 700 l 1
 544 31 l 1
 627 31 l 1
 602 -110 l 1
 572 -110 l 1
 592 0 l 1
 50 0 l 1
 170 700 l 1
 202 700 l 1
 87 31 l 1
EndSplineSet
EndChar

StartChar: uni0427
Encoding: 1063 1063 423
Width: 545
VWidth: 0
Flags: HW
LayerCount: 2
Fore
SplineSet
302 280 m 1
 307 310 l 1
 485 310 l 1
 480 280 l 1
 302 280 l 1
529 700 m 1
 562 700 l 1
 441 0 l 1
 409 0 l 1
 529 700 l 1
202 700 m 1
 169 518 l 2
 151 408 197 310 307 310 c 1
 302 280 l 1
 173 280 119 393 138 518 c 1
 170 700 l 1
 202 700 l 1
EndSplineSet
EndChar

StartChar: uni0428
Encoding: 1064 1064 424
Width: 904
VWidth: 0
Flags: HW
LayerCount: 2
Fore
SplineSet
773 31 m 1
 888 700 l 1
 921 700 l 1
 801 0 l 1
 50 0 l 1
 170 700 l 1
 203 700 l 1
 88 31 l 1
 414 31 l 1
 529 700 l 1
 562 700 l 1
 447 31 l 1
 773 31 l 1
EndSplineSet
EndChar

StartChar: uni0429
Encoding: 1065 1065 425
Width: 948
VWidth: 0
Flags: HW
LayerCount: 2
Fore
SplineSet
773 31 m 1
 888 700 l 1
 921 700 l 1
 806 31 l 1
 889 31 l 1
 864 -110 l 1
 834 -110 l 1
 854 0 l 1
 50 0 l 1
 170 700 l 1
 203 700 l 1
 88 31 l 1
 414 31 l 1
 529 700 l 1
 562 700 l 1
 447 31 l 1
 773 31 l 1
EndSplineSet
EndChar

StartChar: uni042A
Encoding: 1066 1066 426
Width: 609
VWidth: 0
Flags: HW
LayerCount: 2
Fore
SplineSet
240 389 m 1
 246 420 l 1
 383 420 l 2
 510 420 601 333 581 209 c 0
 561 82 446 0 315 0 c 2
 174 0 l 1
 179 31 l 1
 317 31 l 2
 431 32 529 101 548 210 c 0
 566 316 491 388 381 388 c 2
 240 389 l 1
272 669 m 1
 96 669 l 1
 102 700 l 1
 310 700 l 1
 189 0 l 1
 157 0 l 1
 272 669 l 1
EndSplineSet
EndChar

StartChar: uni042B
Encoding: 1067 1067 427
Width: 687
VWidth: 0
Flags: HW
LayerCount: 2
Fore
SplineSet
667 700 m 1
 701 700 l 1
 580 0 l 1
 548 0 l 1
 667 700 l 1
166 700 m 1
 200 700 l 1
 79 0 l 1
 47 0 l 1
 166 700 l 1
130 389 m 1
 136 420 l 1
 273 420 l 2
 400 420 491 333 471 209 c 0
 451 82 336 0 205 0 c 2
 64 0 l 1
 69 31 l 1
 207 31 l 2
 321 32 419 101 438 210 c 0
 456 316 381 388 271 388 c 2
 130 389 l 1
EndSplineSet
EndChar

StartChar: uni042C
Encoding: 1068 1068 428
Width: 499
VWidth: 0
Flags: HW
LayerCount: 2
Fore
SplineSet
166 700 m 1
 200 700 l 1
 79 0 l 1
 47 0 l 1
 166 700 l 1
130 389 m 1
 136 420 l 1
 273 420 l 2
 400 420 491 333 471 209 c 0
 451 82 336 0 205 0 c 2
 64 0 l 1
 69 31 l 1
 207 31 l 2
 321 32 419 101 438 210 c 0
 456 316 381 388 271 388 c 2
 130 389 l 1
EndSplineSet
EndChar

StartChar: uni042D
Encoding: 1069 1069 429
Width: 664
VWidth: 0
Flags: HW
LayerCount: 2
Fore
SplineSet
178 334 m 1
 183 366 l 1
 620 366 l 1
 615 334 l 1
 178 334 l 1
617 350 m 0
 642 517 558 672 383 674 c 0
 290 675 212 639 148 586 c 1
 154 630 l 1
 220 679 291 708 385 708 c 0
 581 707 679 536 652 350 c 0
 622 154 464 -8 266 -9 c 0
 177 -9 115 17 59 70 c 1
 66 115 l 1
 115 55 182 26 269 26 c 0
 446 27 588 174 617 350 c 0
EndSplineSet
EndChar

StartChar: uni042E
Encoding: 1070 1070 430
Width: 994
VWidth: 0
Flags: HW
LayerCount: 2
Fore
SplineSet
131 364 m 1
 137 396 l 1
 351 396 l 1
 346 364 l 1
 131 364 l 1
170 700 m 1
 203 700 l 1
 82 0 l 1
 50 0 l 1
 170 700 l 1
353 351 m 0
 328 184 413 26 593 25 c 0
 775 24 919 174 948 351 c 0
 973 518 888 675 708 676 c 0
 526 677 382 527 353 351 c 0
318 351 m 0
 348 547 510 710 710 710 c 0
 908 710 1010 537 983 351 c 0
 953 155 791 -9 591 -9 c 0
 393 -9 291 165 318 351 c 0
EndSplineSet
EndChar

StartChar: uni042F
Encoding: 1071 1071 431
Width: 480
VWidth: 0
Flags: HW
LayerCount: 2
Fore
SplineSet
317 325 m 1
 41 0 l 1
 -2 0 l 1
 278 325 l 1
 317 325 l 1
491 700 m 1
 370 0 l 1
 336 0 l 1
 457 700 l 1
 491 700 l 1
469 669 m 1
 352 669 l 2
 239 668 144 611 125 502 c 0
 107 395 183 335 292 334 c 1
 412 333 l 1
 407 304 l 1
 289 304 l 1
 164 305 72 378 92 502 c 0
 112 628 224 699 354 700 c 2
 475 700 l 1
 469 669 l 1
EndSplineSet
EndChar

StartChar: uni0430
Encoding: 1072 1072 432
Width: 533
VWidth: 0
Flags: HW
LayerCount: 2
Fore
SplineSet
481 460 m 1
 511 460 l 1
 431 0 l 1
 403 0 l 1
 481 460 l 1
52 230 m 0
 71 363 176 471 304 470 c 0
 428 469 471 342 455 230 c 0
 437 110 348 -10 224 -10 c 0
 97 -10 35 104 52 230 c 0
84 230 m 0
 68 120 120 19 232 20 c 0
 336 21 424 125 441 230 c 0
 455 327 409 438 306 440 c 0
 194 442 102 346 84 230 c 0
EndSplineSet
EndChar

StartChar: uni0431
Encoding: 1073 1073 433
Width: 529
VWidth: 0
Flags: HW
LayerCount: 2
Fore
SplineSet
315 440 m 1
 320 470 l 1
 452 470 533 362 515 230 c 0
 496 98 383 -10 248 -10 c 0
 106 -10 53 109 53 235 c 1
 86 205 l 1
 86 119 132 20 249 20 c 0
 363 20 466 114 483 230 c 0
 501 347 429 440 315 440 c 1
68 213 m 1
 75 351 195 470 320 470 c 1
 315 440 l 1
 208 440 86 335 86 205 c 1
 68 213 l 1
53 235 m 1
 53 419 158 597 318 656 c 0
 399 686 447 725 475 780 c 1
 506 779 l 1
 478 708 416 663 325 629 c 0
 179 574 81 407 81 257 c 2
 81 206 l 1
 53 235 l 1
EndSplineSet
EndChar

StartChar: uni0432
Encoding: 1074 1074 434
Width: 410
VWidth: 0
Flags: HW
LayerCount: 2
Fore
SplineSet
103 234 m 1
 230 234 l 2
 312 233 390 212 377 124 c 0
 365 50 304 0 213 0 c 2
 63 0 l 1
 67 28 l 1
 209 28 l 2
 284 28 337 69 347 128 c 0
 357 201 288 216 230 217 c 2
 100 217 l 1
 103 234 l 1
101 226 m 1
 104 245 l 1
 223 245 l 2
 276 246 351 268 362 334 c 0
 373 398 321 432 257 432 c 2
 136 432 l 1
 141 460 l 1
 259 460 l 2
 338 460 407 419 393 334 c 0
 380 256 302 228 222 226 c 2
 101 226 l 1
124 460 m 1
 156 460 l 1
 76 0 l 1
 45 0 l 1
 124 460 l 1
EndSplineSet
EndChar

StartChar: uni0433
Encoding: 1075 1075 435
Width: 299
VWidth: 0
Flags: HW
LayerCount: 2
Fore
SplineSet
128 460 m 1
 347 460 l 1
 342 430 l 1
 155 430 l 1
 81 0 l 1
 50 0 l 1
 128 460 l 1
EndSplineSet
EndChar

StartChar: uni0434
Encoding: 1076 1076 436
Width: 635
VWidth: 0
Flags: HW
LayerCount: 2
Fore
SplineSet
362 425 m 1
 107 15 l 1
 71 15 l 1
 373 496 l 1
 509 14 l 1
 476 14 l 1
 362 425 l 1
536 0 m 1
 45 0 l 1
 28 -90 l 1
 -5 -90 l 1
 17 30 l 1
 571 30 l 1
 549 -90 l 1
 519 -90 l 1
 536 0 l 1
EndSplineSet
EndChar

StartChar: uni0435
Encoding: 1077 1077 437
Width: 494
VWidth: 0
Flags: HW
LayerCount: 2
Fore
SplineSet
78 223 m 1
 82 250 l 1
 438 250 l 1
 455 344 405 440 302 441 c 0
 197 442 110 351 92 241 c 1
 90 232 l 1
 78 125 122 21 231 20 c 0
 321 19 376 72 419 123 c 1
 443 106 l 1
 394 48 333 -11 226 -10 c 0
 103 -9 44 110 59 231 c 0
 63 255 68 277 77 299 c 0
 113 393 199 470 304 470 c 0
 421 469 486 364 472 248 c 0
 471 240 468 231 466 223 c 1
 78 223 l 1
EndSplineSet
EndChar

StartChar: uni0436
Encoding: 1078 1078 438
Width: 505
VWidth: 0
Flags: HW
LayerCount: 2
Fore
SplineSet
492 459 m 1
 533 459 l 1
 313 265 l 1
 472 0 l 1
 435 0 l 1
 279 272 l 1
 492 459 l 1
320 460 m 1
 240 0 l 1
 211 0 l 1
 290 460 l 1
 320 460 l 1
115 460 m 1
 265 269 l 1
 19 0 l 1
 -22 0 l 1
 229 268 l 1
 78 460 l 1
 115 460 l 1
EndSplineSet
EndChar

StartChar: uni0437
Encoding: 1079 1079 439
Width: 461
VWidth: 0
Flags: HW
LayerCount: 2
Fore
SplineSet
249 240 m 1
 252 259 l 1
 311 261 386 272 398 336 c 0
 409 391 360 440 292 440 c 0
 220 440 164 386 147 327 c 1
 115 327 l 1
 134 403 204 470 291 470 c 0
 378 470 443 406 429 333 c 0
 415 259 338 242 249 240 c 1
214 -10 m 0
 114 -10 58 57 56 145 c 1
 86 145 l 1
 89 74 130 19 215 19 c 0
 287 19 373 62 384 135 c 0
 396 210 311 230 248 232 c 1
 251 251 l 1
 338 249 428 219 415 134 c 0
 402 46 305 -10 214 -10 c 0
EndSplineSet
EndChar

StartChar: uni0438
Encoding: 1080 1080 440
Width: 480
VWidth: 0
Flags: HW
LayerCount: 2
Fore
SplineSet
448 438 m 1
 43 -36 l 1
 58 22 l 1
 463 497 l 1
 448 438 l 1
161 460 m 1
 83 11 l 1
 43 -36 l 1
 129 460 l 1
 161 460 l 1
463 497 m 1
 377 0 l 1
 345 0 l 1
 423 449 l 1
 463 497 l 1
EndSplineSet
EndChar

StartChar: uni0439
Encoding: 1081 1081 441
Width: 480
VWidth: 0
Flags: HW
LayerCount: 2
Fore
SplineSet
448 438 m 1
 43 -36 l 1
 58 22 l 1
 463 497 l 1
 448 438 l 1
161 460 m 1
 83 11 l 1
 43 -36 l 1
 129 460 l 1
 161 460 l 1
463 497 m 1
 377 0 l 1
 345 0 l 1
 423 449 l 1
 463 497 l 1
170 692 m 1
 197 692 l 1
 194 634 227 579 304 579 c 0
 384 579 432 634 449 691 c 1
 477 691 l 1
 458 619 400 552 303 552 c 0
 207 552 165 619 170 692 c 1
EndSplineSet
EndChar

StartChar: uni043A
Encoding: 1082 1082 442
Width: 426
VWidth: 0
Flags: HW
LayerCount: 2
Fore
SplineSet
126 460 m 1
 158 460 l 1
 78 0 l 1
 47 0 l 1
 126 460 l 1
366 459 m 1
 409 459 l 1
 152 269 l 1
 347 0 l 1
 309 0 l 1
 114 271 l 1
 366 459 l 1
EndSplineSet
EndChar

StartChar: uni043B
Encoding: 1083 1083 443
Width: 493
VWidth: 0
Flags: HW
LayerCount: 2
Fore
SplineSet
469 460 m 1
 390 0 l 1
 358 0 l 1
 432 430 l 1
 158 430 l 1
 112 160 l 2
 97 66 55 10 -18 0 c 1
 -13 29 l 1
 38 40 69 87 80 160 c 1
 132 460 l 1
 469 460 l 1
EndSplineSet
EndChar

StartChar: uni043C
Encoding: 1084 1084 444
Width: 589
VWidth: 0
Flags: HW
LayerCount: 2
Fore
SplineSet
522 0 m 1
 499 428 l 1
 526 497 l 1
 557 0 l 1
 522 0 l 1
261 28 m 1
 526 496 l 1
 514 416 l 1
 260 -31 l 1
 261 28 l 1
260 -32 m 1
 164 420 l 1
 179 496 l 1
 279 25 l 1
 260 -32 l 1
-24 0 m 1
 180 496 l 1
 183 426 l 1
 14 0 l 1
 -24 0 l 1
EndSplineSet
EndChar

StartChar: uni043D
Encoding: 1085 1085 445
Width: 500
VWidth: 0
Flags: HW
LayerCount: 2
Fore
SplineSet
104 229 m 1
 108 259 l 1
 432 259 l 1
 428 229 l 1
 104 229 l 1
449 460 m 1
 481 460 l 1
 401 0 l 1
 370 0 l 1
 449 460 l 1
124 460 m 1
 156 460 l 1
 76 0 l 1
 45 0 l 1
 124 460 l 1
EndSplineSet
EndChar

StartChar: uni043E
Encoding: 1086 1086 446
Width: 529
VWidth: 0
Flags: HW
LayerCount: 2
Fore
SplineSet
52 230 m 0
 72 361 185 470 319 470 c 0
 452 470 527 356 509 230 c 0
 489 99 375 -10 241 -10 c 0
 108 -10 34 104 52 230 c 0
84 230 m 0
 67 121 128 21 243 20 c 0
 360 19 458 115 477 230 c 0
 494 339 433 439 318 440 c 0
 201 441 103 345 84 230 c 0
EndSplineSet
EndChar

StartChar: uni043F
Encoding: 1087 1087 447
Width: 461
VWidth: 0
Flags: HW
LayerCount: 2
Fore
SplineSet
442 460 m 1
 362 0 l 1
 331 0 l 1
 405 430 l 1
 150 430 l 1
 76 0 l 1
 45 0 l 1
 124 460 l 1
 442 460 l 1
EndSplineSet
EndChar

StartChar: uni0440
Encoding: 1088 1088 448
Width: 553
VWidth: 0
Flags: HW
LayerCount: 2
Fore
SplineSet
41 -220 m 1
 9 -220 l 1
 126 460 l 1
 157 460 l 1
 41 -220 l 1
506 230 m 0
 487 97 383 -11 255 -10 c 0
 131 -9 87 118 103 230 c 0
 121 350 209 470 333 470 c 0
 460 471 523 356 506 230 c 0
474 230 m 0
 490 340 438 441 326 440 c 0
 222 439 135 335 118 230 c 0
 104 133 148 22 251 20 c 0
 363 18 456 114 474 230 c 0
EndSplineSet
EndChar

StartChar: uni0441
Encoding: 1089 1089 449
Width: 463
VWidth: 0
Flags: HW
LayerCount: 2
Fore
SplineSet
79 230 m 0
 62 121 123 22 238 21 c 0
 307 21 367 54 403 87 c 1
 397 48 l 1
 359 17 301 -10 236 -10 c 0
 103 -10 29 104 47 230 c 0
 67 362 181 470 315 470 c 0
 376 470 429 445 459 412 c 1
 453 372 l 1
 429 409 377 440 313 440 c 0
 196 440 98 345 79 230 c 0
EndSplineSet
EndChar

StartChar: uni0442
Encoding: 1090 1090 450
Width: 271
VWidth: 0
Flags: HW
LayerCount: 2
Fore
SplineSet
56 460 m 1
 319 460 l 1
 313 430 l 1
 51 430 l 1
 56 460 l 1
170 450 m 1
 202 450 l 1
 124 0 l 1
 93 0 l 1
 170 450 l 1
EndSplineSet
EndChar

StartChar: uni0443
Encoding: 1091 1091 451
Width: 426
VWidth: 0
Flags: HW
LayerCount: 2
Fore
SplineSet
463 460 m 1
 55 -220 l 1
 18 -219 l 1
 172 35 l 1
 58 460 l 1
 94 460 l 1
 201 44 l 1
 183 46 l 1
 427 460 l 1
 463 460 l 1
EndSplineSet
EndChar

StartChar: uni0444
Encoding: 1092 1092 452
Width: 568
VWidth: 0
Flags: HW
LayerCount: 2
Fore
SplineSet
337 560 m 1
 369 560 l 1
 255 -100 l 1
 225 -100 l 1
 337 560 l 1
46 230 m 0
 68 367 187 470 336 470 c 0
 482 470 568 363 547 230 c 0
 525 93 406 -10 257 -10 c 0
 111 -10 25 97 46 230 c 0
77 230 m 0
 58 117 128 21 259 20 c 0
 392 19 496 113 516 230 c 0
 535 343 465 439 334 440 c 0
 201 441 97 347 77 230 c 0
EndSplineSet
EndChar

StartChar: uni0445
Encoding: 1093 1093 453
Width: 407
VWidth: 0
Flags: HW
LayerCount: 2
Fore
SplineSet
378 459 m 1
 417 459 l 1
 220 236 l 1
 346 0 l 1
 310 0 l 1
 201 211 l 1
 17 0 l 1
 -22 0 l 1
 187 238 l 1
 68 460 l 1
 104 460 l 1
 207 263 l 1
 378 459 l 1
EndSplineSet
EndChar

StartChar: uni0446
Encoding: 1094 1094 454
Width: 500
VWidth: 0
Flags: HW
LayerCount: 2
Fore
SplineSet
367 30 m 1
 446 30 l 1
 425 -90 l 1
 397 -90 l 1
 413 0 l 1
 45 0 l 1
 124 460 l 1
 156 460 l 1
 81 30 l 1
 336 30 l 1
 411 460 l 1
 441 460 l 1
 367 30 l 1
EndSplineSet
EndChar

StartChar: uni0447
Encoding: 1095 1095 455
Width: 422
VWidth: 0
Flags: HW
LayerCount: 2
Fore
SplineSet
220 140 m 1
 224 170 l 1
 344 170 l 1
 339 140 l 1
 220 140 l 1
371 460 m 1
 403 460 l 1
 323 0 l 1
 293 0 l 1
 371 460 l 1
132 460 m 1
 108 328 l 2
 91 223 119 170 224 170 c 1
 220 140 l 1
 91 140 58 206 77 328 c 2
 100 460 l 1
 132 460 l 1
EndSplineSet
EndChar

StartChar: uni0448
Encoding: 1096 1096 456
Width: 709
VWidth: 0
Flags: HW
LayerCount: 2
Fore
SplineSet
347 30 m 1
 584 30 l 1
 658 460 l 1
 690 460 l 1
 610 0 l 1
 45 0 l 1
 124 460 l 1
 156 460 l 1
 81 30 l 1
 317 30 l 1
 391 460 l 1
 422 460 l 1
 347 30 l 1
EndSplineSet
EndChar

StartChar: uni0449
Encoding: 1097 1097 457
Width: 747
VWidth: 0
Flags: HW
LayerCount: 2
Fore
SplineSet
347 30 m 1
 584 30 l 1
 658 460 l 1
 690 460 l 1
 615 30 l 1
 693 30 l 1
 672 -90 l 1
 644 -90 l 1
 660 0 l 1
 45 0 l 1
 124 460 l 1
 156 460 l 1
 81 30 l 1
 317 30 l 1
 391 460 l 1
 422 460 l 1
 347 30 l 1
EndSplineSet
EndChar

StartChar: uni044A
Encoding: 1098 1098 458
Width: 516
VWidth: 0
Flags: HW
LayerCount: 2
Fore
SplineSet
200 258 m 1
 205 286 l 1
 326 286 l 2
 416 286 481 235 467 142 c 0
 453 48 372 0 280 0 c 2
 156 0 l 1
 161 28 l 1
 282 28 l 2
 359 28 424 67 435 144 c 0
 446 219 395 258 323 258 c 2
 200 258 l 1
212 430 m 1
 51 430 l 1
 56 460 l 1
 248 460 l 1
 168 0 l 1
 137 0 l 1
 212 430 l 1
EndSplineSet
EndChar

StartChar: uni044B
Encoding: 1099 1099 459
Width: 560
VWidth: 0
Flags: HW
LayerCount: 2
Fore
SplineSet
510 460 m 1
 542 460 l 1
 462 0 l 1
 431 0 l 1
 510 460 l 1
124 460 m 1
 156 460 l 1
 76 0 l 1
 45 0 l 1
 124 460 l 1
105 258 m 1
 109 286 l 1
 230 286 l 2
 320 286 385 235 371 142 c 0
 357 48 274 0 182 0 c 2
 61 0 l 1
 65 28 l 1
 186 28 l 2
 259 28 327 66 340 143 c 0
 352 216 300 258 228 258 c 2
 105 258 l 1
EndSplineSet
EndChar

StartChar: uni044C
Encoding: 1100 1100 460
Width: 420
VWidth: 0
Flags: HW
LayerCount: 2
Fore
SplineSet
124 460 m 1
 156 460 l 1
 76 0 l 1
 45 0 l 1
 124 460 l 1
105 258 m 1
 109 286 l 1
 230 286 l 2
 320 286 385 235 371 142 c 0
 357 48 273 0 184 0 c 2
 61 0 l 1
 65 28 l 1
 186 28 l 2
 262 29 327 66 340 143 c 0
 352 216 300 258 228 258 c 2
 105 258 l 1
EndSplineSet
EndChar

StartChar: uni044D
Encoding: 1101 1101 461
Width: 469
VWidth: 0
Flags: HW
LayerCount: 2
Fore
SplineSet
147 245 m 1
 443 245 l 1
 417 215 l 1
 142 215 l 1
 147 245 l 1
416 230 m 0
 433 339 372 438 257 439 c 0
 188 439 128 406 92 373 c 1
 97 412 l 1
 135 442 193 470 258 470 c 0
 391 470 465 356 447 230 c 0
 426 98 314 -10 180 -10 c 0
 118 -10 66 14 36 48 c 1
 42 88 l 1
 66 51 118 20 182 20 c 0
 299 20 397 115 416 230 c 0
EndSplineSet
EndChar

StartChar: uni044E
Encoding: 1102 1102 462
Width: 729
VWidth: 0
Flags: HW
LayerCount: 2
Fore
SplineSet
103 226 m 1
 108 256 l 1
 274 256 l 1
 268 226 l 1
 103 226 l 1
124 460 m 1
 156 460 l 1
 76 0 l 1
 45 0 l 1
 124 460 l 1
246 230 m 0
 266 361 380 470 514 470 c 0
 647 470 721 356 703 230 c 0
 683 99 569 -10 435 -10 c 0
 302 -10 228 104 246 230 c 0
278 230 m 0
 261 121 322 21 437 20 c 0
 554 19 652 115 671 230 c 0
 688 339 627 439 512 440 c 0
 395 441 297 345 278 230 c 0
EndSplineSet
EndChar

StartChar: uni044F
Encoding: 1103 1103 463
Width: 420
VWidth: 0
Flags: HW
LayerCount: 2
Fore
SplineSet
60 0 m 1
 22 0 l 1
 208 206 l 1
 244 206 l 1
 60 0 l 1
346 0 m 1
 314 0 l 1
 394 460 l 1
 425 460 l 1
 346 0 l 1
364 212 m 1
 359 184 l 1
 242 184 l 1
 153 185 86 228 100 322 c 0
 114 416 195 458 286 460 c 2
 406 460 l 1
 402 432 l 1
 284 432 l 2
 209 431 143 397 131 322 c 0
 119 247 172 214 244 212 c 2
 364 212 l 1
EndSplineSet
EndChar

StartChar: uni0450
Encoding: 1104 1104 464
Width: 494
VWidth: 0
Flags: HW
LayerCount: 2
Fore
SplineSet
78 223 m 1
 82 250 l 1
 438 250 l 1
 455 344 405 440 302 441 c 0
 197 442 110 351 92 241 c 1
 90 232 l 1
 78 125 122 21 231 20 c 0
 321 19 376 72 419 123 c 1
 443 106 l 1
 394 48 333 -11 226 -10 c 0
 103 -9 44 110 59 231 c 0
 63 255 68 277 77 299 c 0
 113 393 199 470 304 470 c 0
 421 469 486 364 472 248 c 0
 471 240 468 231 466 223 c 1
 78 223 l 1
189 693 m 1
 219 710 l 1
 355 550 l 1
 337 538 l 1
 189 693 l 1
EndSplineSet
EndChar

StartChar: uni0451
Encoding: 1105 1105 465
Width: 494
VWidth: 0
Flags: HW
LayerCount: 2
Fore
SplineSet
78 223 m 1
 82 250 l 1
 438 250 l 1
 455 344 405 440 302 441 c 0
 197 442 110 351 92 241 c 1
 90 232 l 1
 78 125 122 21 231 20 c 0
 321 19 376 72 419 123 c 1
 443 106 l 1
 394 48 333 -11 226 -10 c 0
 103 -9 44 110 59 231 c 0
 63 255 68 277 77 299 c 0
 113 393 199 470 304 470 c 0
 421 469 486 364 472 248 c 0
 471 240 468 231 466 223 c 1
 78 223 l 1
385 579 m 0
 386 591 400 603 412 603 c 0
 425 603 434 592 433 579 c 0
 432 567 418 555 406 555 c 0
 393 555 384 566 385 579 c 0
191 579 m 0
 192 591 206 603 218 603 c 0
 231 603 240 592 239 579 c 0
 238 567 224 555 212 555 c 0
 199 555 190 566 191 579 c 0
EndSplineSet
EndChar

StartChar: uni0453
Encoding: 1107 1107 466
Width: 299
VWidth: 0
Flags: HW
LayerCount: 2
Fore
SplineSet
128 460 m 1
 347 460 l 1
 342 430 l 1
 155 430 l 1
 81 0 l 1
 50 0 l 1
 128 460 l 1
408 683 m 1
 212 531 l 1
 196 544 l 1
 382 702 l 1
 408 683 l 1
EndSplineSet
EndChar

StartChar: uni045C
Encoding: 1116 1116 467
Width: 426
VWidth: 0
Flags: HW
LayerCount: 2
Fore
SplineSet
126 460 m 1
 158 460 l 1
 78 0 l 1
 47 0 l 1
 126 460 l 1
366 459 m 1
 409 459 l 1
 152 269 l 1
 347 0 l 1
 309 0 l 1
 114 271 l 1
 366 459 l 1
474 700 m 1
 278 548 l 1
 262 561 l 1
 448 719 l 1
 474 700 l 1
EndSplineSet
EndChar

